<svg width="152" height="152" viewBox="0 0 152 152" fill="none" xmlns="http://www.w3.org/2000/svg">
<g clip-path="url(#clip0_1307_6239)">
<path d="M109.91 30.5177C102.904 27.5191 96.9414 28.4035 96.9414 28.4035C95.7669 28.5486 89.8527 29.6264 87.1236 30.1446C84.3531 30.6697 79.5029 31.4918 78.2247 31.7475C78.1487 31.7613 78.1072 31.7682 78.0865 31.7751C74.7149 32.4522 73.6785 31.1878 65.7883 29.7369C63.3011 29.2809 59.6185 28.7075 55.024 28.4035C55.024 28.4035 48.184 27.8784 40.4458 31.4435C35.8858 33.5438 4.94687 51.8806 6.90214 78.3424C8.20105 95.85 23.028 108.867 34.4901 118.892C42.0003 125.462 48.1425 128.254 55.2589 136.883C56.468 138.348 58.9 141.429 63.1974 143.896C67.8887 146.583 72.6076 147.281 75.9654 147.433C75.9654 147.433 75.9723 147.433 75.9792 147.433C75.9861 147.433 75.9861 147.433 75.9931 147.433C79.0745 147.385 83.5032 146.887 88.008 144.525C92.6578 142.086 95.2763 138.769 96.6443 137.111C103.733 128.523 108.093 127.19 116.653 119.023C132.758 103.664 143.833 93.1071 145.063 78.3424C147.329 51.086 114.145 32.3278 109.91 30.5177V30.5177Z" fill="#F6D578"/>
<path d="M113.786 34.5108C112.846 34.1792 109.62 32.977 109.924 33.6472C112.238 38.7392 112.432 42.0279 112.307 43.6032C112.183 45.1785 111.941 47.1061 110.718 49.3999C109.986 50.761 107.671 52.0806 106.02 50.8715C99.9953 46.4497 89.6869 40.3559 72.5524 38.5388C57.5458 36.9497 48.2117 38.9257 42.2491 40.9432C34.3589 43.6101 29.5571 47.3203 26.3237 50.9752C24.2786 53.2828 21.3906 56.6337 20.6444 61.7948C19.4353 70.1686 24.8589 76.4835 25.6328 77.3541C29.5157 81.7275 36.0517 85.721 40.7015 86.7781C59.5978 91.0894 67.2877 90.6057 86.1495 92.2086C92.4644 92.7475 99.0211 93.5006 101.633 98.0814C102.006 98.7308 103.699 101.736 102.337 105.108C102.337 105.108 99.7535 115.976 69.312 116.556C69.2844 116.556 69.2429 116.556 69.2015 116.556C68.1928 116.522 67.2462 116.093 66.5208 115.375C65.4844 114.345 63.8953 112.749 62.2993 111.084C61.6084 110.366 59.2109 108.017 55.6182 107.063C55.6182 107.063 49.6764 105.481 43.7484 109.205C42.9608 109.702 41.1782 110.905 39.6375 113.198C39.0709 114.041 38.6426 114.877 38.3178 115.658C37.5509 117.503 38.1037 119.624 39.6513 120.888C40.1626 121.303 40.7498 121.6 41.3855 121.766C44.5015 122.56 50.4848 123.838 50.6229 123.845C55.1622 124.212 89.6248 126.726 104.348 119.541C104.396 119.513 104.438 119.5 104.438 119.5C106.096 118.581 108.39 117.185 110.919 115.181C113.288 113.309 117.068 110.324 119.569 106.282C123.003 100.741 125.096 93.8875 122.415 86.8748C119.348 78.8534 112.356 75.9032 106.801 73.4366C91.7942 66.7694 68.5589 69.3395 54.8098 65.2494C52.0048 64.4134 47.0648 62.3683 45.6 59.1348C44.8055 57.373 45.4895 55.4385 45.6553 54.9825C48.0528 48.2806 64.1786 46.7399 79.3371 48.8679C89.3 50.2705 102.42 56.6683 107.229 61.9054C107.713 62.4305 109.295 63.4392 111.278 63.4185C112.984 63.3977 118.864 59.0035 119.527 58.3886C124.405 53.8701 126.195 50.7817 126.823 45.6552C127.362 41.2748 123.155 39.6857 122.16 39.0432C120.425 37.917 114.808 34.8839 113.786 34.5177V34.5108Z" fill="#EF8119"/>
<path d="M109.91 30.5177C102.904 27.5191 96.9414 28.4035 96.9414 28.4035C95.7669 28.5486 89.8527 29.6264 87.1236 30.1446C84.3531 30.6697 79.5029 31.4918 78.2247 31.7475C78.1487 31.7613 78.1072 31.7682 78.0865 31.7751C74.7149 32.4522 73.6785 31.1878 65.7883 29.7369C63.3011 29.2809 59.6185 28.7075 55.024 28.4035C55.024 28.4035 48.184 27.8784 40.4458 31.4435C35.8858 33.5438 4.94687 51.8806 6.90214 78.3424C8.20105 95.85 23.028 108.867 34.4901 118.892C42.0003 125.462 48.1425 128.254 55.2589 136.883C56.468 138.348 58.9 141.429 63.1974 143.896C67.8887 146.583 72.6076 147.281 75.9654 147.433C75.9654 147.433 75.9723 147.433 75.9792 147.433C75.9861 147.433 75.9861 147.433 75.9931 147.433C79.0745 147.385 83.5032 146.887 88.008 144.525C92.6578 142.086 95.2763 138.769 96.6443 137.111C103.733 128.523 108.093 127.19 116.653 119.023C132.758 103.664 143.833 93.1071 145.063 78.3424C147.329 51.086 114.145 32.3278 109.91 30.5177V30.5177Z" stroke="#E57D21" stroke-width="11" stroke-miterlimit="10"/>
<path d="M73.2087 30.4897C66.9698 21.8395 65.2425 12.7333 66.7694 5.9348C67.1909 4.06244 70.1342 1.34716 76.6425 1.31953C81.0782 1.2988 85.2443 2.9708 89.1065 6.33553C90.6472 7.67589 83.1094 13.9839 82.5912 15.8286C81.5272 19.601 79.8967 31.2221 80.4563 30.7592C80.5738 30.7592 80.6429 30.773 80.6567 30.8075C80.7534 31.0563 77.7134 32.9839 75.3367 32.2101C74.2105 31.8439 73.5472 30.9733 73.2087 30.4966V30.4897Z" fill="#EF8119"/>
</g>
<defs>
<clipPath id="clip0_1307_6239">
<rect width="152" height="152" fill="white"/>
</clipPath>
</defs>
</svg>
