<svg width="138" height="136" viewBox="0 0 138 136" fill="none" xmlns="http://www.w3.org/2000/svg">
<path d="M135.013 68C135.013 104.373 105.278 133.889 68.562 133.889C31.8457 133.889 2.11107 104.373 2.11107 68C2.11107 31.6269 31.8457 2.11107 68.562 2.11107C105.278 2.11107 135.013 31.6269 135.013 68Z" fill="#EF8119" stroke="#EF8119" stroke-width="4.22213"/>
<path d="M90.0298 40.0926C85.5706 38.1683 81.7755 38.7358 81.7755 38.7358C81.0279 38.829 77.2636 39.5206 75.5265 39.8532C73.7631 40.1902 70.676 40.7178 69.8625 40.8819C69.8141 40.8907 69.7877 40.8952 69.7745 40.8996C67.6285 41.3341 66.9688 40.5227 61.9468 39.5916C60.3637 39.2989 58.0198 38.9309 55.0954 38.7358C55.0954 38.7358 50.7418 38.3989 45.8165 40.6868C42.9141 42.0347 23.2217 53.8023 24.4662 70.7843C25.2929 82.0199 34.7301 90.3734 42.0257 96.807C46.8059 101.024 50.7154 102.815 55.2449 108.353C56.0145 109.293 57.5624 111.27 60.2977 112.853C63.2837 114.578 66.2872 115.026 68.4244 115.124C68.4244 115.124 68.4288 115.124 68.4332 115.124C68.4376 115.124 68.4376 115.124 68.442 115.124C70.4034 115.093 73.2222 114.773 76.0894 113.257C79.049 111.692 80.7157 109.563 81.5864 108.499C86.0983 102.988 88.8732 102.132 94.3218 96.8913C104.573 87.0346 111.622 80.2596 112.405 70.7843C113.847 53.2924 92.7255 41.2543 90.0298 40.0926Z" fill="#EF8119"/>
<path d="M92.4924 42.6562C91.8943 42.4433 89.8407 41.6718 90.0342 42.1019C91.5074 45.3697 91.6305 47.4803 91.5513 48.4912C91.4722 49.5022 91.3183 50.7392 90.5399 52.2113C90.0737 53.0848 88.6006 53.9317 87.5495 53.1557C83.7148 50.318 77.1536 46.4073 66.2476 45.2412C56.6961 44.2213 50.7549 45.4894 46.9598 46.7842C41.9378 48.4957 38.8815 50.8767 36.8234 53.2222C35.5217 54.7032 33.6835 56.8536 33.2086 60.1658C32.439 65.5397 35.8911 69.5923 36.3836 70.151C38.8551 72.9576 43.0152 75.5204 45.9748 76.1988C58.0022 78.9656 62.8967 78.6552 74.9021 79.6839C78.9215 80.0298 83.0948 80.5131 84.7571 83.4527C84.9945 83.8695 86.0719 85.7983 85.2056 87.9621C85.2056 87.9621 83.5609 94.9366 64.1852 95.3091C64.1676 95.3091 64.1412 95.3091 64.1148 95.3091C63.4728 95.2869 62.8703 95.012 62.4085 94.5509C61.7489 93.8902 60.7375 92.866 59.7216 91.7974C59.2819 91.3363 57.7559 89.8287 55.4692 89.2169C55.4692 89.2169 51.6872 88.2015 47.9141 90.5914C47.4128 90.9106 46.2782 91.6821 45.2975 93.1542C44.9369 93.6951 44.6643 94.2316 44.4576 94.7327C43.9695 95.9165 44.3213 97.2777 45.3063 98.0891C45.6318 98.3552 46.0055 98.5458 46.4101 98.6523C48.3934 99.1622 52.2017 99.9824 52.2897 99.9869C55.1789 100.222 77.1141 101.836 86.4853 97.2245C86.5161 97.2068 86.5425 97.1979 86.5425 97.1979C87.5979 96.6082 89.0579 95.7126 90.6674 94.4267C92.1758 93.2251 94.5813 91.3097 96.1732 88.7158C98.3588 85.1598 99.6913 80.7614 97.985 76.2609C96.0325 71.1131 91.5821 69.2198 88.0465 67.6369C78.4949 63.3582 63.7058 65.0076 54.9546 62.3827C53.1692 61.8462 50.0249 60.5338 49.0927 58.4587C48.5869 57.328 49.0223 56.0865 49.1278 55.7939C50.6538 51.493 60.9178 50.5042 70.5661 51.8699C76.9074 52.77 85.2584 56.8758 88.3191 60.2367C88.6269 60.5737 89.634 61.221 90.8961 61.2077C91.9823 61.1944 95.7246 58.3744 96.1468 57.9798C99.2515 55.08 100.39 53.0981 100.791 49.8081C101.134 46.997 98.4556 45.9772 97.8223 45.5648C96.7185 44.8421 93.1433 42.8956 92.4924 42.6606V42.6562Z" fill="#F6D578"/>
<path d="M90.0298 40.0926C85.5706 38.1683 81.7755 38.7358 81.7755 38.7358C81.0279 38.829 77.2636 39.5206 75.5265 39.8532C73.7631 40.1902 70.676 40.7178 69.8625 40.8819C69.8141 40.8907 69.7877 40.8952 69.7745 40.8996C67.6285 41.3341 66.9688 40.5227 61.9468 39.5916C60.3637 39.2989 58.0198 38.9309 55.0954 38.7358C55.0954 38.7358 50.7418 38.3989 45.8165 40.6868C42.9141 42.0347 23.2217 53.8023 24.4662 70.7843C25.2929 82.0199 34.7301 90.3734 42.0257 96.807C46.8059 101.024 50.7154 102.815 55.2449 108.353C56.0145 109.293 57.5624 111.27 60.2977 112.853C63.2837 114.578 66.2872 115.026 68.4244 115.124C68.4244 115.124 68.4288 115.124 68.4332 115.124C68.4376 115.124 68.4376 115.124 68.442 115.124C70.4034 115.093 73.2222 114.773 76.0894 113.257C79.049 111.692 80.7157 109.563 81.5864 108.499C86.0983 102.988 88.8732 102.132 94.3218 96.8913C104.573 87.0346 111.622 80.2596 112.405 70.7843C113.847 53.2924 92.7255 41.2543 90.0298 40.0926V40.0926Z" stroke="#EFCF79" stroke-width="4.87732" stroke-miterlimit="10"/>
<path d="M66.6652 40.0752C62.6942 34.5239 61.5948 28.68 62.5667 24.317C62.8349 23.1154 64.7083 21.3728 68.8508 21.3551C71.6741 21.3418 74.3258 22.4148 76.7841 24.5741C77.7647 25.4343 72.967 29.4825 72.6372 30.6664C71.9599 33.0873 70.9221 40.5451 71.2783 40.2481C71.3531 40.2481 71.397 40.2569 71.4058 40.2791C71.4674 40.4387 69.5325 41.6758 68.0197 41.1792C67.3029 40.9442 66.8807 40.3855 66.6652 40.0796V40.0752Z" fill="#F6D578"/>
</svg>
