<?xml version="1.0" encoding="UTF-8"?>
<svg id="_圖層_4" data-name="圖層 4" xmlns="http://www.w3.org/2000/svg" viewBox="0 0 704.33 220">
  <defs>
    <style>
      .cls-1 {
        fill: #ef8119;
      }
    </style>
  </defs>
  <path class="cls-1" d="M215.86,92.36c-7.92,2.55-15.53,5.19-23.27,7.42-4.96,1.43-9.18-2.77-7.51-7.6,.69-1.99,2.97-3.75,4.94-4.91,7.9-4.67,16.22-8.69,23.93-13.66,15.07-9.7,27.82-21.95,38.08-36.71,1.27-1.82,2.54-3.64,3.93-5.37,7.15-8.87,19.68-3.73,22.62,2.81,.91,2.04,1.06,4.9,.4,7.03-.75,2.43,.11,3.35,1.72,4.6,15.24,11.81,32.21,20.23,50.59,25.9,2.22,.68,4.46,1.33,6.64,2.12,6.37,2.32,8.91,7.53,6.96,14.08-2.16,7.23-6.87,10.33-13.72,8.42-4.64-1.29-9.07-3.34-13.95-5.18v40.97c2.64,1.12,5.56,1.9,7.96,3.47,5.11,3.32,5.97,9.07,1.65,13.31-3.59,3.53-8.02,6.2-12.09,9.23-.69,.51-1.46,.9-2.57,1.57,6.42,3.21,12.53,6.19,18.57,9.3,3.68,1.89,7.24,4.01,8.58,8.32,1.32,4.27-.83,10.32-4.65,13.39-3.57,2.86-8.82,3.2-13.42,.41-4.45-2.7-8.54-5.99-13-8.67-16.04-9.66-32.15-19.2-48.26-28.73-3.82-2.26-5.01-4.13-4.2-7.33,.94-3.75,3.13-5.37,6.87-4.24,10.16,3.08,20.28,6.29,30.3,9.8,2.8,.98,4.58,1.1,6.5-1.4,2.69-3.5,5.71-6.74,9.06-10.63h-68.16v27.17c5.59-.64,10.96-1.28,16.33-1.88,3.75-.42,7.49-.96,11.24-1.15,3.99-.19,5.95,1.31,6.67,4.56,.77,3.44-.48,5.62-4.26,7.2-19.31,8.06-39.4,13.28-60.06,16.34-1.2,.18-2.43,.21-3.65,.21-6.72,0-10.67-3.3-11.19-9.28-.66-7.58,1.88-11.22,9.12-12.5,3.67-.65,7.43-.83,11.31-1.25V92.36Zm24.43,34.51c1.46,0,2.75,0,4.04,0,13.74,0,27.48,0,41.22,0q8.12,0,7.71-8.06c-.02-.3-.2-.6-.32-.93h-52.65v8.98Zm53.01-22.4c0-2.1-.03-3.85,0-5.6,.04-2.06-.91-3.07-2.99-3.06-15.72,.01-31.44-.04-47.16,.11-1,0-2.62,1.37-2.85,2.35-.45,1.94-.13,4.06-.13,6.2h53.13Zm-14.68-22.03h22.64c-10.08-9.18-20.42-18.59-30.37-27.66-1.88,1.71-4.3,3.91-6.67,6.06,3.93,3.06,7.89,5.92,11.57,9.08,3.74,3.22,5.64,7.15,2.83,12.51Zm-43.45-.15h26.39c-3.17-4.22-6-7.98-8.79-11.68-5.95,3.95-11.56,7.67-17.6,11.68Z"/>
  <path class="cls-1" d="M439.62,87.39c9.81-10.66,13.19-23.15,14.33-37.06-3.95,0-7.69,.08-11.42-.02-5.67-.14-8.55-2.92-7.84-7.47,.41-2.66,1.82-4.51,4.56-5.04,1.3-.25,2.63-.45,3.95-.45,18.54-.03,37.07-.03,55.61,0,9.03,0,12.55,3.54,12.15,12.61-.47,10.52-1.07,21.03-1.89,31.52-.95,12.15-8.94,18.9-21.57,17.38-5.8-.7-11.41-3.27-16.97-5.36-1.4-.53-2.77-2.35-3.26-3.86-1.16-3.58,1.31-6.63,5.16-6.62,2.88,0,5.75,.55,8.62,.51,4.77-.06,6.44-1.53,6.83-6.28,.62-7.73,.9-15.49,1.48-23.22,.22-3.01-.96-3.96-3.83-3.73-2.86,.23-6.53-.88-8.41,.52-1.79,1.34-1.75,5.15-2.47,7.88-5.09,19.43-16.06,34.29-33.9,43.88-2.36,1.27-4.66,2.8-7.42,1.02-2.2-1.42-2.97-3.94-2.39-7.84h-13.58v20.45c4.26,0,8.45-.04,12.64,0,5.06,.06,7.07,2.35,6.52,7.32-.33,2.92-1.87,4.75-4.89,4.89-3.54,.16-7.1,.14-10.65,.18-1.19,.02-2.38,0-3.74,0v32.57c4.77,.82,9.6,1.95,14.49,2.43,24.45,2.43,48.94,2.25,73.41,.31,10.04-.8,15.3,5.22,12.58,14.75-1.35,4.75-4.75,7.35-9.41,7.65-9.73,.63-19.49,1.23-29.23,1.09-11.74-.17-23.51-.75-35.2-1.83-15.06-1.38-30.1-3.73-42.96-12.43-5.96-4.03-10.95-9.49-16.38-14.31-.5,1.76-1.2,4.32-1.96,6.87-2.43,8.13-5.79,15.85-11.16,22.47-1.29,1.59-3.76,3.01-5.75,3.1-3.97,.18-6.49-3.55-4.92-7.5,6.98-17.6,6.3-36.08,6.67-54.45,.09-4.32,.13-8.65,.34-12.97,.3-6.16,4.04-9.4,10.56-9.33,6.16,.07,10.11,3.53,10.16,9.45,.05,6.2,.02,12.45-.68,18.6-.58,5.05,1.31,8.49,5.21,11.65v-51.13c-6.94,0-13.79,.02-20.64-.01-1.55,0-3.11-.04-4.63-.28-4.32-.68-6.04-2.81-5.8-6.97,.21-3.68,2.45-5.76,6.7-5.83,6.21-.11,12.43-.03,18.65-.03,1.19,0,2.37,0,3.74,0,.07-1.01,.16-1.65,.16-2.29,.01-4.76,0-9.53,0-14.85-4.17,0-8.12,0-12.08,0-2,0-4,.07-5.99-.04-4.33-.23-6.44-2.34-6.5-6.37-.07-3.86,1.81-6.05,6.16-6.28,5.31-.29,10.65-.11,15.98-.14,.65,0,1.31-.08,2.45-.16,0-3.23-.04-6.4,0-9.57,.16-9.64,6.36-14.29,15.72-11.84,4.64,1.22,7.31,4.1,7.61,8.88,.25,4.07,.05,8.17,.05,12.7,2.55,0,4.62-.04,6.68,0,3.54,.08,7.12-.05,10.62,.39,3.68,.47,4.98,2.48,4.82,6.3-.15,3.6-1.91,5.74-5.38,5.93-4.43,.24-8.88,.26-13.31,.15-2.35-.06-3.42,.49-3.31,3.12,.2,4.52,.06,9.06,.06,14.07,5.89,0,11.5,.02,17.12,0,3.47-.02,6.36,.86,7.72,4.91Z"/>
  <path class="cls-1" d="M621.07,91.2c-1.41,6.49-2.41,12.45-4,18.24-10.54,38.4-33.73,65.95-70.52,81.71-4.02,1.72-6.86,1.01-8.71-2.06-2.03-3.37-1.26-7.14,1.93-9.74,7.55-6.16,15.53-11.87,22.54-18.6,17.2-16.52,27.21-37.16,32.76-60.15,3.72-15.4,4.91-31.06,5.11-46.83,.04-3.22,0-6.44,0-9.65-.02-11.86,8.79-17.77,19.93-13.38,3.93,1.55,6.45,4.35,6.95,8.57,.39,3.29,.66,6.64,.53,9.95-1.16,29.6,9.08,55.6,25.04,79.79,8.86,13.43,19.64,25.13,32.27,35.13,7.02,5.56,8.88,10.46,6.78,16.84-3.71,11.29-15.62,14.28-24.3,6.22-13.96-12.95-24.28-28.4-31.87-45.78-6.82-15.61-11.9-31.69-13.9-48.67-.04-.37-.24-.71-.54-1.59Z"/>
  <path class="cls-1" d="M84.75,92.48v-25.81c-3.55,0-7.03,.06-10.51-.02-4.65-.11-7.3-3.35-6.56-7.88,.53-3.27,2.41-5,5.93-5.12,3.62-.13,7.26-.03,11.24-.03,0-4.56,0-8.63,0-12.71,0-9.61,4.33-13.45,13.92-12.34,5.9,.68,8.86,3.91,8.96,9.92,.07,4.1,.12,8.21-.03,12.31-.08,2.23,.78,2.91,2.91,2.83,3.3-.13,6.61-.03,10.41-.03,0-4.05-.05-7.78,.02-11.5,.04-2.1-.16-4.37,.57-6.24,.84-2.13,2.18-4.63,4.04-5.68,4.46-2.53,9.41-2.36,14.08-.2,2.81,1.3,4.33,3.82,4.45,6.93,.17,4.43,.26,8.87,.15,13.3-.06,2.5,.54,3.68,3.32,3.45,2.86-.24,5.77-.14,8.65-.01,4.12,.18,6.11,2.51,5.98,6.75-.13,4.03-2.16,6.04-6.27,6.1-3.65,.05-7.31,.01-11.29,.01v25.97c4.96,0,9.91-.07,14.86,.02,5.59,.1,8.28,3.56,6.49,8.77-.54,1.56-2.42,3.02-4.03,3.73-1.63,.72-3.69,.6-5.56,.6-27.74,.03-55.48,.02-83.21,0-1.32,0-2.66-.08-3.97-.28-4.54-.69-6.11-2.55-5.88-6.81,.22-4.02,2.28-5.93,6.78-6.01,4.75-.09,9.5-.02,14.57-.02Zm23.26-25.83v25.65h13.21v-25.65h-13.21Z"/>
  <path class="cls-1" d="M130.07,180.45h-32.78c-.09,1.17-.16,2.34-.27,3.5-.41,4.39-2.45,7.12-6.73,7.93-2.77,.52-5.78,.61-8.55,.13-5.04-.86-7.52-4.32-7.53-9.8-.03-17.41-.01-34.82,0-52.22,0-2.55-.07-5.11,.09-7.65,.32-4.95,3.47-8.35,8.43-8.6,5.75-.29,11.52-.18,17.29-.19,13.86-.02,27.72-.02,41.58,0,8.58,.01,11.86,3.3,11.87,11.85,.01,18.18,0,36.37,0,54.55,0,8.51-3.04,12.19-10.27,12.42-8.95,.28-12.46-2.82-13.11-11.92Zm-32.98-28.03c0,4.15,.11,8.11-.04,12.07-.09,2.32,.69,3.09,3.03,3.05,6.87-.13,13.75-.04,20.62-.04,3.07,0,6.15,0,9.25,0v-15.07h-32.85Zm33.13-12.92c0-3.68-.05-6.88,.02-10.08,.05-2.28-1.08-3.18-3.24-3.18-8.85,.02-17.7,.03-26.55,0-2.22-.01-3.29,1.02-3.32,3.17-.04,2.65-.15,5.32,.07,7.96,.06,.75,1.13,2.04,1.75,2.04,10.27,.13,20.54,.09,31.28,.09Z"/>
  <path class="cls-1" d="M56.77,58.42c3.9-1.65,6.29,.1,7.98,3.01,3.44,5.92,7.01,11.8,10.01,17.95,2.34,4.8,.24,8.73-4.8,10.41-4.71,1.57-7.72,.06-9.18-4.72-.68-2.22-1.14-4.5-1.7-6.75-.52-2.13-1.03-4.26-2.31-6.41,0,1.08,0,2.16,0,3.24,0,34.72,0,69.44,0,104.16,0,.33,0,.67,0,1-.05,10.42-6.47,15.06-16.49,11.85-3.61-1.16-5.73-3.66-6.02-7.52-.12-1.66-.18-3.32-.18-4.98,0-45.92,0-91.85,0-137.77,0-.44,0-.89,0-1.33,.04-10.36,8.28-15.49,17.64-10.67,1.97,1.01,3.44,3.56,4.43,5.72,.78,1.71,.58,3.91,.6,5.9,.07,5.53,.02,11.06,.02,16.91Z"/>
  <path class="cls-1" d="M473.66,157.72c-7.98,0-15.96,.09-23.94-.02-7.23-.1-10.6-3.4-10.68-10.64-.13-10.75-.12-21.5,0-32.26,.08-7.28,3.19-10.69,10.53-10.8,16.18-.23,32.37-.23,48.55,0,7.32,.1,10.43,3.5,10.52,10.83,.13,10.75,.15,21.51,0,32.26-.1,7.26-3.43,10.49-10.7,10.6-8.09,.12-16.18,.03-24.27,.03Zm-12.51-27.32c0,3.76,.08,7.53-.03,11.29-.07,2.55,.97,3.59,3.53,3.55,6.09-.09,12.18-.1,18.26,0,2.48,.04,3.67-.8,3.64-3.44-.08-7.31-.06-14.61,0-21.92,.02-2.35-.95-3.45-3.36-3.43-6.2,.05-12.4,.07-18.6,0-2.62-.03-3.53,1.2-3.47,3.67,.09,3.43,.02,6.86,.02,10.29Z"/>
  <path class="cls-1" d="M32.1,76.22c-1.04,9.57-2.02,19.14-3.13,28.7-.39,3.35-1.72,6.37-5.25,7.4-3.77,1.1-7.49,.23-10.12-2.57-1.38-1.47-1.7-4.05-2.2-6.2-.2-.87,.29-1.96,.65-2.88,4.67-11.73,6.86-24.02,8.22-36.5,.3-2.71,1.2-5.01,4.25-5.62,3.48-.7,6.02,1.18,6.37,4.97,.39,4.19,.51,8.4,.75,12.61,.15,.03,.31,.05,.46,.08Z"/>
</svg>