<svg width="123" height="123" viewBox="0 0 123 123" fill="none" xmlns="http://www.w3.org/2000/svg">
<g clip-path="url(#clip0_1119_4709)">
<path d="M40.1644 69.0811L41.7313 70.648C47.7004 74.0803 64.1155 77.0947 82.0229 61.6943C82.9183 61.0974 84.9329 60.4856 85.8282 62.8136C86.9474 65.7235 87.1713 71.7672 73.7408 81.1686" stroke="#EF8119" stroke-width="2.5931" stroke-linecap="round"/>
<path d="M48.8939 65.7244C53.6197 63.6846 63.492 61.8707 65.1738 70.9333" stroke="#EF8119" stroke-width="2.5931" stroke-linecap="round"/>
<path d="M48.4455 65.7251C54.713 63.3375 67.7407 60.7558 69.7105 69.5304" stroke="#EF8119" stroke-width="2.5931" stroke-linecap="round"/>
<path d="M39.9426 68.9921C39.1093 69.3846 37.529 70.3476 37.8742 71.0606C38.2194 71.7735 39.053 72.0862 39.4267 72.1534C40.8244 77.0751 47.3269 86.5416 61.429 85.8701" stroke="#EF8119" stroke-width="2.5931" stroke-linecap="round"/>
<path d="M76.6502 79.1549C77.7506 81.7879 77.9933 87.6609 68.8157 89.6755" stroke="#EF8119" stroke-width="2.5931" stroke-linecap="round"/>
<path d="M49.3416 77.8116C51.504 78.8796 56.7249 81.0463 61.2052 80.2738" stroke="#EF8119" stroke-width="2.5931" stroke-linecap="round"/>
<path d="M57.6166 90.413C69.4224 78.1617 64.9823 74.583 63.8897 71.2208C80.7377 77.5381 71.878 88.0312 65.2404 92.5899C57.635 98.057 56.0195 92.9011 57.6166 90.413Z" fill="#F4D775"/>
<path d="M48.4235 66.1945C54.8936 69.0797 62.4692 66.8499 63.8897 71.2208M63.8897 71.2208C64.9823 74.583 69.4224 78.1617 57.6166 90.413C56.0195 92.9011 57.635 98.057 65.2404 92.5899C71.878 88.0312 80.7377 77.5381 63.8897 71.2208Z" stroke="#EF8119" stroke-width="2.5931" stroke-linecap="round"/>
</g>
<path d="M114.039 31.3945C108.719 22.1792 101.062 14.5301 91.8409 9.21909C82.6202 3.90804 72.1617 1.1229 61.5208 1.14466C50.8798 1.16643 40.4329 3.99434 31.2339 9.34307C22.0349 14.6918 14.4094 22.3721 9.12667 31.6092L25.012 40.6941C28.6968 34.251 34.0158 28.8938 40.4323 25.1629C46.8488 21.432 54.1359 19.4595 61.5582 19.4443C68.9805 19.4291 76.2756 21.3718 82.7073 25.0764C89.139 28.781 94.4799 34.1164 98.1911 40.5444L114.039 31.3945Z" fill="#EF8119"/>
<path opacity="0.3" d="M114.039 31.3945C119.344 40.5824 122.139 51.0036 122.145 61.6129C122.15 72.2221 119.366 82.6462 114.071 91.8396C108.776 101.033 101.156 108.672 91.9768 113.991C82.7973 119.311 72.3805 122.122 61.7713 122.144C51.162 122.167 40.7335 119.399 31.5318 114.118C22.3301 108.838 14.6787 101.23 9.34529 92.059C4.01184 82.8878 1.18383 72.4754 1.14494 61.8663C1.10606 51.2571 3.85767 40.8243 9.12375 31.6143L25.0099 40.6977C21.3367 47.1219 19.4174 54.3991 19.4445 61.7992C19.4716 69.1994 21.4442 76.4623 25.1645 82.8594C28.8847 89.2565 34.2217 94.5629 40.6401 98.2462C47.0586 101.93 54.3327 103.86 61.7329 103.845C69.1331 103.829 76.3991 101.868 82.8021 98.1579C89.205 94.4477 94.5198 89.119 98.2131 82.7064C101.907 76.2938 103.849 69.0226 103.845 61.6224C103.841 54.2222 101.891 46.9531 98.1911 40.5444L114.039 31.3945Z" fill="#EF8119"/>
<path d="M43.896 53.286C46.866 53.286 49.308 51.57 49.308 48.644C49.308 46.466 47.834 45.058 45.964 44.596V44.486C47.68 43.848 48.758 42.55 48.758 40.68C48.758 38.018 46.712 36.5 43.808 36.5C41.938 36.5 40.442 37.314 39.166 38.458L40.486 40.042C41.41 39.14 42.466 38.546 43.72 38.524C45.26 38.546 46.206 39.426 46.206 40.856C46.206 42.484 45.15 43.694 41.96 43.694V45.564C45.612 45.564 46.756 46.73 46.756 48.512C46.756 50.206 45.502 51.218 43.676 51.218C42.004 51.218 40.794 50.404 39.848 49.436L38.616 51.064C39.694 52.274 41.344 53.286 43.896 53.286ZM57.1029 53.286C60.0729 53.286 62.5149 51.57 62.5149 48.644C62.5149 46.466 61.0409 45.058 59.1709 44.596V44.486C60.8869 43.848 61.9649 42.55 61.9649 40.68C61.9649 38.018 59.9189 36.5 57.0149 36.5C55.1449 36.5 53.6489 37.314 52.3729 38.458L53.6929 40.042C54.6169 39.14 55.6729 38.546 56.9269 38.524C58.4669 38.546 59.4129 39.426 59.4129 40.856C59.4129 42.484 58.3569 43.694 55.1669 43.694V45.564C58.8189 45.564 59.9629 46.73 59.9629 48.512C59.9629 50.206 58.7089 51.218 56.8829 51.218C55.2109 51.218 54.0009 50.404 53.0549 49.436L51.8229 51.064C52.9009 52.274 54.5509 53.286 57.1029 53.286ZM68.9897 46.752C71.2558 46.752 72.7957 44.86 72.7957 41.604C72.7957 38.348 71.2558 36.5 68.9897 36.5C66.7237 36.5 65.2057 38.348 65.2057 41.604C65.2057 44.86 66.7237 46.752 68.9897 46.752ZM68.9897 45.256C67.8677 45.256 67.0537 44.09 67.0537 41.604C67.0537 39.096 67.8677 37.996 68.9897 37.996C70.1338 37.996 70.9478 39.096 70.9478 41.604C70.9478 44.09 70.1338 45.256 68.9897 45.256ZM69.4957 53.286H71.1018L79.9678 36.5H78.3617L69.4957 53.286ZM80.4957 53.286C82.7398 53.286 84.2798 51.416 84.2798 48.16C84.2798 44.904 82.7398 43.056 80.4957 43.056C78.2298 43.056 76.6898 44.904 76.6898 48.16C76.6898 51.416 78.2298 53.286 80.4957 53.286ZM80.4957 51.812C79.3518 51.812 78.5597 50.646 78.5597 48.16C78.5597 45.652 79.3518 44.552 80.4957 44.552C81.6178 44.552 82.4318 45.652 82.4318 48.16C82.4318 50.646 81.6178 51.812 80.4957 51.812Z" fill="#EF8119"/>
<defs>
<clipPath id="clip0_1119_4709">
<rect width="50" height="50" fill="white" transform="translate(64.1675 35) rotate(45)"/>
</clipPath>
</defs>
</svg>
