<svg width="90" height="90" viewBox="0 0 90 90" fill="none" xmlns="http://www.w3.org/2000/svg">
<g clip-path="url(#clip0_842_4309)">
<path d="M23.2031 75.4121C21.1532 77.2426 19.1978 79.0948 17.126 80.8065C15.2482 82.3581 13.1546 83.58 10.6952 84.014C6.6923 84.7195 2.33805 81.1629 2.47374 77.2814C2.53432 75.5552 3.29516 74.115 4.49942 72.9416C5.35961 72.1028 6.35792 71.4045 7.35622 70.5923C7.17691 70.4978 6.94672 70.4008 6.73834 70.2675C5.21665 69.2928 3.52535 68.4976 2.2169 67.2902C-0.962169 64.3591 -0.656863 59.886 2.6797 57.1367C2.96078 56.9064 3.1207 56.373 3.12312 55.9802C3.14735 45.4945 3.15947 35.0064 3.11828 24.5207C3.11343 23.2649 3.44297 22.2757 4.20866 21.2841C6.78195 17.9529 9.2656 14.549 11.8171 11.2009C12.2872 10.5851 12.4786 9.9741 12.4665 9.20798C12.4277 6.78354 12.4471 4.35911 12.4544 1.93467C12.4592 0.528493 12.9608 0.00723855 14.3662 0.00481412C23.4236 -0.0024592 32.4834 -0.0024592 41.5409 0.00481412C42.9365 0.00481412 43.4454 0.530917 43.4527 1.94436C43.4648 4.42941 43.4236 6.91446 43.4817 9.39951C43.4938 9.95713 43.6925 10.5996 44.0197 11.0433C46.6729 14.6557 49.4061 18.2123 52.0424 21.8369C52.4689 22.4236 52.7306 23.26 52.7524 23.9898C52.8324 26.773 52.7863 29.5587 52.7863 32.4559C56.9249 32.6717 60.4044 34.4682 63.6538 36.8345C63.741 36.7981 63.8307 36.7617 63.9179 36.7254C63.7677 35.518 63.7652 34.2718 63.4405 33.1129C62.7427 30.6109 61.8801 28.1525 61.0829 25.6796C59.7066 21.4175 60.1621 17.3298 62.2678 13.2859C63.1764 13.7393 64.0584 14.1781 64.9574 14.6266C64.5963 15.5794 64.2208 16.4643 63.9252 17.3735C63.1134 19.8537 63.2612 22.3218 64.056 24.7826C64.892 27.3719 65.7231 29.9636 66.5178 32.565C66.7165 33.2172 66.7771 33.913 66.9128 34.6428C67.836 34.2476 68.7034 33.8354 69.6 33.496C75.6383 31.2122 81.2961 32.8632 85.1415 38.0467C87.7512 41.5645 89.0596 45.6036 89.6799 49.8779C90.5934 56.179 89.5394 62.1238 86.2513 67.62C84.4534 70.6263 82.1321 73.1501 79.1953 75.0872C79.0209 75.2012 78.8561 75.3273 78.6937 75.4436C80.1839 76.6219 81.7299 77.7008 83.0989 78.9712C84.2426 80.0307 85.3402 81.2114 86.1665 82.523C87.5549 84.7268 86.8668 86.8579 84.56 88.0895C82.4277 89.2241 80.0749 89.5248 77.7197 89.7284C71.5384 90.2642 65.3717 89.9345 59.2099 89.3745C52.3623 88.7514 45.551 87.8568 38.8537 86.2688C35.3742 85.4444 31.9649 84.385 28.8125 82.6418C26.2973 81.2502 24.2959 79.3882 23.4672 76.5128C23.409 76.3092 23.3751 76.1007 23.3242 75.8946C23.2806 75.72 23.2297 75.5479 23.1934 75.4121H23.2031ZM63.4381 40.5002C62.8663 40.1002 62.3914 39.785 61.9358 39.4432C60.1088 38.0758 58.1752 36.8999 55.992 36.192C51.9407 34.8804 48.3133 35.5931 45.522 38.8758C40.9521 44.2508 39.8907 50.6392 40.6395 57.4495C40.6637 57.6798 41.0659 57.9707 41.347 58.058C43.3388 58.6714 45.3863 59.1247 47.3417 59.8375C56.9734 63.3481 66.1495 67.8236 74.9235 73.1259C75.4589 73.4483 75.8612 73.4604 76.3967 73.1622C78.7374 71.853 80.6734 70.0929 82.2605 67.9521C86.2368 62.5868 87.5816 56.5621 86.576 50.004C85.9726 46.0594 84.7078 42.3622 82.0957 39.2468C80.4674 37.3048 78.4757 35.9568 75.8854 35.6683C72.6337 35.3071 69.8399 36.529 67.1721 38.1849C67.0364 38.2697 66.9007 38.4491 66.874 38.6043C66.6341 39.928 66.4185 41.2542 66.1956 42.5804C66.2537 42.6361 66.3094 42.6919 66.3676 42.7477C66.8256 42.2434 67.2835 41.7391 67.7827 41.1936C68.6017 41.6664 69.457 42.1634 70.3608 42.6871C68.7107 45.2497 66.45 46.5807 63.4963 46.5346C60.6589 46.491 58.4951 45.16 56.9152 42.6822C57.8311 42.1512 58.6865 41.6591 59.3504 41.276C60.4481 42.0688 61.4221 42.7719 62.5513 43.5889C62.9075 42.3573 63.1764 41.436 63.4454 40.5051L63.4381 40.5002ZM56.0696 80.0258C57.1139 80.3313 58.0565 80.6077 59.033 80.8938C58.529 82.6563 58.0468 84.3365 57.5428 86.0966C58.5363 86.1912 59.4667 86.2906 60.3972 86.3682C66.1689 86.8555 71.9479 87.1706 77.7245 86.5936C79.4812 86.4191 81.221 85.9318 82.9244 85.4275C83.8985 85.139 83.9397 84.7171 83.409 83.8419C83.3 83.6601 83.1813 83.4831 83.048 83.3182C81.1386 80.9956 78.6962 79.3203 76.1713 77.5699C75.6988 79.1603 75.2554 80.6513 74.7902 82.2102C73.7701 81.912 72.8299 81.6357 71.8365 81.3447C72.309 79.7009 72.7088 78.1493 73.2152 76.634C73.4381 75.9649 73.2394 75.6885 72.687 75.3588C66.2004 71.5039 59.4643 68.1437 52.527 65.1834C51.0393 64.5482 49.5297 63.9639 47.9789 63.336C46.6826 67.7945 45.4202 72.1367 44.1384 76.5516C43.0844 76.2437 42.1418 75.9673 41.1701 75.6812C42.4713 71.1863 43.7458 66.7787 45.0349 62.3153C41.7832 61.2898 38.5823 60.4 35.2191 60.3345C32.0715 60.2739 29.7163 61.6559 28.5823 64.5943C27.6518 67.0066 26.845 69.5086 26.3725 72.0446C25.6843 75.7418 26.8692 77.9554 30.1549 79.8076C31.3858 80.501 32.7064 81.0635 34.0318 81.5629C39.1929 83.5 44.5988 84.3801 50.0192 85.185C51.4754 85.4008 52.9365 85.5705 54.3928 85.762C54.9622 83.8128 55.4953 81.9872 56.0671 80.0234L56.0696 80.0258ZM8.29637 58.6083C8.27941 58.6544 8.26245 58.7005 8.24549 58.749C7.49676 58.8411 6.73349 58.8677 6.00173 59.0375C3.22005 59.6799 2.21932 62.6935 4.13112 64.8101C4.80473 65.5568 5.66492 66.2211 6.56872 66.6551C8.27699 67.4769 10.0652 68.1461 11.851 68.7934C12.6967 69.1013 13.4963 69.3874 13.5278 70.4226C13.5593 71.4579 12.8154 71.8361 11.9504 72.1343C11.0102 72.4592 10.041 72.7889 9.21229 73.3198C8.15583 73.9938 7.09695 74.7551 6.28038 75.6909C5.10519 77.0389 5.32327 78.5372 6.68019 79.6888C8.11706 80.9059 9.72114 81.4272 11.5457 80.5762C12.1757 80.2828 12.8057 79.9822 13.3969 79.6209C15.9702 78.0378 18.0928 75.9261 20.2469 73.8362C22.4107 71.7367 24.0197 69.3801 24.4897 66.3447C24.5939 65.6659 24.8944 64.9725 24.8241 64.3155C24.3783 60.1794 23.5278 56.1233 21.8462 52.2999C21.3179 51.1023 20.5813 49.9458 19.726 48.9542C18.6259 47.679 16.026 47.4899 14.5794 48.3724C13.3775 49.107 12.9002 50.6586 13.6877 52.5278C14.371 54.1498 15.3766 55.6457 16.3313 57.1416C16.7941 57.8665 17.2932 58.5114 16.748 59.3623C16.1859 60.24 15.3717 60.1285 14.4873 59.9224C12.4325 59.4472 10.3608 59.0447 8.29637 58.6132V58.6083ZM6.30703 37.2806V55.6602C8.12676 55.7426 9.88833 55.8227 11.6257 55.9027C11.2695 54.9499 10.8333 54.014 10.5619 53.0321C9.44491 48.9712 11.3834 45.5091 15.2142 44.8812C18.3376 44.3696 21.0344 45.1988 22.9535 47.9093C24.7345 50.4234 25.6988 53.2794 26.4645 56.2178C26.8256 57.5973 27.1115 58.9987 27.4144 60.3103C28.3836 59.6217 29.2704 58.8847 30.2615 58.332C30.8527 58.0022 31.0562 57.6895 31.0538 57.0252C31.0272 50.7556 31.0369 44.486 31.0369 38.2164V37.2781H6.30946L6.30703 37.2806ZM34.182 57.2579H37.3296C37.3489 57.2094 37.3877 57.1537 37.3877 57.1003C37.3829 56.7973 37.3756 56.4942 37.3538 56.1936C37.0267 51.4902 37.7488 46.9516 39.5588 42.6022C41.0974 38.9074 43.3121 35.7483 46.9637 33.8379C47.8142 33.3918 48.7374 33.0887 49.6 32.7299V24.8917H34.1796V57.2555L34.182 57.2579ZM30.9836 34.0827V24.8723H6.30946V34.0827H30.986H30.9836ZM7.79237 21.7229C15.8127 21.7229 23.5956 21.7278 31.3809 21.7011C31.6644 21.7011 32.0303 21.4272 32.2217 21.1774C34.2959 18.4548 36.3434 15.7127 38.3957 12.9731C38.4951 12.8398 38.5605 12.6822 38.6695 12.481C38.466 12.4567 38.3521 12.4301 38.2382 12.4301C30.6056 12.4301 22.9705 12.4204 15.3378 12.4495C15.018 12.4495 14.5939 12.687 14.3928 12.9489C12.8178 14.9854 11.2864 17.0559 9.74294 19.1167C9.13233 19.9313 8.52414 20.7483 7.79237 21.7254V21.7229ZM15.5971 9.26617H40.2809V3.16628H15.5971V9.26617ZM35.7643 21.6575H48.071C45.9872 18.8791 43.9833 16.2073 41.9164 13.4507C39.8423 16.2195 37.8408 18.8912 35.7667 21.6575H35.7643Z" fill="#EF8119"/>
<path d="M72.1105 27.9368C69.3749 27.8447 67.2232 26.6979 65.6458 24.4626C65.0885 23.6746 65.0836 22.9352 65.6167 22.1157C68.6261 17.4826 75.5973 17.4826 78.5971 22.1157C79.1253 22.9328 79.1277 23.6746 78.568 24.465C76.9881 26.7028 74.8365 27.8447 72.1105 27.9368ZM68.7012 23.2649C70.5791 25.3451 73.6782 25.3378 75.4907 23.2867C73.7921 21.2284 70.6615 21.1969 68.7012 23.2649Z" fill="#EF8119"/>
</g>
<defs>
<clipPath id="clip0_842_4309">
<rect width="90" height="90" fill="white"/>
</clipPath>
</defs>
</svg>
