<svg width="98" height="98" viewBox="0 0 98 98" fill="none" xmlns="http://www.w3.org/2000/svg">
<path d="M1.73796 84.2851C1.89364 83.6981 2.01614 83.101 2.20754 82.5267C3.49379 78.6705 6.11223 76.2384 10.0578 75.2456C10.2925 75.1869 10.5299 75.1231 10.8132 75.0491V44.6028C8.51629 44.0362 7.74812 43.1277 7.84254 40.7542C7.91145 39.0443 7.75577 37.753 6.02801 36.6734C4.03739 35.428 3.27942 33.1924 3.2539 30.8343C3.21562 27.3354 3.20796 23.8339 3.2539 20.335C3.29473 17.2904 4.58864 14.894 7.20708 13.2785C12.689 9.89698 18.1479 6.47209 23.6782 3.16969C26.8147 1.29901 30.0635 1.4011 33.1771 3.32537C35.0554 4.48402 36.8495 5.78047 38.7049 6.9774C39.6032 7.55672 40.5449 8.06459 41.4867 8.57501C44.4062 10.1522 45.8584 12.6047 45.8303 15.9097C45.8278 16.221 45.5368 16.637 45.2586 16.8157C43.7963 17.7625 42.2957 18.6506 40.5628 19.7072C41.2212 19.9063 41.6755 20.1997 42.0864 20.1436C45.4577 19.6842 48.2063 20.9705 50.6691 23.2112C51.501 22.5451 52.2845 21.9581 53.0068 21.3074C53.1726 21.1593 53.2186 20.7663 53.1726 20.5137C52.8485 18.7349 52.4861 16.9612 52.1391 15.1849C52.0931 14.9501 52.0676 14.7128 52.0191 14.3912C52.9889 14.1972 53.9102 14.0109 54.9387 13.8042C55.2883 15.4937 55.6278 17.1347 55.9672 18.7757C57.3019 18.2142 57.4372 17.9565 57.2483 16.6039C57.0033 14.8506 56.7813 13.0922 56.5414 11.2547C57.5699 11.1194 58.504 10.9969 59.5197 10.8642C59.7468 12.4338 59.9637 13.9293 60.1883 15.4758C60.908 15.1721 61.1938 14.7306 61.2755 13.9905C61.666 10.484 62.1203 6.98506 62.5694 3.48615C62.7072 2.40151 63.2585 1.93448 64.3635 1.92428C65.7136 1.91151 67.0662 1.91407 68.4162 1.92428C69.4881 1.93193 69.9654 2.31219 70.2384 3.37131C70.5957 4.7673 70.9505 6.16329 71.2695 7.56948C71.3843 8.07735 71.591 8.34021 72.1372 8.45506C73.5459 8.7562 74.9368 9.13391 76.3303 9.48865C77.4328 9.76938 77.8079 10.2415 77.8156 11.3746C77.8258 12.6634 77.8258 13.9548 77.8156 15.2436C77.8054 16.6166 77.2567 17.1449 75.8071 17.1475C71.8769 17.1577 67.9467 17.1704 64.0165 17.1347C63.2381 17.127 62.6638 17.3542 62.1483 18.0407C64.0113 18.7935 65.8335 19.5337 67.7119 20.2916C67.3342 21.241 66.9845 22.1138 66.5941 23.0964C65.489 22.66 64.4222 22.2389 63.3555 21.8152C62.3576 21.4196 61.3189 21.1006 60.3797 20.5979C59.3615 20.0543 58.7413 20.4473 58.0931 21.2844C59.7698 21.9658 61.4082 22.6293 63.1513 23.3363C62.7761 24.2729 62.4188 25.1636 62.0258 26.1436C60.0046 25.3396 58.0344 24.5919 56.0999 23.765C55.4797 23.4996 55.028 23.4843 54.5533 23.9845C54.2803 24.2703 53.9153 24.4668 53.632 24.745C53.2186 25.1508 52.4479 25.6791 52.5193 26.0032C52.7362 26.9985 52.8817 28.0959 54.0353 28.6829C55.9519 29.6552 56.5388 31.3677 56.5133 33.4451C56.4904 35.4433 55.7477 36.9261 54.0072 37.9316C53.7571 38.0745 53.535 38.4523 53.5019 38.7432C53.4279 39.4093 53.4789 40.0907 53.4789 40.767C53.4789 43.1124 52.7567 44.0388 50.4547 44.6053V52.4479C51.94 51.2127 53.5223 50.4904 55.3802 50.6257C57.2432 50.7609 58.7872 51.5649 60.025 53.0195C60.6554 52.6061 61.2321 52.2105 61.8293 51.843C63.5673 50.7763 65.5018 51.3735 66.3567 53.2314C67.7859 56.3373 66.8263 60.0658 64.0267 62.1152C62.891 62.9446 61.6992 63.6975 60.3848 64.5856C61.3291 65.5069 62.2377 66.3618 63.113 67.25C63.9935 68.1406 64.8484 69.0594 65.7978 70.0547C68.6179 66.1755 71.3358 62.4418 74.1176 58.6163C72.8773 57.7843 71.6778 57.0059 70.5064 56.1892C67.5868 54.1552 66.5175 50.5032 67.8854 47.3131C68.7735 45.2433 70.7437 44.636 72.6451 45.8507C73.1835 46.1953 73.7093 46.5526 74.2324 46.8971C77.5859 43.4135 81.8683 44.0873 84.3999 46.9073C84.964 46.5347 85.5356 46.1417 86.1252 45.7742C87.8988 44.6691 89.8538 45.2714 90.7113 47.1778C92.1353 50.3424 91.1272 54.0506 88.2561 56.0999C87.0618 56.9498 85.8291 57.7435 84.5454 58.6086C85.5739 60.025 86.5641 61.3853 87.5492 62.7481C89.4403 65.3563 91.4003 67.9186 93.2072 70.5855C100.062 80.702 93.9345 94.4118 81.8402 96.0911C81.6641 96.1166 81.4982 96.1982 81.3272 96.2518H77.2745C76.1797 95.9864 75.067 95.7772 73.9951 95.4428C71.6523 94.7129 69.6055 93.442 67.7629 91.7602C66.0734 93.4548 64.1747 94.7334 61.9493 95.4581C60.9361 95.7874 59.8821 95.9915 58.8485 96.2518H51.1106C50.9728 96.1982 50.8375 96.114 50.6946 96.0962C48.4309 95.8001 46.3969 94.9426 44.493 93.6972C44.0643 93.4165 43.49 93.2251 42.9822 93.2225C35.7419 93.1919 28.5017 93.2149 21.2614 93.1868C20.3273 93.1842 19.5821 93.3578 18.8548 94.006C17.4001 95.2999 15.56 95.8205 13.7047 96.2569H11.1245C10.951 96.2008 10.7825 96.1268 10.6065 96.0911C6.49249 95.2871 3.73114 92.8933 2.29432 88.9759C2.04421 88.2944 1.91405 87.5671 1.72775 86.8602C1.72775 86.0001 1.72775 85.1401 1.72775 84.28L1.73796 84.2851ZM43.0179 56.7303H13.9599V75.0644C17.4282 75.7254 20.0849 77.4966 21.754 80.582C23.4307 83.6803 23.4103 86.8933 22.0628 90.1345H40.8537C40.7287 89.9048 40.6496 89.7491 40.5603 89.6011C36.8291 83.5067 37.6585 76.463 42.7117 71.3996C44.7712 69.335 46.8384 67.2755 48.8979 65.2108C49.1046 65.0041 49.296 64.777 49.5436 64.5039C46.5398 62.5439 43.2425 60.9412 43.0179 56.7277V56.7303ZM79.2805 93.2225C81.2507 93.248 83.1367 92.9035 84.9359 92.12C92.8295 88.6849 95.4811 79.0763 90.4714 71.9458C88.3021 68.8603 86.0486 65.8336 83.8206 62.7864C83.0831 61.7757 82.5037 60.4027 81.4982 59.9C80.4876 59.3946 79.0355 59.7239 77.7824 59.7826C77.3996 59.8004 76.8968 60.0378 76.6748 60.3389C73.8471 64.1594 71.0092 67.9773 68.2759 71.8667C65.1496 76.3124 64.68 81.1001 67.1785 85.9389C69.677 90.7802 73.8675 93.0949 79.283 93.2225H79.2805ZM65.6957 89.5118C65.6421 89.351 65.637 89.2872 65.6038 89.2387C62.2223 84.1499 61.6864 78.7879 64.0062 73.13C64.1032 72.8926 63.968 72.4281 63.7766 72.224C62.6383 71.0219 61.4593 69.8531 60.2751 68.6944C59.2951 67.7349 58.435 66.4333 57.2509 65.9612C56.0565 65.4865 54.5304 65.8489 53.1497 65.8438C53.0884 65.8438 53.0195 65.8259 52.9659 65.8463C52.7235 65.9459 52.4249 65.9969 52.2514 66.1679C49.5538 68.8501 46.7567 71.4481 44.2097 74.2682C38.317 80.7913 41.8235 91.3365 50.4598 92.9163C53.017 93.3833 55.7196 93.2225 58.3457 93.1153C61.2576 92.9954 63.6694 91.6198 65.6932 89.5092L65.6957 89.5118ZM13.9548 44.5619V53.6346C14.2687 53.6499 14.5367 53.6729 14.8072 53.6729C24.0789 53.6729 33.3506 53.6678 42.6223 53.6882C43.2323 53.6882 43.5105 53.4968 43.7988 52.9557C44.0694 52.4453 44.5543 51.9298 45.0698 51.7001C45.7563 51.3964 46.5653 51.3658 47.3462 51.2152V44.5594H13.9548V44.5619ZM14.9986 35.3081C15.2666 35.377 15.3227 35.4051 15.3788 35.4051C27.4757 35.4076 39.57 35.4102 51.6669 35.4102C52.5168 35.4102 53.165 35.1014 53.4151 34.2209C53.7673 32.9831 53.4789 31.8143 52.5908 31.36C51.1157 30.6046 50.2122 29.4179 49.8677 27.8458C49.5283 26.2992 48.7244 25.1789 47.3054 24.4821C47.0604 24.3622 46.8231 24.204 46.6163 24.0253C45.8482 23.3694 44.9677 23.1321 43.9698 23.2291C41.9511 23.4256 40.0626 23.03 38.3476 21.9173C37.8244 21.5779 37.4008 21.6085 36.8444 21.9479C29.8619 26.2278 22.8616 30.4744 15.8637 34.7313C15.6111 34.8844 15.3712 35.0554 14.996 35.3055L14.9986 35.3081ZM36.9491 9.46823C34.9865 8.16412 33.2383 6.9136 31.4008 5.80855C29.3745 4.58865 27.2205 4.57589 25.1967 5.79834C19.7123 9.11605 14.2712 12.5027 8.81489 15.8663C7.13817 16.8999 6.30364 18.4056 6.31385 20.386C6.32661 22.688 6.31385 24.99 6.31895 27.292C6.31895 27.514 6.36489 27.7361 6.40062 28.0678C16.6038 21.8561 26.7024 15.7081 36.9491 9.46823ZM6.3853 31.6433C6.65838 33.024 7.33213 33.9989 8.35807 34.7747C8.89911 35.1856 9.32786 35.183 9.91228 34.8206C13.1407 32.8147 16.3971 30.847 19.6434 28.8717C27.1082 24.3265 34.568 19.7787 42.0481 15.2564C42.6479 14.894 42.8801 14.506 42.4922 13.9446C41.946 13.1509 41.3463 12.3904 40.7083 11.6681C40.2821 11.1858 39.8048 11.2802 39.2434 11.6247C31.24 16.5222 23.2214 21.3941 15.2053 26.2712C12.2755 28.0551 9.34572 29.8415 6.38275 31.6458L6.3853 31.6433ZM10.9306 41.4458H50.3475V38.5007H10.928V41.4458H10.9306ZM12.421 93.2021C16.6319 93.1868 20.0058 89.7772 19.9879 85.5561C19.97 81.3579 16.5451 77.9917 12.3163 78.0146C8.16155 78.0351 4.7928 81.4421 4.80046 85.6148C4.80812 89.8359 8.20749 93.22 12.4235 93.2021H12.421ZM58.9633 57.3989C58.0726 55.5691 57.3938 53.6831 54.9948 53.6754C52.5576 53.6703 51.9094 55.6303 51.0136 57.3836C49.4798 56.3679 48.0047 55.393 46.5321 54.4206C45.4475 56.0233 46.1391 58.6086 47.8362 59.7341C49.2169 60.6503 50.4853 61.9952 51.9987 62.3806C53.8694 62.8553 56.0412 62.9165 57.8966 62.4393C59.4916 62.0284 60.8595 60.6503 62.2708 59.6192C63.9603 58.3866 64.4324 56.2607 63.4703 54.4053C61.9901 55.3879 60.5175 56.3653 58.9608 57.3989H58.9633ZM87.8172 48.3186C86.3395 49.2986 84.8695 50.2761 83.3128 51.3071C82.4221 49.5283 81.756 47.5811 79.3264 47.5887C76.8892 47.5964 76.2511 49.5615 75.3605 51.2969C73.8267 50.2812 72.3567 49.3063 70.879 48.3288C69.8505 50.1638 70.4018 52.3764 72.201 53.6499C73.5025 54.5712 74.7658 55.6074 76.1976 56.2607C78.132 57.1412 80.337 57.0263 82.2536 56.373C83.8512 55.8294 85.2141 54.5559 86.6279 53.5274C88.3072 52.3075 88.787 50.1433 87.8197 48.3186H87.8172ZM74.7122 14.0441C74.7327 13.7966 74.7276 13.6128 74.7633 13.4367C74.9598 12.4797 74.531 12.0765 73.6046 11.9157C72.4613 11.7166 71.346 11.367 70.2104 11.1118C69.3375 10.9178 68.8271 10.4202 68.6306 9.53714C68.3295 8.19475 67.9773 6.86256 67.6506 5.52271C67.4209 4.57844 66.6604 5.08886 66.1321 4.97657C65.6294 4.86938 65.4226 5.14245 65.3716 5.6248C65.267 6.59969 65.1317 7.56948 65.0143 8.54438C64.7923 10.3589 64.5728 12.1734 64.3457 14.0416H74.7148L74.7122 14.0441Z" fill="#EF8119"/>
<path d="M69.4346 75.8964C70.4375 76.3073 71.3052 76.6646 72.1576 77.0142C71.2312 83.4251 73.1019 86.1099 79.2601 87.2149V90.1779C75.7943 90.1396 72.9462 88.8457 70.851 86.092C68.5158 83.0244 68.1509 79.6378 69.4371 75.8964H69.4346Z" fill="#EF8119"/>
<path d="M71.54 72.5226C72.3133 71.4635 73.0126 70.5039 73.7527 69.4856C74.5974 70.1006 75.3835 70.6723 76.2052 71.2721C75.4677 72.2878 74.7684 73.2525 73.9977 74.309C73.1734 73.7119 72.3924 73.1427 71.5375 72.5226H71.54Z" fill="#EF8119"/>
<path d="M48.5381 85.1809C47.7495 85.824 47.0145 86.4238 46.2821 87.0184C44.0873 84.8772 43.6942 80.6229 45.4807 77.6727C46.0141 76.7922 46.7593 76.0317 47.4662 75.2737C48.3671 74.3116 49.3267 73.4056 50.2174 72.5226C50.9013 73.2295 51.57 73.9237 52.3228 74.7072C51.4398 75.5876 50.4037 76.6187 49.3701 77.6523C47.0298 79.9925 46.7567 82.3149 48.5381 85.1835V85.1809Z" fill="#EF8119"/>
<path d="M53.4432 90.2825C52.236 90.1268 51.1335 89.9839 49.8881 89.8231C50.2735 88.7334 50.5951 87.8248 50.9115 86.924C51.7869 87.0235 52.5933 87.1179 53.4406 87.2149V90.2825H53.4432Z" fill="#EF8119"/>
<path d="M36.6658 29.28H33.7488V26.3094H36.6658V29.28Z" fill="#EF8119"/>
<path d="M42.7806 26.3273V29.2699H39.8508V26.3273H42.7806Z" fill="#EF8119"/>
<path d="M30.6275 29.4026V32.2737H27.6569V29.4026H30.6275Z" fill="#EF8119"/>
<path d="M48.8316 33.8126H45.9146V30.8981H48.8316V33.8126Z" fill="#EF8119"/>
<path d="M12.3827 90.1753C9.87914 90.1753 7.82216 88.1132 7.82471 85.6071C7.82471 83.106 9.8919 81.0414 12.3904 81.0465C14.8991 81.0516 16.9561 83.1112 16.951 85.6147C16.9484 88.1183 14.8863 90.1753 12.3827 90.1728V90.1753ZM12.347 87.1077C13.202 87.1281 13.8885 86.4748 13.8987 85.6275C13.9089 84.7879 13.23 84.1014 12.3904 84.1014C11.5788 84.1014 10.9306 84.7241 10.8974 85.5407C10.8617 86.3982 11.4997 87.0899 12.3496 87.1077H12.347Z" fill="#EF8119"/>
</svg>
