<svg width="98" height="94" viewBox="0 0 98 94" fill="none" xmlns="http://www.w3.org/2000/svg">
<g clip-path="url(#clip0_845_4464)">
<path d="M17.1934 98C15.3125 97.2727 14.6362 95.9022 14.6591 93.8963C14.7331 86.975 14.6821 80.0512 14.6898 73.1299C14.6949 67.8471 17.1551 64.1619 21.9581 62.0437C27.6007 59.5529 33.2536 57.0825 38.9065 54.6222C39.7308 54.2624 40.4046 53.8081 40.67 52.8154C39.6236 52.1033 38.6079 51.3377 37.5284 50.6869C33.3991 48.1986 31.2068 44.5236 30.7755 39.7564C30.6964 38.8733 30.4106 38.3348 29.4816 37.952C27.6263 37.189 26.3017 35.6679 26.2303 33.6773C26.0465 28.6191 25.6254 23.52 26.5467 18.5026C28.3255 8.75109 36.3901 1.30922 46.1723 0.17099C46.3866 0.145469 46.5934 0.0586979 46.8026 0C48.2037 0 49.6048 0 51.0059 0C52.5831 0.347083 54.196 0.574219 55.7298 1.06167C65.3359 4.11651 71.5272 12.5767 71.711 22.8641C71.7671 26.0517 71.7314 29.2443 71.7186 32.4319C71.7059 35.2188 70.389 37.1328 67.8318 38.2328C67.5562 38.3502 67.2729 38.7126 67.204 39.0086C66.9309 40.1851 66.7931 41.3948 66.5149 42.5713C65.8284 45.4781 64.241 47.8133 61.8369 49.5666C60.321 50.6716 58.754 51.7078 57.1743 52.7975C57.3376 53.7494 58.0088 54.2114 58.828 54.5712C64.4503 57.0289 70.0598 59.512 75.6846 61.9595C80.6535 64.1211 83.1443 67.8778 83.129 73.3214C83.1086 80.1788 83.0805 87.0363 83.1519 93.8937C83.1724 95.8971 82.4935 97.2701 80.6177 98H74.1227C72.4434 97.3365 71.5783 96.1344 71.54 94.2918C71.5145 93.0541 71.3562 91.8189 71.249 90.5836C71.1393 89.3102 71.0219 88.0367 70.8917 86.6152C69.7765 87.4114 68.8884 88.2179 67.8573 88.7461C65.6804 89.8589 64.7693 91.4667 65.1649 93.932C65.4839 95.9149 64.5498 97.2956 62.6587 98H35.1498C33.2664 97.2854 32.4344 95.9226 32.6258 93.9167C32.659 93.5696 32.5773 93.2072 32.6386 92.8678C32.9346 91.2549 32.3068 90.2085 30.8878 89.3995C29.5301 88.6236 28.3128 87.6079 26.9091 86.6101C26.6846 89.2948 26.4191 91.7933 26.2864 94.2995C26.1894 96.1319 25.3779 97.3492 23.6833 98H17.1882H17.1934ZM79.8674 94.7002C79.8674 94.2816 79.8674 93.9652 79.8674 93.6487C79.8674 86.8219 79.8547 79.9976 79.8725 73.1708C79.8827 69.3095 78.1422 66.617 74.6178 65.0679C69.4651 62.8068 64.3201 60.5278 59.1573 58.2896C57.1335 57.4117 55.0637 56.6333 54.1833 54.3211C50.6078 55.9213 47.1216 55.883 43.6151 54.3313C42.8265 56.2045 41.3463 57.1411 39.6185 57.8838C34.1571 60.2317 28.7313 62.6639 23.2801 65.0347C19.7123 66.5864 17.9284 69.2635 17.9386 73.1733C17.9564 80.0002 17.9437 86.8244 17.9437 93.6513C17.9437 93.9907 17.9437 94.3276 17.9437 94.6925H22.9228C22.9789 94.2357 23.0427 93.8273 23.0785 93.4139C23.5327 87.9499 23.9844 82.4833 24.4362 77.0193C24.5382 75.7816 25.1431 75.1206 26.1512 75.1563C27.1899 75.1946 27.7743 75.9577 27.6901 77.2465C27.5854 78.8364 27.468 80.4289 27.2894 82.0112C27.2179 82.6492 27.4502 82.9938 27.9453 83.3383C30.2396 84.9461 32.4956 86.6101 34.7925 88.2128C35.5786 88.7615 35.9205 89.4378 35.8925 90.3871C35.8542 91.8087 35.8823 93.2353 35.8823 94.667H39.1847C38.7585 91.3671 40.4479 89.5067 43.2578 88.3991C44.1969 88.029 45.0442 88.2893 45.4602 89.1111C45.8737 89.9227 45.5878 90.7827 44.7176 91.3059C44.4726 91.4539 44.2097 91.5688 43.9545 91.6989C42.4156 92.4747 42.2216 92.8627 42.4998 94.6925H55.324C55.5818 92.8422 55.3904 92.4594 53.854 91.6913C53.5708 91.5483 53.2747 91.4207 53.0067 91.2523C52.2054 90.7444 51.9527 89.8869 52.3585 89.1034C52.7643 88.3174 53.6065 87.9984 54.4742 88.3761C55.1709 88.6798 55.8702 89.0141 56.5031 89.4327C57.8634 90.3335 58.5881 91.6326 58.6622 93.2761C58.6826 93.7406 58.6647 94.2076 58.6647 94.667H61.9339C61.9339 93.2174 61.9722 91.8469 61.9212 90.479C61.8829 89.4505 62.2529 88.741 63.1053 88.1515C65.4099 86.559 67.6863 84.9206 69.9347 83.249C70.2435 83.0193 70.5038 82.4859 70.4885 82.1056C70.4247 80.4493 70.2308 78.8007 70.1261 77.1469C70.0496 75.9424 70.662 75.1946 71.6701 75.1589C72.6476 75.1231 73.2779 75.7765 73.3749 76.93C73.7654 81.6641 74.1508 86.3982 74.5463 91.1323C74.6459 92.3242 74.7709 93.5134 74.8832 94.7053H79.8725L79.8674 94.7002ZM48.8468 52.2641C50.6792 52.2463 52.3457 51.769 53.8234 50.8758C56.0514 49.5257 58.2462 48.1042 60.344 46.5628C62.0386 45.3173 63.0237 43.5156 63.4243 41.4356C63.7076 39.9656 63.9373 38.4854 64.1874 37.0103C64.3865 35.8364 64.805 35.4204 65.9764 35.2545C67.546 35.0324 68.4622 34.0499 68.4392 32.6156C68.4162 31.2298 67.4694 30.2473 65.9739 30.061C64.7642 29.9104 64.2818 29.4 64.2257 28.2158C64.1185 25.947 63.0288 24.6991 60.7778 24.3622C56.8961 23.7829 53.2543 22.5119 49.8549 20.5647C49.1531 20.164 48.6299 20.1819 47.9383 20.5774C44.5976 22.4966 41.0119 23.7446 37.2017 24.3443C34.7262 24.7348 33.764 25.8067 33.5879 28.3332C33.5165 29.3439 32.9933 29.913 32.0031 30.0482C30.3034 30.283 29.3821 31.189 29.3693 32.6386C29.3566 34.0882 30.2473 35.0095 31.9546 35.2596C32.8989 35.3974 33.445 35.9078 33.6007 36.8444C33.8023 38.0694 34.0218 39.2944 34.2004 40.522C34.5603 43.023 35.5913 45.1744 37.633 46.7031C39.2867 47.9434 41.0068 49.0995 42.7576 50.1995C44.6334 51.3785 46.6444 52.2386 48.8494 52.2641H48.8468ZM29.4612 27.2537C30.0686 27.1193 30.4429 26.7654 30.5841 26.192C31.2017 23.668 33.3506 21.6161 35.8542 21.2589C39.7078 20.7102 43.3343 19.5107 46.698 17.5481C48.1859 16.6779 49.6227 16.6779 51.1131 17.5481C54.4487 19.4903 58.0497 20.6515 61.8599 21.2563C64.6774 21.7029 66.4664 23.4562 67.1938 26.1997C67.3826 26.9143 67.6736 27.2333 68.5438 27.2511C68.4392 24.8088 68.5336 22.369 68.1993 19.9879C66.178 5.62734 49.5053 -1.56187 37.707 6.82682C30.6403 11.8519 28.6573 19.013 29.4587 27.2537H29.4612Z" fill="#EF8119"/>
<path d="M59.484 78.41C57.6414 78.41 55.7962 78.4432 53.9536 78.3973C52.5653 78.3641 51.7103 77.1391 52.3815 76.0851C52.6699 75.6334 53.3717 75.1944 53.8949 75.1842C57.6133 75.1076 61.3342 75.128 65.0526 75.151C66.1347 75.1561 66.8212 75.812 66.8391 76.7359C66.8595 77.6827 66.1398 78.382 65.0195 78.3998C63.1768 78.4304 61.3317 78.4075 59.4891 78.4075L59.484 78.41Z" fill="#EF8119"/>
<path d="M38.3144 78.4098C36.5025 78.4098 34.6905 78.4124 32.8785 78.4098C31.9572 78.4098 31.2605 78.0576 31.0155 77.1032C30.7526 76.0772 31.5438 75.1661 32.7662 75.1508C35.183 75.1202 37.5973 75.1381 40.0141 75.1381C41.2851 75.1381 42.5585 75.1202 43.8295 75.1483C44.9269 75.1738 45.6057 75.7837 45.6389 76.7101C45.6721 77.6621 44.9601 78.3792 43.8448 78.3996C42.0022 78.4328 40.157 78.4098 38.3144 78.4098Z" fill="#EF8119"/>
<path d="M41.6092 81.6847C42.9133 81.6847 44.22 81.6668 45.5241 81.6898C46.5704 81.7102 47.2033 82.2998 47.2442 83.2211C47.285 84.1781 46.6393 84.9131 45.5853 84.9284C42.9107 84.9667 40.2362 84.9667 37.5616 84.9284C36.5025 84.9131 35.8593 84.1909 35.89 83.2313C35.9206 82.3074 36.551 81.7077 37.5948 81.6873C38.932 81.6617 40.2693 81.6796 41.6066 81.6796L41.6092 81.6847Z" fill="#EF8119"/>
<path d="M56.1764 84.9485C54.9387 84.9485 53.7009 84.9638 52.4657 84.9434C51.2586 84.9256 50.5567 84.2952 50.5644 83.282C50.572 82.2765 51.2637 81.6895 52.5014 81.6844C55.0076 81.6742 57.5137 81.6717 60.0199 81.6844C61.2551 81.6895 61.9314 82.2893 61.9212 83.3152C61.911 84.3207 61.2091 84.9256 59.9841 84.9434C58.7157 84.9587 57.4474 84.946 56.1764 84.946V84.9485Z" fill="#EF8119"/>
<path d="M48.9132 40.8128C51.0136 40.8026 52.9353 41.3513 54.5993 42.6733C55.4568 43.3521 55.638 44.2352 55.0969 45.0059C54.5329 45.8072 53.6091 45.9093 52.6673 45.2764C50.276 43.6686 47.5351 43.6635 45.1719 45.2611C44.1995 45.9195 43.3293 45.8481 42.7295 45.062C42.1221 44.2658 42.3289 43.3521 43.2987 42.6044C44.955 41.3309 46.846 40.7949 48.9132 40.8128Z" fill="#EF8119"/>
</g>
<defs>
<clipPath id="clip0_845_4464">
<rect width="98" height="94" fill="white"/>
</clipPath>
</defs>
</svg>
