<svg width="50" height="50" viewBox="0 0 50 50" fill="none" xmlns="http://www.w3.org/2000/svg">
<path d="M25 50C38.8071 50 50 38.8071 50 25C50 11.1929 38.8071 0 25 0C11.1929 0 0 11.1929 0 25C0 38.8071 11.1929 50 25 50Z" fill="white"/>
<path d="M24.1464 17.9576L24.9999 19.3555L25.8534 17.9576C27.598 15.1003 30.9834 14.0262 33.9949 14.6401C36.9683 15.2463 39.3845 17.4483 39.3845 21.0393C39.3845 23.4896 37.8373 26.1274 35.0383 29.2559C32.9691 31.5686 30.3416 34.0195 27.4167 36.7475C26.6309 37.4804 25.8236 38.2334 25 39.0091C24.1746 38.2317 23.3657 37.4772 22.5783 36.7427C19.6558 34.0166 17.03 31.5673 14.9619 29.2559C12.1628 26.1273 10.6152 23.4896 10.6152 21.0393C10.6152 17.4603 13.0267 15.2464 15.9968 14.6317C19.0017 14.0098 22.3867 15.0751 24.1464 17.9576Z" stroke="#FF5050" stroke-width="2"/>
</svg>
