<svg width="20" height="20" viewBox="0 0 20 20" fill="none" xmlns="http://www.w3.org/2000/svg">
<path d="M9.322 0.445263C9.448 0.172632 9.712 0 10 0C10.289 0 10.552 0.172632 10.678 0.445263C11.652 2.54842 13.328 6.17158 13.328 6.17158C13.328 6.17158 17.139 6.72316 19.35 7.04421C19.753 7.10211 20 7.46105 20 7.83053C20 8.03053 19.928 8.23368 19.769 8.39474C18.159 10.0137 15.387 12.8063 15.387 12.8063C15.387 12.8063 16.064 16.7716 16.456 19.0716C16.539 19.5579 16.181 20 15.714 20C15.592 20 15.47 19.9695 15.359 19.9063C13.391 18.8032 10 16.9053 10 16.9053C10 16.9053 6.609 18.8032 4.641 19.9063C4.53 19.9695 4.407 20 4.285 20C3.82 20 3.46 19.5568 3.544 19.0716C3.937 16.7716 4.614 12.8063 4.614 12.8063C4.614 12.8063 1.841 10.0137 0.232 8.39474C0.0720001 8.23368 0 8.03053 0 7.83158C0 7.46105 0.249 7.10105 0.651 7.04421C2.862 6.72316 6.672 6.17158 6.672 6.17158C6.672 6.17158 8.349 2.54842 9.322 0.445263Z" fill="#FFD135"/>
</svg>
