<svg width="30" height="30" viewBox="0 0 30 30" fill="none" xmlns="http://www.w3.org/2000/svg">
<g clip-path="url(#clip0_231_212)">
<rect width="30" height="30" rx="7" fill="#EF8119"/>
<path fill-rule="evenodd" clip-rule="evenodd" d="M23.75 30H6.25C2.79875 30 0 27.2013 0 23.75V6.25C0 2.79875 2.79875 0 6.25 0H23.75C27.2025 0 30 2.79875 30 6.25V23.75C30 27.2013 27.2025 30 23.75 30ZM25 14.365C25 9.89 20.5138 6.25 15 6.25C9.48625 6.25 5 9.89 5 14.365C5 18.3762 8.5575 21.7362 13.3638 22.3713C13.6888 22.4412 14.1325 22.5863 14.2438 22.865C14.345 23.1175 14.31 23.5138 14.2762 23.7687L14.1337 24.625C14.09 24.8775 13.9325 25.6138 15 25.1637C16.0675 24.7138 20.7587 21.7725 22.8575 19.3575H22.8563C24.3062 17.7687 25 16.1562 25 14.365ZM11.2775 16.9487H8.475L8.34 16.895V16.8938L8.33875 16.8925L8.335 16.8888L8.28 16.755V12.3975C8.28 12.29 8.3675 12.2025 8.475 12.2025H9.1775C9.28375 12.2025 9.37125 12.29 9.37125 12.3975V15.8575H11.2775C11.385 15.8575 11.4713 15.945 11.4713 16.0525V16.7537C11.4713 16.8612 11.385 16.9487 11.2775 16.9487ZM21.67 16.9487H18.8675L18.7325 16.895L18.7275 16.8888L18.6725 16.755V12.3975L18.7275 12.2638L18.7325 12.2575L18.8675 12.2025H21.67C21.7775 12.2025 21.8637 12.29 21.8637 12.3975V13.0988C21.8637 13.2063 21.7775 13.2938 21.67 13.2938H19.7638V14.03H21.67C21.7775 14.03 21.8637 14.1175 21.8637 14.225V14.9263C21.8637 15.0337 21.7775 15.1213 21.67 15.1213H19.7638V15.8575H21.67C21.7775 15.8575 21.8637 15.945 21.8637 16.0525V16.7537C21.8637 16.8612 21.7775 16.9487 21.67 16.9487ZM12.9688 16.9487H12.2662C12.1587 16.9487 12.0712 16.8625 12.0712 16.755V12.3975C12.0712 12.29 12.1587 12.2025 12.2662 12.2025H12.9688C13.0763 12.2025 13.1625 12.29 13.1625 12.3975V16.755C13.1625 16.8612 13.0763 16.9487 12.9688 16.9487ZM14.7413 16.9487H14.04C13.9325 16.9487 13.845 16.8625 13.845 16.755V12.3975C13.845 12.29 13.9325 12.2025 14.04 12.2025H14.7413L14.7575 12.2037L14.7762 12.2063L14.7875 12.2087L14.8063 12.2137L14.8125 12.2162L14.83 12.2238L14.8462 12.2337L14.8563 12.24L14.8713 12.2525L14.875 12.2563L14.8875 12.27L14.9038 12.2888L16.9 14.9862V12.3975C16.9 12.29 16.9875 12.2025 17.095 12.2025H17.7963C17.9038 12.2025 17.9912 12.29 17.9912 12.3975V16.755C17.9912 16.8612 17.9038 16.9487 17.7963 16.9487H17.095L17.045 16.9425L17.0425 16.9412L17.0225 16.935L17.0138 16.9312L16.9988 16.9237L16.9862 16.9163L16.985 16.915L16.935 16.8662L14.9363 14.1663V16.755C14.9363 16.8612 14.8488 16.9487 14.7413 16.9487Z" fill="#F4D775"/>
</g>
<defs>
<clipPath id="clip0_231_212">
<rect width="30" height="30" rx="6" fill="white"/>
</clipPath>
</defs>
</svg>
