<svg width="22" height="22" viewBox="0 0 22 22" fill="none" xmlns="http://www.w3.org/2000/svg">
<path d="M1.5 7C1.5 6.72386 1.72386 6.5 2 6.5H19C19.2761 6.5 19.5 6.72386 19.5 7V19C19.5 19.2761 19.2761 19.5 19 19.5H2C1.72386 19.5 1.5 19.2761 1.5 19V7Z" fill="#EF8119" stroke="#EF8119" stroke-width="3"/>
<rect x="2" y="7" width="17" height="12" rx="1" fill="white"/>
<line x1="5" y1="11" x2="6" y2="11" stroke="#EF8119" stroke-width="2" stroke-linecap="round"/>
<line x1="5" y1="15" x2="6" y2="15" stroke="#EF8119" stroke-width="2" stroke-linecap="round"/>
<line x1="10" y1="11" x2="11" y2="11" stroke="#EF8119" stroke-width="2" stroke-linecap="round"/>
<line x1="10" y1="15" x2="11" y2="15" stroke="#EF8119" stroke-width="2" stroke-linecap="round"/>
<line x1="15" y1="11" x2="16" y2="11" stroke="#EF8119" stroke-width="2" stroke-linecap="round"/>
<line x1="15" y1="15" x2="16" y2="15" stroke="#EF8119" stroke-width="2" stroke-linecap="round"/>
<line x1="5" y1="1" x2="5" y2="5" stroke="#EF8119" stroke-width="2" stroke-linecap="round"/>
<line x1="16" y1="1" x2="16" y2="5" stroke="#EF8119" stroke-width="2" stroke-linecap="round"/>
<path d="M0.5 5C0.5 4.17157 1.17157 3.5 2 3.5H19C19.8284 3.5 20.5 4.17157 20.5 5V6.5H0.5V5Z" fill="#EF8119" stroke="#EF8119"/>
</svg>
