<svg width="22" height="22" viewBox="0 0 22 22" fill="none" xmlns="http://www.w3.org/2000/svg">
<g clip-path="url(#clip0_1161_4583)">
<circle cx="11" cy="11" r="11" fill="#EF8119"/>
<path d="M8 6.67811C8.3668 5.7931 9.74476 4.65827 12.1048 5.09766C13.0786 5.27897 15.8327 7.04556 12.1048 10.0311C11.2676 10.7016 10.9044 11.7388 10.9044 13.3521" stroke="white" stroke-width="2" stroke-linecap="round" stroke-linejoin="round"/>
<mask id="path-3-inside-1_1161_4583" fill="white">
<ellipse cx="11.0501" cy="17.1242" rx="1.44951" ry="1.46663"/>
</mask>
<ellipse cx="11.0501" cy="17.1242" rx="1.44951" ry="1.46663" fill="white"/>
<path d="M10.4996 17.1242C10.4996 16.8519 10.724 16.5909 11.0501 16.5909V20.5909C12.9773 20.5909 14.4996 19.0166 14.4996 17.1242H10.4996ZM11.0501 16.5909C11.3762 16.5909 11.6006 16.8519 11.6006 17.1242H7.60059C7.60059 19.0166 9.12291 20.5909 11.0501 20.5909V16.5909ZM11.6006 17.1242C11.6006 17.3966 11.3762 17.6576 11.0501 17.6576V13.6576C9.12291 13.6576 7.60059 15.2319 7.60059 17.1242H11.6006ZM11.0501 17.6576C10.724 17.6576 10.4996 17.3966 10.4996 17.1242H14.4996C14.4996 15.2319 12.9773 13.6576 11.0501 13.6576V17.6576Z" fill="white" mask="url(#path-3-inside-1_1161_4583)"/>
</g>
<defs>
<clipPath id="clip0_1161_4583">
<rect width="22" height="22" fill="white"/>
</clipPath>
</defs>
</svg>
