<svg width="26" height="26" viewBox="0 0 26 26" fill="none" xmlns="http://www.w3.org/2000/svg">
<g clip-path="url(#clip0_185_2216)">
<path fill-rule="evenodd" clip-rule="evenodd" d="M1.08325 21.6667V18.4752C3.24234 17.7645 3.87284 16.1373 5.05692 11.8918C6.02867 8.40558 7.1055 4.54242 10.336 3.20017C10.3068 3.04092 10.2916 2.87625 10.2916 2.70833C10.2916 1.21333 11.5049 0 12.9999 0C14.4949 0 15.7083 1.21333 15.7083 2.70833C15.7083 2.87733 15.6931 3.04308 15.6628 3.2045C18.8987 4.55217 19.9787 8.41858 20.9537 11.9069C22.1487 16.1861 22.7922 17.7818 24.9166 18.4741V21.6667H17.3333C17.3333 24.0587 15.3919 26 12.9999 26C10.6079 26 8.66658 24.0587 8.66658 21.6667H1.08325V21.6667ZM16.2499 21.6667H9.74992C9.74992 23.4607 11.2059 24.9167 12.9999 24.9167C14.7939 24.9167 16.2499 23.4607 16.2499 21.6667ZM2.16659 20.5833H23.8333V19.2389C21.5994 18.2444 20.7783 15.3032 19.9105 12.1994C18.7557 8.06758 17.5629 3.79492 12.9999 3.79167C8.43908 3.79167 7.24958 8.05675 6.10017 12.1821C5.2335 15.2934 4.41125 18.2412 2.16659 19.2389V20.5833V20.5833ZM14.6163 2.87625L14.6249 2.70833C14.6249 1.81133 13.8969 1.08333 12.9999 1.08333C12.1029 1.08333 11.3749 1.81133 11.3749 2.70833L11.3836 2.873C11.8765 2.76575 12.4117 2.70833 12.9945 2.70833C13.5817 2.70833 14.1201 2.76683 14.6163 2.87625V2.87625Z" fill="#8F6941"/>
</g>
<defs>
<clipPath id="clip0_185_2216">
<rect width="26" height="26" fill="white"/>
</clipPath>
</defs>
</svg>
