<svg width="24" height="22" viewBox="0 0 24 22" fill="none" xmlns="http://www.w3.org/2000/svg">
<path d="M3.00348 8.5V18.5C3.00348 18.7761 3.22734 19 3.50348 19H9.70833M21.0035 8.5V18.5C21.0035 18.7761 20.7796 19 20.5035 19H14.2917M9.70833 19V13.5C9.70833 13.2239 9.93219 13 10.2083 13H13.7917C14.0678 13 14.2917 13.2239 14.2917 13.5V19M9.70833 19H14.2917M1.2114 7.44475C2.99989 9.43107 4.85339 8.23301 5.62653 7.55933C5.84159 7.37194 6.17309 7.3614 6.39633 7.53896C8.53486 9.23999 10.51 8.29852 11.68 7.4413C11.8704 7.30182 12.1311 7.30309 12.3222 7.4416C14.6486 9.12763 16.5299 8.3598 17.6039 7.53267C17.8292 7.35911 18.1538 7.37678 18.3632 7.56924C20.1907 9.24865 22.3993 8.35684 22.9206 7.38356C22.9828 7.26739 22.9654 7.1291 22.9037 7.01263L20.3909 2.26606C20.3042 2.10237 20.1342 2 19.949 2H4.05104C3.86584 2 3.6958 2.10237 3.60915 2.26606L1.15295 6.90555C1.06003 7.08106 1.07852 7.29718 1.2114 7.44475Z" stroke="#EF8119" stroke-width="2" stroke-linecap="round"/>
</svg>
