<svg width="122" height="121" viewBox="0 0 122 121" fill="none" xmlns="http://www.w3.org/2000/svg">
<path d="M120.122 60.5C120.122 92.8614 93.6667 119.122 61 119.122C28.3333 119.122 1.87823 92.8614 1.87823 60.5C1.87823 28.1386 28.3333 1.87823 61 1.87823C93.6667 1.87823 120.122 28.1386 120.122 60.5Z" fill="#EF8119" stroke="#EF8119" stroke-width="3.75646"/>
<path d="M79.8651 35.6712C75.865 33.9591 72.4605 34.464 72.4605 34.464C71.7899 34.5469 68.4131 35.1623 66.8548 35.4582C65.2729 35.758 62.5036 36.2274 61.7738 36.3734C61.7304 36.3813 61.7068 36.3852 61.6949 36.3891C59.7698 36.7757 59.1781 36.0538 54.673 35.2254C53.2529 34.965 51.1502 34.6376 48.5269 34.464C48.5269 34.464 44.6214 34.1642 40.2031 36.1998C37.5995 37.399 19.9343 47.8688 21.0507 62.9777C21.7923 72.9741 30.2581 80.4063 36.8027 86.1303C41.0908 89.8819 44.5978 91.4756 48.661 96.4028C49.3514 97.2391 50.74 98.9985 53.1937 100.407C55.8723 101.941 58.5666 102.34 60.4838 102.427C60.4838 102.427 60.4878 102.427 60.4917 102.427C60.4957 102.427 60.4957 102.427 60.4996 102.427C62.259 102.399 64.7877 102.115 67.3598 100.766C70.0147 99.3733 71.5098 97.4798 72.2909 96.533C76.3384 91.6295 78.8276 90.8681 83.7153 86.2053C92.9109 77.4358 99.2345 71.408 99.9367 62.9777C101.231 47.4151 82.2833 36.7047 79.8651 35.6712Z" fill="#EF8119"/>
<path d="M82.0742 37.9515C81.5377 37.7621 79.6954 37.0757 79.869 37.4584C81.1906 40.3658 81.301 42.2435 81.23 43.143C81.159 44.0424 81.0209 45.143 80.3227 46.4527C79.9045 47.2299 78.583 47.9834 77.6401 47.293C74.2002 44.7683 68.3144 41.2889 58.5311 40.2514C49.9628 39.344 44.6332 40.4723 41.2288 41.6242C36.7237 43.1469 33.982 45.2653 32.1358 47.3522C30.9681 48.6698 29.3192 50.583 28.8931 53.5299C28.2028 58.3111 31.2995 61.9167 31.7413 62.4138C33.9584 64.9109 37.6902 67.191 40.3451 67.7946C51.1344 70.2562 55.5251 69.9801 66.2946 70.8953C69.9003 71.203 73.644 71.633 75.1351 74.2484C75.3482 74.6193 76.3147 76.3353 75.5375 78.2604C75.5375 78.2604 74.0621 84.4657 56.6809 84.7971C56.6652 84.7971 56.6415 84.7971 56.6178 84.7971C56.0419 84.7774 55.5014 84.5328 55.0872 84.1225C54.4955 83.5347 53.5881 82.6235 52.6769 81.6727C52.2824 81.2625 50.9135 79.9212 48.8622 79.3768C48.8622 79.3768 45.4696 78.4734 42.0848 80.5997C41.6351 80.8838 40.6173 81.5702 39.7376 82.8799C39.4141 83.3612 39.1696 83.8385 38.9841 84.2843C38.5463 85.3375 38.8619 86.5486 39.7455 87.2705C40.0374 87.5072 40.3728 87.6769 40.7357 87.7715C42.5148 88.2252 45.9311 88.955 46.01 88.959C48.6018 89.168 68.2789 90.604 76.6855 86.5013C76.7131 86.4855 76.7368 86.4776 76.7368 86.4776C77.6835 85.9529 78.9932 85.1561 80.4371 84.0121C81.7902 82.943 83.948 81.2388 85.3761 78.931C87.3367 75.7672 88.532 71.8539 87.0014 67.8498C85.2498 63.2698 81.2576 61.5853 78.0859 60.177C69.5176 56.3702 56.2509 57.8377 48.4006 55.5023C46.799 55.025 43.9784 53.8573 43.1421 52.0111C42.6884 51.0051 43.0789 49.9006 43.1736 49.6402C44.5425 45.8137 53.7499 44.934 62.405 46.149C68.0935 46.9498 75.5849 50.6028 78.3305 53.593C78.6066 53.8928 79.51 54.4688 80.6422 54.4569C81.6166 54.4451 84.9737 51.9361 85.3524 51.585C88.1375 49.0051 89.1592 47.2417 89.5182 44.3146C89.8259 41.8135 87.4235 40.9062 86.8554 40.5393C85.8653 39.8963 82.6581 38.1645 82.0742 37.9554V37.9515Z" fill="#F6D578"/>
<path d="M79.8651 35.6712C75.865 33.9591 72.4605 34.464 72.4605 34.464C71.7899 34.5469 68.4131 35.1623 66.8548 35.4582C65.2729 35.758 62.5036 36.2274 61.7738 36.3734C61.7304 36.3813 61.7068 36.3852 61.6949 36.3891C59.7698 36.7757 59.1781 36.0538 54.673 35.2254C53.2529 34.965 51.1502 34.6376 48.5269 34.464C48.5269 34.464 44.6214 34.1642 40.2031 36.1998C37.5995 37.399 19.9343 47.8688 21.0507 62.9777C21.7923 72.9741 30.2581 80.4063 36.8027 86.1303C41.0908 89.8819 44.5978 91.4756 48.661 96.4028C49.3514 97.2391 50.74 98.9985 53.1937 100.407C55.8723 101.941 58.5666 102.34 60.4838 102.427C60.4838 102.427 60.4878 102.427 60.4917 102.427C60.4957 102.427 60.4957 102.427 60.4996 102.427C62.259 102.399 64.7877 102.115 67.3598 100.766C70.0147 99.3733 71.5098 97.4798 72.2909 96.533C76.3384 91.6295 78.8276 90.8681 83.7153 86.2053C92.9109 77.4358 99.2345 71.408 99.9367 62.9777C101.231 47.4151 82.2833 36.7047 79.8651 35.6712V35.6712Z" stroke="#EFCF79" stroke-width="4.33938" stroke-miterlimit="10"/>
<path d="M58.9058 35.6554C55.3436 30.7164 54.3574 25.5171 55.2292 21.6353C55.4698 20.5662 57.1504 19.0159 60.8664 19.0001C63.3991 18.9883 65.7778 19.9429 67.983 21.8641C68.8627 22.6294 64.5589 26.2311 64.263 27.2844C63.6555 29.4383 62.7245 36.0736 63.044 35.8093C63.1111 35.8093 63.1505 35.8172 63.1584 35.8369C63.2137 35.9789 61.4779 37.0796 60.1209 36.6377C59.4778 36.4286 59.0991 35.9316 58.9058 35.6594V35.6554Z" fill="#F6D578"/>
</svg>
