<svg width="121" height="121" viewBox="0 0 121 121" fill="none" xmlns="http://www.w3.org/2000/svg">
<circle cx="60" cy="60" r="60" fill="#EF8119"/>
<path d="M73.9539 94.6776H42.0815C39.4771 94.6776 37.365 92.5655 37.365 89.961V31.6384C37.365 29.034 39.4771 26.9219 42.0815 26.9219H70.2015C72.8059 26.9219 74.9181 29.034 74.9181 31.6384V76.036" stroke="white" stroke-width="1.73372" stroke-linecap="round" stroke-linejoin="round"/>
<path d="M54.8518 31.5459H63.3978" stroke="white" stroke-width="1.73372" stroke-linecap="round" stroke-linejoin="round"/>
<path d="M37.365 36.2754H74.9158" stroke="white" stroke-width="1.73372" stroke-miterlimit="10"/>
<path d="M37.365 83.0488H63.3978" stroke="white" stroke-width="1.73372" stroke-linecap="round" stroke-linejoin="round"/>
<path d="M59.1144 76.0362H51.5076C49.5702 76.0362 48.0002 74.4663 48.0002 72.5288C48.0002 70.5914 49.5702 69.0215 51.5076 69.0215H55.5186" stroke="white" stroke-width="1.73372" stroke-linecap="round" stroke-linejoin="round"/>
<path d="M74.9159 76.0359H71.3064L64.6797 66.6913C63.1234 64.4612 60.1356 63.8577 58.003 65.346C55.8705 66.832 55.4054 69.847 56.9617 72.0771L64.2645 82.9009C64.2645 82.9009 63.8357 91.1111 72.9444 94.4937C73.2688 94.6139 73.6091 94.6797 73.9539 94.6797H82.3457C83.3916 94.6797 84.2378 93.8335 84.2378 92.7877V67.4332C84.2378 66.3986 83.9859 65.38 83.5027 64.4658L74.9181 48.2222" stroke="white" stroke-width="1.73372" stroke-linecap="round" stroke-linejoin="round"/>
<path d="M44.763 50.2324H43.5197C43.5197 50.2324 42.6531 52.7121 44.9399 54.198C47.5194 55.8746 50.2077 53.8419 50.2077 53.4879C50.2077 53.134 52.397 56.9794 56.1403 53.429C56.1403 53.429 59.4979 56.6255 62.2815 53.429C62.2815 53.429 63.5248 55.6182 67.0752 54.6132C67.0752 54.6132 70.2128 52.8958 68.8516 50.2347H43.9326" stroke="white" stroke-width="1.73372" stroke-linecap="round" stroke-linejoin="round"/>
<path d="M45.2348 55.3824C45.2348 55.3824 43.1635 57.5126 45.2348 59.5839H66.8369C66.8369 59.5839 69.0852 58.4587 67.0729 54.6133" stroke="white" stroke-width="1.73372" stroke-linecap="round" stroke-linejoin="round"/>
<path d="M45.5909 59.5835H66.6009V61.9202C66.6009 63.2428 65.5278 64.3182 64.203 64.3182H47.9866C46.664 64.3182 45.5886 63.2451 45.5886 61.9202V59.5835H45.5909Z" stroke="white" stroke-width="1.73372" stroke-linecap="round" stroke-linejoin="round"/>
<path d="M66.78 49.8335C66.78 45.6728 62.0771 42.2993 56.2761 42.2993C50.4751 42.2993 45.7722 45.6728 45.7722 49.8335" stroke="white" stroke-width="1.8493" stroke-linecap="round" stroke-linejoin="round"/>
<path d="M49.2049 32.4484C49.7036 32.4484 50.1079 32.0442 50.1079 31.5455C50.1079 31.0468 49.7036 30.6426 49.2049 30.6426C48.7063 30.6426 48.302 31.0468 48.302 31.5455C48.302 32.0442 48.7063 32.4484 49.2049 32.4484Z" fill="white"/>
</svg>
