<svg width="187" height="116" viewBox="0 0 187 116" fill="none" xmlns="http://www.w3.org/2000/svg">
<g clip-path="url(#clip0_855_4283)">
<rect width="187" height="116" fill="#F4D775"/>
<path d="M96.0223 0C98.1663 0.451232 100.365 0.732874 102.439 1.40215C104.799 2.15925 107.043 3.26462 109.518 4.29428C108.756 5.50564 108.164 6.45959 107.547 7.44987C99.6332 2.96481 91.4517 2.1532 83.0608 5.69643C76.3219 8.54313 71.557 13.4673 68.8633 20.254C63.4667 33.8545 70.4212 47.8458 81.0504 53.0728V37.1464C80.5584 37.0889 80.0391 37.0374 79.5319 36.9677C76.7562 36.5831 74.269 34.2028 74.1839 31.4409C74.0442 26.9165 74.1475 22.3829 74.1475 17.7707H77.5427V22.8584H81.1445V17.7555H84.6521V22.8796H88.2114V17.7767H91.6795C91.6977 18.1311 91.7311 18.5248 91.7311 18.9215C91.7311 22.5858 91.7311 26.2502 91.7311 29.9146C91.7311 34.2089 89.5972 36.5932 85.3294 37.0677C85.1441 37.0889 84.9589 37.1282 84.722 37.1676C84.6977 37.4704 84.6582 37.7733 84.6582 38.0761C84.6582 43.3274 84.64 48.5786 84.6582 53.8238C84.6582 54.2115 84.9224 54.8505 85.2079 54.9443C90.9051 56.831 96.5993 56.7341 102.29 54.8262V39.3935C97.5134 37.7672 95.4665 34.972 95.3056 29.9479C95.1871 26.444 95.7429 23.1007 97.6045 20.0571C97.8595 19.6357 98.1415 19.231 98.4488 18.8458C101.671 14.8604 106.724 14.7847 109.782 18.9094C113.299 23.6518 113.858 28.9788 111.908 34.4966C111.055 36.9193 109.175 38.4183 106.676 39.1603C106.354 39.2572 105.901 39.6903 105.898 39.9719C105.856 44.242 105.877 48.509 105.898 52.779C105.898 52.8426 105.956 52.9062 105.986 52.9698C121.605 45.8258 125.996 21.962 110.287 9.35474C110.994 8.48862 111.702 7.62249 112.47 6.68672C118.729 11.9137 122.319 18.4672 123.403 26.4925H140.877C141.807 30.1538 142.715 33.7334 143.61 37.313C145.111 43.2789 146.784 49.2055 148.044 55.2199C149.01 59.8231 148.542 64.3294 145.244 68.1361C144.947 68.5504 144.792 69.0499 144.804 69.5594C144.777 75.8312 144.786 82.1031 144.786 88.3749V89.6892H141.269V79.0656H109.503V98.3626H141.248V93.3869H144.731V112.487H150.003V116.012H37.0153V112.587H42.2327V111.233C42.2327 97.3693 42.2236 83.5042 42.2054 69.6382C42.1891 69.021 41.9764 68.4249 41.598 67.9362C39.7982 65.7185 38.7612 62.9824 38.6401 60.132C38.47 57.3368 39.0288 54.6809 39.7212 51.9916C41.8288 43.815 43.8514 35.6019 45.9104 27.4071C45.9742 27.1527 46.0562 26.9013 46.1564 26.553H63.4667C64.0134 24.4059 64.3474 22.3133 65.0793 20.3509C69.4282 8.743 77.7827 1.99572 90.1307 0.205931C90.4344 0.160505 90.7168 0.0696533 91.0114 0H96.0223ZM105.789 112.484V79.0656H81.2295V112.484H105.789ZM45.8223 79.0656V98.3686H77.5276V79.0656H45.8223ZM141.181 75.4315V71.222C134.63 73.5751 129.392 71.8852 125.322 66.4281C120.223 74.1232 109.366 74.3019 104.137 66.4644C98.9741 74.2565 88.0201 74.1596 82.8786 66.4462C80.3337 70.1863 76.823 72.2729 72.2768 72.2608C67.7305 72.2486 64.2563 70.1409 61.7083 66.3917C57.5812 71.9488 52.3091 73.5569 45.8223 71.2372V75.4315H141.181ZM123.789 30.0054C124.7 38.2851 125.611 46.4376 126.495 54.5567H144.291C142.274 46.5254 140.273 38.594 138.305 30.6535C138.135 29.963 137.698 30.0024 137.209 30.0024H123.777L123.789 30.0054ZM63.2268 30.0509H48.8774L42.7247 54.5718H60.4784C61.3925 46.3921 62.2945 38.2972 63.2147 30.069L63.2268 30.0509ZM45.8223 102.033V112.466H77.4972V102.033H45.8223ZM141.181 102.081H109.527V112.487H141.181V102.081ZM63.74 58.218C62.6316 62.9787 65.8659 67.7 70.7249 68.6206C75.4685 69.5291 80.279 66.2282 80.9927 61.5402C81.1627 60.4288 81.0686 59.278 81.1809 58.1544C81.2599 57.3701 80.9016 57.0309 80.2456 56.7099C74.7145 54.0258 70.1573 49.693 67.2051 44.3116C66.6555 43.3365 66.1908 42.3189 65.5652 41.0773C65.0459 45.735 64.557 50.1322 64.0468 54.6718H72.2464V58.218H63.74ZM144.743 58.2816H126.987C126.971 62.1277 127.943 65.459 131.448 67.4971C134.524 69.2838 137.698 69.2535 140.704 67.3426C143.978 65.2621 145.089 62.1247 144.731 58.2816H144.743ZM106.011 58.2574C105.452 62.1368 107.107 65.6921 110.262 67.5334C111.79 68.4282 113.553 68.845 115.321 68.73C117.089 68.615 118.782 67.9735 120.181 66.8884C122.899 64.7957 124.104 61.3767 123.193 58.2574H106.011ZM42.3603 58.2574C41.7529 62.1186 43.3837 65.6588 46.5512 67.5274C48.0796 68.4238 49.8423 68.843 51.6119 68.7307C53.3815 68.6184 55.0767 67.9799 56.4788 66.8975C59.13 64.8412 60.5088 61.1435 59.6858 58.2574H42.3603ZM109.485 29.5905C109.324 26.2048 108.832 23.5125 107.131 21.2019C105.382 18.8276 102.88 18.7307 101.206 21.1171C98.7069 24.6997 98.142 28.6881 99.4509 32.8612C100.104 34.9417 101.795 35.932 104.116 35.9381C106.436 35.9441 108.064 34.9478 108.783 32.8673C109.199 31.6377 109.339 30.3083 109.485 29.5905ZM84.6946 58.536C84.4213 62.4336 85.6513 65.5316 88.9888 67.491C92.217 69.3838 95.5303 69.2475 98.6128 67.0973C101.534 65.0622 102.561 62.1217 102.333 58.536C96.5809 60.2622 90.4467 60.2622 84.6946 58.536ZM77.6096 26.547C77.6096 28.0612 77.5397 29.4512 77.6278 30.8352C77.6644 31.5629 77.9803 32.2486 78.5101 32.7503C79.0398 33.2521 79.7428 33.5314 80.4734 33.5305C82.1011 33.585 83.7319 33.5789 85.3597 33.5305C86.7172 33.4881 87.9046 32.6432 88.0443 31.3622C88.2205 29.7844 88.0869 28.1702 88.0869 26.547H77.6096ZM122.923 54.5991C122.431 50.1474 121.954 45.8167 121.475 41.5073C119.026 46.7498 115.245 51.2629 110.508 54.5991H122.923Z" fill="#EF8119"/>
<path d="M96.2716 91.4821V98.3475H90.7434V91.4821H96.2716Z" fill="#EF8119"/>
<path d="M95.184 91.4821V98.3717H91.8191V91.4821H95.184Z" fill="#EF8119"/>
<path d="M96.2767 86.4458H90.7485V83.0328H96.2767V86.4458Z" fill="#EF8119"/>
<path d="M90.7686 83.0024H96.2365V86.4245H90.7686V83.0024Z" fill="#EF8119"/>
<path d="M95.1809 83.048V86.4307H91.8221V83.048H95.1809Z" fill="#EF8119"/>
</g>
<defs>
<clipPath id="clip0_855_4283">
<rect width="187" height="116" fill="white"/>
</clipPath>
</defs>
</svg>
