<svg width="121" height="121" viewBox="0 0 121 121" fill="none" xmlns="http://www.w3.org/2000/svg">
<circle cx="60.3778" cy="60.3778" r="60.3778" fill="#EF8119"/>
<path d="M59.0604 40.4706H30.1604C28.6026 40.4706 27.3401 38.9714 27.3401 37.1227V36.6448C27.3401 34.7961 28.6026 33.2969 30.1604 33.2969H66.0379" stroke="white" stroke-width="1.73372" stroke-linecap="round" stroke-linejoin="round"/>
<path d="M30.5123 41.6494L25.4893 58.86C25.1174 60.1247 24.928 61.4368 24.928 62.7534V93.4502C24.928 94.5098 25.7869 95.3687 26.8465 95.3687H76.7333C77.7929 95.3687 78.6518 94.5098 78.6518 93.4502V63.0195C78.6518 61.7006 78.4624 60.3885 78.0904 59.1237L73.2704 42.3506" stroke="white" stroke-width="1.73372" stroke-linecap="round" stroke-linejoin="round"/>
<path d="M34.4551 60.4365C34.4551 60.4365 33.7359 66.4943 36.8809 70.1983L35.8213 84.9155C35.8213 84.9155 35.6455 87.3413 39.2233 87.3413C41.6288 87.3413 42.4382 86.6198 42.614 84.8569C42.7899 83.0916 41.4732 70.1104 41.4732 70.1104C41.4732 70.1104 43.7457 67.2292 44.0974 65.1709C44.4491 63.1126 44.0974 60.4365 44.0974 60.4365" stroke="white" stroke-width="1.73372" stroke-linecap="round" stroke-linejoin="round"/>
<path d="M36.8813 70.1978C36.8813 70.1978 39.1448 71.0725 41.4759 70.1099" stroke="white" stroke-width="1.73372" stroke-linecap="round" stroke-linejoin="round"/>
<path d="M34.7463 65.5718H44.0122" stroke="white" stroke-width="1.73372" stroke-linecap="round" stroke-linejoin="round"/>
<path d="M39.2729 60.4365V65.5722" stroke="white" stroke-width="1.73372" stroke-linecap="round" stroke-linejoin="round"/>
<path d="M54.4367 60.4627C52.9871 60.6634 48.7172 62.1513 47.5764 72.6301C47.5764 72.6301 50.2976 73.4462 50.0699 74.8146C49.8421 76.1831 48.9561 84.8718 48.9561 84.8718C48.9561 84.8718 49.5784 87.3427 52.4032 87.3427C55.2303 87.3427 55.6271 85.9742 55.715 84.9597C55.8029 83.9452 54.8335 74.7696 54.8335 74.7696L54.9192 60.8843C54.9192 60.6251 54.6938 60.4267 54.4367 60.4627Z" stroke="white" stroke-width="1.73372" stroke-linecap="round" stroke-linejoin="round"/>
<path d="M50.0183 75.1665H54.8767" stroke="white" stroke-width="1.73372" stroke-linecap="round" stroke-linejoin="round"/>
<path d="M94.1487 23.7085H84.6213V39.2823H94.1487V23.7085Z" stroke="white" stroke-width="1.73372" stroke-linecap="round" stroke-linejoin="round"/>
<path d="M84.6217 25.9429H59.9128C58.5669 25.9429 57.1669 26.015 55.9788 26.6485L44.9026 32.846" stroke="white" stroke-width="1.73372" stroke-linecap="round" stroke-linejoin="round"/>
<path d="M66.5676 33.2944L58.3185 41.6495C57.8361 42.1387 57.4303 42.9075 57.3469 43.329C57.0019 45.101 57.5791 48.4219 61.7701 48.5571C62.4239 48.5774 63.0664 48.3678 63.5872 47.971L70.8579 42.4115C70.8579 42.4115 72.0054 41.309 74.9159 41.6517C77.3913 41.9426 79.5263 39.6092 79.9659 37.242C80.0989 36.5273 80.5024 35.4136 81.4335 35.4136L84.6191 35.355" stroke="white" stroke-width="1.73372" stroke-linecap="round" stroke-linejoin="round"/>
<path d="M72.6752 63.0037V89.6357L66.7415 95.3688V62.3251C66.7415 61.0716 66.9286 59.8272 67.2961 58.6301L72.2987 42.3506" stroke="white" stroke-width="1.73372" stroke-linecap="round" stroke-linejoin="round"/>
<path d="M72.675 89.6362L78.0407 94.8553" stroke="white" stroke-width="1.73372" stroke-linecap="round" stroke-linejoin="round"/>
</svg>
