<svg width="180" height="92" viewBox="0 0 180 92" fill="none" xmlns="http://www.w3.org/2000/svg">
<rect width="180" height="92" fill="#F4D775"/>
<path d="M149.003 90.8605C148.381 91.5859 147.747 92.2908 146.655 91.8532C145.563 91.4156 145.481 90.5081 145.481 89.5243C145.481 85.6478 145.445 81.7713 145.501 77.8947C145.53 75.7626 144.641 74.3266 142.724 73.4367C141.239 72.7466 139.771 72.0153 138.339 71.2195C137.661 70.8465 137.291 71.0286 136.73 71.4779C135.436 72.5205 134.159 73.7451 132.656 74.3295C129.832 75.4278 127.226 74.5967 125.024 72.541C123.052 70.7143 123.043 70.7232 120.639 72.2062C120.704 72.4007 120.797 72.5847 120.915 72.7525C122.183 74.4499 122.699 76.397 122.723 78.4733C122.761 82.2323 122.764 85.9914 122.705 89.7475C122.702 90.3976 122.462 91.0242 122.03 91.5096C121.666 91.8473 120.856 91.9295 120.33 91.8032C119.45 91.6006 119.218 90.8077 119.218 89.956C119.218 86.4701 119.121 82.9812 119.244 79.5011C119.374 75.9418 117.888 73.657 114.574 72.356C111.607 71.1813 108.724 69.804 105.748 68.4883C102.078 75.0931 96.516 78.767 89.0161 78.767C81.5163 78.767 75.9685 75.0931 72.27 68.4677C68.7065 70.0741 65.1459 71.5631 61.7027 73.2752C59.6333 74.3001 58.8231 76.2707 58.8173 78.5614C58.8173 82.1648 58.8173 85.7653 58.8173 89.3687C58.8327 89.7609 58.817 90.1537 58.7703 90.5434C58.6206 91.4244 57.9924 92.0558 57.1735 91.9413C56.5629 91.8561 55.9348 91.2893 55.4974 90.7666C55.245 90.4729 55.3125 89.8855 55.3095 89.4068C55.3095 85.962 55.3359 82.5172 55.3095 79.0724C55.2714 75.8419 56.2723 73.0814 58.8055 70.9728C58.8948 70.866 58.9707 70.7486 59.0316 70.6233C58.0746 70.3032 57.1705 69.9567 56.243 69.7158C56.0838 69.6994 55.9229 69.7171 55.7711 69.7678C55.6192 69.8184 55.4799 69.9008 55.3624 70.0095C54.1501 71.1842 52.9436 72.3589 51.8106 73.5865C51.5085 73.9697 51.3441 74.4435 51.3439 74.9315C51.3116 79.7478 51.3233 84.5641 51.3204 89.3804C51.341 89.7727 51.3243 90.166 51.2705 90.5551C51.1002 91.4362 50.4662 92.0558 49.6443 91.9266C49.0367 91.8326 48.4173 91.257 47.9858 90.7519C47.7393 90.4582 47.8156 89.8532 47.8126 89.3892C47.8126 84.6111 47.8303 79.8359 47.7774 75.0578C47.7378 74.4257 47.4936 73.8237 47.0817 73.3428C46.0942 72.2319 45.0446 71.1779 43.938 70.1857C43.7779 70.0479 43.5907 69.9453 43.3884 69.8846C43.1861 69.8239 42.9733 69.8064 42.7638 69.8333C40.4156 70.45 38.1054 71.1372 35.7895 71.8274C33.585 72.4852 32.5606 73.8273 32.5606 76.1297C32.543 80.5525 32.5606 84.9782 32.5606 89.4039C32.5606 89.8297 32.6662 90.3877 32.4461 90.6608C32.0175 91.1895 31.4481 91.8062 30.8405 91.9383C30.0274 92.1145 29.3728 91.5301 29.138 90.6638C29.0616 90.2772 29.033 89.8827 29.0528 89.4891C29.0528 85.0644 29.0528 80.6396 29.0528 76.2149C29.0528 72.2033 31.0195 69.5661 34.859 68.4207C36.8755 67.8187 38.8951 67.2167 40.9351 66.691C41.8333 66.459 42.1856 66.0508 42.2296 65.0787C42.2854 63.8071 41.9038 62.973 40.9293 62.0861C37.9763 59.4019 36.5644 55.9189 36.5791 51.9396C36.6159 50.2717 36.2747 48.617 35.581 47.0998C32.6457 40.6918 37.5213 32.507 44.5515 32.1605C49.929 31.8933 55.3242 32.0166 60.7135 31.9667H62.3485C62.4894 30.278 62.642 28.6628 62.7565 27.0417C63.0735 22.6806 63.8397 18.4253 65.777 14.4606C70.5675 4.66652 78.578 0.0117471 89.2921 0C96.83 0 103.347 2.66658 108.372 8.46082C112.376 13.0745 114.372 18.5721 114.994 24.5837C115.555 29.9932 115.983 35.4144 116.485 40.9913C116.688 40.7417 116.817 40.589 116.94 40.4304C118.229 38.78 119.529 37.1383 120.797 35.4702C121.023 35.1766 121.29 34.7243 121.226 34.4101C120.269 29.7435 123.706 25.3971 128.629 24.6306C132.897 23.9669 136.622 25.682 138.568 29.0593C139.47 30.5469 139.784 32.318 139.448 34.0254C139.362 34.3184 139.368 34.6313 139.468 34.9203C139.567 35.2093 139.754 35.4601 140.003 35.6376C142.514 37.7698 144.241 40.6803 144.91 43.9069C145.578 47.1335 145.15 50.491 143.693 53.4462C143.415 54.0459 143.203 54.6741 143.062 55.3198C142.393 58.1949 141.025 60.6706 138.715 62.5061C137.893 63.161 137.784 63.8511 137.684 64.7821C137.502 66.459 138.016 67.4545 139.663 68.0125C140.942 68.453 142.087 69.2695 143.347 69.7951C146.22 70.9992 148.26 72.9169 148.985 76.0475L149.003 90.8605ZM100.173 58.1186C100.173 58.8204 100.173 59.5253 100.173 60.2301C100.191 62.092 102.98 64.4209 104.726 63.7836C108.046 62.5678 111.275 61.1023 114.542 59.7455C115.152 59.49 115.217 59.0936 115.129 58.4445C114.266 51.4962 113.415 44.5478 112.646 37.5935C112.111 32.7714 111.959 27.9022 111.207 23.1153C109.426 11.8087 102.134 4.71644 91.2852 3.63278C81.7688 2.67833 73.0038 6.98656 68.8063 16.2521C66.9071 20.4369 66.5196 24.8979 66.0588 29.3765C65.0549 39.103 63.9395 48.8178 62.915 58.5415C62.8739 58.9144 63.1645 59.5488 63.4757 59.6956C66.0441 60.9026 68.683 61.9628 71.2426 63.1933C73.0948 64.089 74.7357 63.763 76.4294 62.8233C77.3452 62.3152 77.8589 61.672 77.8501 60.6089C77.8325 58.9644 77.9029 57.3168 77.8119 55.6781C77.7624 55.1287 77.5013 54.6201 77.0839 54.2597C71.3248 49.9426 68.5714 44.1484 68.4452 37.0003C68.3983 34.4365 69.3258 32.4659 71.5449 31.1091C73.5819 29.9042 75.1568 28.0514 76.0184 25.8465C76.4939 24.6424 77.4333 24.2195 78.4137 24.6189C79.3941 25.0183 79.6876 25.9463 79.2326 27.2003C78.3225 29.8622 76.5009 32.1164 74.0899 33.5643C72.2553 34.6568 71.6536 36.0576 71.9852 38.0399C72.0351 38.3336 72.0381 38.6654 72.0616 38.9767C72.3453 42.3898 73.6525 45.6377 75.8121 48.2949C77.9718 50.9522 80.8831 52.8951 84.165 53.8692C87.4468 54.8433 90.9462 54.8031 94.2049 53.754C97.4635 52.705 100.33 50.6958 102.428 47.9897C105.736 43.7167 106.435 38.8181 105.889 33.6641C105.786 32.7097 105.008 31.6378 104.254 30.977C100.994 28.1588 97.1593 26.0853 93.017 24.9008C89.3214 23.8348 85.5025 23.1975 81.7335 22.3958C80.2659 22.0845 79.6172 21.409 79.808 20.2637C79.9841 19.1947 80.8324 18.7307 82.2502 18.9216C83.0251 19.0244 83.8 19.1125 84.572 19.2152C92.0014 20.3283 98.9552 22.6659 105.119 27.124C106.978 28.469 108.792 29.9109 109.229 32.3132C109.479 33.8546 109.585 35.4158 109.546 36.9768C109.546 43.3848 107.315 48.9089 102.36 53.0057C100.576 54.4858 99.692 55.8837 100.173 58.1186ZM60.8397 35.6229C60.7123 35.5709 60.5793 35.5334 60.4435 35.5114C55.562 35.5114 50.6805 35.4497 45.799 35.5114C39.6817 35.6053 36.2474 42.1514 39.3001 46.8913C40.1455 48.207 40.031 49.6519 40.0193 51.0938C40.0046 53.1965 40.2864 55.2288 41.3608 57.0848C43.1572 60.1978 45.8284 62.0186 49.433 62.0568C53.1051 62.092 55.9318 60.4092 57.8163 57.1994C58.9905 55.217 59.1225 53.0468 59.0257 50.8383C58.9185 49.3525 59.2318 47.8665 59.9298 46.5507C60.4256 45.7046 60.7265 44.7585 60.8104 43.7813C60.919 41.1029 60.8456 38.4099 60.8456 35.6229H60.8397ZM141.18 50.2128C142.061 47.5873 141.858 44.9736 140.781 42.4451C138.298 36.6156 131.265 33.8756 125.699 36.5216C119.658 39.3908 117.263 46.2599 120.219 52.1511C120.599 52.916 120.88 53.7262 121.055 54.5621C121.487 56.6571 122.616 58.5435 124.259 59.913C125.901 61.2824 127.959 62.0537 130.096 62.1008C132.234 62.1479 134.324 61.4679 136.025 60.1721C137.726 58.8763 138.937 57.0413 139.46 54.9674C139.554 54.5592 139.431 53.8779 139.146 53.6429C137.47 52.2627 135.823 50.7884 133.956 49.7165C132.089 48.6446 129.929 47.9691 128.024 47.1732C127.299 48.1806 126.791 48.9705 126.201 49.6901C125.438 50.621 124.44 50.7766 123.639 50.1687C122.796 49.5256 122.784 48.5359 123.498 47.4669C124.025 46.7452 124.45 45.9547 124.763 45.1175C125.294 43.4847 125.978 42.9296 127.604 43.4935C130.325 44.4362 133.061 45.3906 135.65 46.6329C137.599 47.5903 139.319 48.9823 141.186 50.2128H141.18ZM75.6045 67.0346C76.8744 69.5898 78.8537 71.7245 81.3053 73.1829C83.7568 74.6414 86.5768 75.3617 89.4271 75.2575C95.245 75.005 99.5805 72.2385 102.46 67.0551C101.899 66.7996 101.486 66.5764 101.051 66.4179C97.8868 65.2666 96.422 63.0259 96.6481 59.6633C96.7097 58.7177 96.6481 57.7632 96.6481 56.6414C91.4378 58.5914 86.4418 58.5121 81.622 56.7794C81.3285 59.0201 81.2932 61.1845 80.7032 63.2138C80.0281 65.5456 77.6123 66.0889 75.6045 67.0346ZM118.778 59.1317C118.798 60.8586 117.774 62.0685 116.136 62.8644C113.914 63.9598 111.701 65.0728 109.385 66.2358C110.917 66.92 112.531 67.4399 113.928 68.3121C116.321 69.8128 118.39 69.5338 120.806 68.1829C122.488 67.2431 123.342 66.3298 122.949 64.4561C122.837 63.9245 122.714 63.3137 122.379 62.9319C121.232 61.6104 119.99 60.3946 118.778 59.1317V59.1317ZM68.8063 66.1594C65.3983 64.691 62.1049 63.5486 59.5717 61.0583C58.8613 61.6838 58.1216 62.3123 57.4083 62.9701C56.378 63.9157 56.7713 66.18 58.057 66.6029C59.874 67.1902 61.7145 67.6924 63.5491 68.2122C63.7681 68.2782 64.0024 68.273 64.2183 68.1975C65.6772 67.5603 67.1214 66.8965 68.8063 66.1594ZM134.141 65.1874C132.859 65.343 131.623 65.6102 130.387 65.6102C129.151 65.6102 127.854 65.3489 126.603 65.202C126.339 67.2225 125.664 69.3135 128.15 70.6027C129.547 71.3223 130.83 71.4221 132.26 70.7555C134.852 69.5543 134.388 67.3752 134.132 65.1874H134.141ZM136.026 33.0973C136.052 30.0548 133.384 27.8112 130.132 27.9874C126.832 28.1577 124.416 30.4073 124.742 33.0797C128.461 31.629 132.21 31.6554 136.026 33.0973ZM45.617 65.3782C45.6787 65.7982 45.5583 66.6381 45.9105 67.0816C46.9849 68.3943 48.2588 69.5514 49.6296 70.961C50.6834 69.8216 51.5611 68.7173 52.5973 67.7952C53.4779 66.9993 53.6804 66.1859 53.3546 65.3782H45.617Z" fill="#EF8119"/>
<path d="M41.0398 84.6728C41.0398 86.3908 41.0398 88.1088 41.0398 89.8268C41.0398 91.1895 40.3471 92.0089 39.2786 91.9971C38.2102 91.9854 37.5174 91.1866 37.5174 89.9061C37.4959 86.3527 37.4959 82.8001 37.5174 79.2486C37.5174 77.9711 38.2337 77.2105 39.2786 77.2193C40.3236 77.2281 40.9929 77.9946 41.0076 79.275C41.0398 81.0812 41.0398 82.8785 41.0398 84.6728Z" fill="#EF8119"/>
<path d="M138.981 85.8093C138.981 84.4055 138.963 82.9988 138.981 81.5921C139.001 80.3029 139.673 79.5364 140.742 79.554C141.81 79.5716 142.48 80.3146 142.503 81.6097C142.527 84.382 142.527 87.1553 142.503 89.9296C142.503 91.2071 141.772 92.0029 140.742 91.9853C139.712 91.9677 139.025 91.1807 139.004 89.9002C138.963 88.5464 138.978 87.1778 138.981 85.8093Z" fill="#EF8119"/>
<path d="M72.9471 86.4848C72.9471 87.6977 72.9764 88.9106 72.9471 90.1235C72.9089 91.2453 72.2044 92.0147 71.2475 91.9795C70.1967 91.9413 69.5274 91.3128 69.501 90.2879C69.4364 87.7427 69.4364 85.1975 69.501 82.6523C69.5303 81.645 70.1673 80.9931 71.2622 80.9872C72.2514 80.9872 72.9148 81.6861 72.953 82.8373C72.9794 84.0561 72.95 85.269 72.9471 86.4848Z" fill="#EF8119"/>
<path d="M107.059 86.4701C107.059 85.2573 107.026 84.0444 107.059 82.8315C107.097 81.6832 107.769 80.9784 108.761 80.9901C109.847 81.0048 110.476 81.6656 110.505 82.67C110.573 85.2152 110.573 87.7604 110.505 90.3056C110.502 90.5328 110.454 90.7572 110.363 90.9657C110.273 91.1741 110.142 91.3625 109.978 91.5199C109.814 91.6773 109.621 91.8006 109.409 91.8825C109.197 91.9644 108.971 92.0034 108.744 91.9971C107.784 91.9736 107.091 91.2453 107.056 90.1176C107.029 88.8988 107.059 87.686 107.059 86.4701Z" fill="#EF8119"/>
<path d="M46.7961 41.4113C49.9897 41.6697 53.1628 41.9428 56.1716 43.1528C56.4296 43.2397 56.6807 43.3457 56.923 43.4699C57.7655 43.9662 58.1353 44.7034 57.8036 45.6461C57.4719 46.5888 56.6647 47.0234 55.7489 46.671C52.2705 45.3436 48.6336 45.1086 44.9791 44.8884C43.849 44.8208 43.1621 44.0543 43.1915 43.1263C43.2208 42.1308 43.9928 41.4641 45.1846 41.4259C45.707 41.3966 46.253 41.4113 46.7961 41.4113Z" fill="#EF8119"/>
</svg>
