<svg width="121" height="121" viewBox="0 0 121 121" fill="none" xmlns="http://www.w3.org/2000/svg">
<circle cx="60" cy="60" r="60" fill="#EF8119"/>
<path d="M67.9466 82.971V93.2707C68.634 93.2707 69.2987 93.3025 69.9589 93.2639C71.9938 93.1527 73.3233 94.1736 74.0356 95.9591C74.5983 97.3702 74.9794 98.8584 75.3877 100.326C75.5738 101 75.2176 101.42 74.5279 101.488C74.3306 101.506 74.1309 101.497 73.9335 101.497C65.1879 101.497 56.4422 101.497 47.6965 101.497C46.2355 101.497 45.9837 101.168 46.3898 99.7545C46.7097 98.6406 47.0091 97.5199 47.3903 96.4264C48.1797 94.1668 49.4706 93.273 51.8368 93.2684C52.4244 93.2684 53.0143 93.2684 53.7107 93.2684V82.9687C53.3387 82.9687 53.0143 82.9687 52.6898 82.9687C44.3412 82.9687 35.9903 82.8893 27.6439 83.0073C24.1706 83.0549 21.7227 80.6161 21.7408 77.0906C21.8157 62.1447 21.7703 47.1988 21.7749 32.2507C21.7749 29.467 23.3221 27.3957 25.8426 26.8172C26.3326 26.7038 26.8521 26.6924 27.358 26.6924C49.6612 26.6856 71.9621 26.6856 94.2652 26.6902C97.6796 26.6902 99.8507 28.8499 99.8529 32.2484C99.8597 47.3077 99.8597 62.3671 99.8529 77.4264C99.8529 80.7749 97.6705 82.9619 94.3265 82.9665C85.8916 82.9755 77.459 82.971 69.0242 82.971H67.9443H67.9466ZM60.857 28.4484C49.7905 28.4484 38.724 28.4824 27.6575 28.4212C25.2731 28.4075 23.5353 29.8368 23.558 32.473C23.6397 41.7563 23.5898 51.0419 23.5898 60.3275C23.5898 66.0468 23.5966 71.7638 23.583 77.4831C23.583 78.4269 23.7826 79.2754 24.4065 79.9991C25.2346 80.9564 26.3212 81.2151 27.535 81.2128C41.0607 81.2037 54.5864 81.2083 68.1122 81.2083C76.8011 81.2083 85.4901 81.2105 94.179 81.2083C96.67 81.2083 98.038 79.8539 98.038 77.3992C98.0403 62.3398 98.0403 47.2782 98.0335 32.2189C98.0335 31.7992 98.0153 31.3613 97.9064 30.9598C97.4686 29.349 96.1369 28.4529 94.2221 28.4529C83.0989 28.4507 71.9757 28.4529 60.8525 28.4529L60.857 28.4484ZM73.4208 99.6865C73.0125 98.509 72.6858 97.4042 72.2411 96.347C71.8872 95.5076 71.193 95.0312 70.2379 95.0312C63.9605 95.0312 57.6809 95.0108 51.4035 95.0652C50.8363 95.0698 50.1172 95.4327 49.7383 95.8638C48.8059 96.9255 48.6698 98.3366 48.3091 99.6819H73.4208V99.6865ZM66.0545 93.2276V83.0209H55.5937V93.2276H66.0545Z" fill="white"/>
<path d="M60.8998 32.6428C71.3719 32.6428 81.8463 32.6428 92.3184 32.6428C93.7136 32.6428 93.8974 32.822 93.8974 34.19C93.8974 47.9494 93.8974 61.7066 93.8974 75.466C93.8974 76.8294 93.7113 77.0087 92.3161 77.0087C71.3129 77.0087 50.3119 77.0087 29.3087 77.0087C27.9135 77.0087 27.7297 76.8317 27.7297 75.4637C27.7297 61.7043 27.7297 47.9472 27.7297 34.1878C27.7297 32.8175 27.9112 32.6428 29.3087 32.6428C39.8376 32.6428 50.3664 32.6428 60.8975 32.6428H60.8998ZM29.5742 75.1824H92.0235V34.4691H29.5742V75.1824Z" fill="white"/>
<path d="M60.1125 53.3786C60.1125 54.9417 60.0989 56.4685 60.1283 57.993C60.1329 58.1995 60.2962 58.4581 60.4641 58.5942C61.0835 59.0956 61.3761 59.7263 61.3602 60.5158C61.3512 61.024 61.3557 61.5344 61.3602 62.0449C61.3693 62.8366 61.1833 63.6465 61.9796 64.275C62.2427 64.4837 62.2949 65.0463 62.3176 65.4547C62.3652 66.3281 62.3471 67.2083 62.329 68.0863C62.2995 69.4112 61.5213 70.2211 60.2168 70.2234C52.154 70.2347 44.089 70.2325 36.0261 70.2234C34.7285 70.2234 33.9481 69.4906 33.8823 68.2065C33.8346 67.2469 33.8482 66.2827 33.8891 65.3208C33.9049 64.9669 33.9662 64.4814 34.1976 64.2954C35.0075 63.6511 34.8238 62.8049 34.8283 61.9813C34.8306 61.4437 34.7625 60.8947 34.851 60.3729C34.9327 59.8896 35.0461 59.2499 35.3841 59.0049C36.1736 58.4332 36.1328 57.7049 36.1192 56.9132C36.1033 55.924 36.0987 54.9326 36.1214 53.9412C36.1305 53.5011 36.0103 53.3083 35.5316 53.2221C34.3292 53.0088 33.7439 52.1807 33.9276 50.9557C34.7444 45.5427 37.9863 42.1329 42.9773 40.293C49.021 38.0652 56.0402 40.0548 59.8175 44.971C61.0426 46.5681 61.8593 48.3513 62.1928 50.3431C62.515 52.2783 62.0907 52.9249 60.1125 53.3763V53.3786ZM60.5571 51.457C60.0626 47.5913 58.0548 44.8099 54.7902 42.9995C50.026 40.3588 45.2324 40.5244 40.6542 43.4714C37.8002 45.309 36.0602 47.9542 35.6609 51.457H60.5594H60.5571ZM58.2658 53.3468H37.9522V58.1178H58.2658V53.3468ZM35.7199 68.4674H36.7113C44.3158 68.4674 51.9226 68.4674 59.5272 68.4674C59.6973 68.4674 59.8924 68.5196 60.0285 68.4516C60.2168 68.3585 60.4981 68.1793 60.5049 68.0273C60.5481 67.079 60.5276 66.1284 60.5276 65.1597H35.7176V68.4674H35.7199ZM48.0772 59.994C44.9669 59.994 41.8543 59.994 38.744 59.994C37.3314 59.994 36.6258 60.689 36.6273 62.0789C36.6273 63.2836 36.6273 63.2972 37.8365 63.2972C44.6811 63.3017 51.5256 63.3017 58.3679 63.2972C59.5998 63.2972 59.5998 63.2836 59.5998 62.0925C59.5998 61.725 59.5612 61.3529 59.6066 60.9899C59.7087 60.1868 59.3525 59.9759 58.5925 59.9827C55.0851 60.0122 51.5778 59.9963 48.0727 59.994H48.0772Z" fill="white"/>
<path d="M78.0217 39.4285C80.8507 39.4285 83.6797 39.424 86.5065 39.4285C87.4979 39.4285 87.7633 39.6872 87.7656 40.6876C87.7724 45.3838 87.7724 50.0799 87.7656 54.776C87.7656 55.8173 87.4842 56.0963 86.4656 56.0986C80.8076 56.1032 75.1518 56.1032 69.4938 56.0986C68.4616 56.0986 68.2029 55.8377 68.2007 54.7783C68.1939 50.1094 68.1939 45.4427 68.2007 40.7738C68.2007 39.635 68.4116 39.4308 69.5346 39.4285C72.3636 39.424 75.1927 39.4285 78.0194 39.4285H78.0217ZM70.0247 54.227H85.8894V41.2321H70.0247V54.227Z" fill="white"/>
<path d="M77.9784 60.8218C75.2061 60.8218 72.4338 60.8218 69.6638 60.8195C69.3847 60.8195 69.0399 60.8671 68.8403 60.7265C68.5748 60.5404 68.2663 60.1911 68.2686 59.9143C68.2686 59.6352 68.5794 59.2859 68.8448 59.1021C69.0444 58.9637 69.3893 59.0204 69.6706 59.0204C75.2152 59.0159 80.7575 59.0182 86.3021 59.0182C86.4995 59.0182 86.7604 58.9433 86.8829 59.0409C87.205 59.2927 87.6905 59.6239 87.6883 59.9188C87.686 60.2183 87.205 60.5541 86.8761 60.7945C86.7264 60.9034 86.436 60.8218 86.2114 60.8218C83.4686 60.8218 80.7235 60.8218 77.9807 60.8218H77.9784Z" fill="white"/>
<path d="M77.8786 65.5251C75.1653 65.5251 72.4497 65.5251 69.7364 65.5251C69.4551 65.5251 69.1057 65.5909 68.9084 65.4548C68.6248 65.2574 68.2709 64.899 68.2777 64.6154C68.2845 64.3295 68.6702 64.0278 68.9356 63.7828C69.0309 63.6943 69.2623 63.7488 69.4324 63.7488C75.1449 63.7488 80.8551 63.751 86.5676 63.7419C87.221 63.7419 87.7382 63.928 87.7314 64.6471C87.7246 65.3822 87.1597 65.5274 86.5336 65.5274C83.6501 65.5228 80.7666 65.5274 77.8809 65.5274L77.8786 65.5251Z" fill="white"/>
<path d="M77.8832 70.2281C74.9997 70.2281 72.1162 70.2281 69.2328 70.2281C68.627 70.2281 68.2323 69.9672 68.2391 69.3366C68.2436 68.6991 68.6701 68.4654 69.26 68.4677C69.4574 68.4677 69.6547 68.4677 69.8544 68.4677C71.3812 68.4677 72.908 68.4677 74.4348 68.4677C78.3369 68.4677 82.239 68.4677 86.1388 68.4677C86.3929 68.4677 86.7105 68.3815 86.8875 68.5017C87.2187 68.7263 87.6883 69.0734 87.6838 69.3638C87.6792 69.6542 87.1983 70.1283 86.867 70.185C86.1252 70.3121 85.347 70.2281 84.5848 70.2304C82.3501 70.2304 80.1178 70.2304 77.8832 70.2304V70.2281Z" fill="white"/>
<path d="M75.9502 49.7646C77.7538 47.961 79.4712 46.2436 81.1863 44.5263C81.3655 44.347 81.5424 44.161 81.7262 43.9863C82.155 43.5825 82.6359 43.4759 83.0783 43.9137C83.5275 44.3607 83.3982 44.8393 82.9853 45.2568C81.5878 46.6611 80.1858 48.0586 78.786 49.4606C78.1054 50.1412 77.4248 50.8195 76.7442 51.5001C76.2565 51.9879 75.7619 52.006 75.2651 51.5115C74.5051 50.7515 73.7451 49.9915 72.9851 49.2315C72.5676 48.814 72.4361 48.3376 72.8694 47.8861C73.3435 47.3938 73.8426 47.5572 74.2714 48.0018C74.8204 48.569 75.3604 49.1452 75.9479 49.7646H75.9502Z" fill="white"/>
</svg>
