<svg width="72" height="34" viewBox="0 0 72 34" fill="none" xmlns="http://www.w3.org/2000/svg">
<path d="M5 1H67C69.2091 1 71 2.79086 71 5V29C71 31.2091 69.2091 33 67 33H5C2.79086 33 1 31.2091 1 29V5C1 2.79086 2.79086 1 5 1Z" stroke="#F4D775" stroke-width="2"/>
<path d="M28.44 22.84C28.16 23.62 27.64 24.76 27.2 25.54H22.94L24.02 25.16C23.84 24.5 23.36 23.52 22.88 22.82L21.22 23.36C21.6 24.02 22.02 24.88 22.18 25.54H16.98V27.14H34.44V25.54H29.06C29.44 24.86 29.86 24.06 30.24 23.28L28.44 22.84ZM29.38 21.3H21.7V19.14H29.38V21.3ZM31.36 17.64H19.84V22.8H31.36V17.64ZM33.08 11.72C32.44 12.42 31.42 13.3 30.5 14.02C30.08 13.6 29.72 13.16 29.34 12.72C30.28 12.06 31.36 11.2 32.26 10.4L30.86 9.42C30.28 10.06 29.34 10.9 28.52 11.56C28.02 10.84 27.62 10.08 27.28 9.3L25.66 9.8C26.42 11.58 27.42 13.2 28.64 14.64H22.88C23.9 13.42 24.76 12.04 25.34 10.5L24.1 9.9L23.78 9.98H17.76V11.5H22.9C22.42 12.36 21.82 13.18 21.12 13.96C20.5 13.34 19.52 12.62 18.66 12.14L17.64 13.16C18.46 13.68 19.4 14.42 20.02 15.04C18.86 16.06 17.54 16.92 16.26 17.46C16.62 17.8 17.16 18.44 17.38 18.84C19.1 18.02 20.8 16.84 22.24 15.34V16.22H29.26V15.34C30.6 16.76 32.16 17.92 33.88 18.7C34.18 18.2 34.74 17.48 35.16 17.12C33.86 16.62 32.66 15.88 31.58 14.98C32.52 14.32 33.6 13.48 34.46 12.7L33.08 11.72ZM40.92 10.38V12.26H45.68C45.72 12.98 45.8 13.8 45.94 14.64L44.92 14.46C43.76 19.88 41.34 23.82 37.04 26.04C37.54 26.38 38.4 27.16 38.76 27.54C42.46 25.32 44.96 21.82 46.44 17C47.42 20.68 49.56 24.76 54.1 27.5C54.42 27.04 55.18 26.24 55.6 25.92C47.98 21.42 47.52 14 47.52 10.38H40.92Z" fill="#F4D775"/>
</svg>
