<svg width="40" height="36" viewBox="0 0 40 36" fill="none" xmlns="http://www.w3.org/2000/svg">
<g clip-path="url(#clip0_393_3993)">
<path d="M19.5562 33C70.4136 33 -34.5319 33 19.5562 33ZM19.5562 0C8.75631 0 0 8.0595 0 18C0 27.9405 8.75631 36 19.5562 36C30.3562 36 39.1125 27.9405 39.1125 18C39.1125 8.0595 30.3562 0 19.5562 0Z" fill="white"/>
<path d="M21.8509 17.985L26.8996 22.575C27.3328 22.9689 27.3365 23.6491 26.9075 24.0476L26.0919 24.8053C25.7111 25.159 25.1227 25.1621 24.7383 24.8123L19.5661 20.106L14.4501 24.8692C14.0677 25.2252 13.4758 25.2269 13.0914 24.8731L12.2772 24.1237C11.8487 23.7292 11.8465 23.0535 12.2726 22.6564L17.2633 18.0045L12.2161 13.4119C11.7818 13.0167 11.7798 12.3342 12.2119 11.9365L13.0246 11.1884C13.4056 10.8378 13.9912 10.8359 14.3744 11.1842L19.5449 15.8835L24.6477 11.1285C25.0287 10.7734 25.6185 10.7703 26.0033 11.1212L26.8279 11.8732C27.2598 12.2671 27.2633 12.9457 26.8355 13.344L21.8509 17.985Z" fill="black"/>
</g>
<defs>
<clipPath id="clip0_393_3993">
<rect width="39.1125" height="36" fill="white"/>
</clipPath>
</defs>
</svg>
