<svg width="82" height="82" viewBox="0 0 82 82" fill="none" xmlns="http://www.w3.org/2000/svg">
<g filter="url(#filter0_d_231_2040)">
<circle cx="41" cy="41" r="31" fill="white"/>
<path d="M40.1463 32.1423L40.9997 33.5403L41.8533 32.1424C44.0786 28.4976 48.3871 27.141 52.2015 27.9186C55.9778 28.6884 59.0767 31.5003 59.0767 36.0887C59.0767 39.2235 57.101 42.5534 53.6262 46.4372C51.0526 49.3139 47.7827 52.3638 44.153 55.7493C43.1281 56.7052 42.0745 57.6879 40.9998 58.701C39.9228 57.6856 38.867 56.7007 37.84 55.7427C34.2134 52.3598 30.946 49.312 28.3739 46.4372C24.8989 42.5533 22.9229 39.2235 22.9229 36.0887C22.9229 31.5156 26.0153 28.6889 29.7873 27.9083C33.5942 27.1204 37.9022 28.4666 40.1463 32.1423Z" stroke="#FF6262" stroke-width="2"/>
</g>
<defs>
<filter id="filter0_d_231_2040" x="0" y="0" width="82" height="82" filterUnits="userSpaceOnUse" color-interpolation-filters="sRGB">
<feFlood flood-opacity="0" result="BackgroundImageFix"/>
<feColorMatrix in="SourceAlpha" type="matrix" values="0 0 0 0 0 0 0 0 0 0 0 0 0 0 0 0 0 0 127 0" result="hardAlpha"/>
<feOffset/>
<feGaussianBlur stdDeviation="5"/>
<feComposite in2="hardAlpha" operator="out"/>
<feColorMatrix type="matrix" values="0 0 0 0 0 0 0 0 0 0 0 0 0 0 0 0 0 0 0.3 0"/>
<feBlend mode="normal" in2="BackgroundImageFix" result="effect1_dropShadow_231_2040"/>
<feBlend mode="normal" in="SourceGraphic" in2="effect1_dropShadow_231_2040" result="shape"/>
</filter>
</defs>
</svg>
