<svg width="30" height="30" viewBox="0 0 30 30" fill="none" xmlns="http://www.w3.org/2000/svg">
<g clip-path="url(#clip0_610_3633)">
<path d="M30 13.75H27.4362C26.85 7.84375 22.1562 3.15 16.25 2.5625V0H13.75V2.5625C7.84375 3.15 3.15 7.84375 2.56375 13.75H0V16.25H2.56375C3.15 22.1562 7.84375 26.85 13.75 27.4375V30H16.25V27.4375C22.1562 26.8513 26.85 22.1562 27.4362 16.25H30V13.75ZM16.25 24.9137V20H13.75V24.9137C9.23625 24.3462 5.6525 20.7638 5.08625 16.25H10V13.75H5.08625C5.6525 9.23625 9.23625 5.65375 13.75 5.08625V10H16.25V5.08625C20.7638 5.65375 24.3475 9.235 24.9137 13.75H20V16.25H24.9137C24.3475 20.7638 20.7638 24.3462 16.25 24.9137ZM17.5 15C17.5 16.38 16.38 17.5 15 17.5C13.62 17.5 12.5 16.38 12.5 15C12.5 13.62 13.62 12.5 15 12.5C16.38 12.5 17.5 13.62 17.5 15Z" fill="#EF8119"/>
</g>
<defs>
<clipPath id="clip0_610_3633">
<rect width="30" height="30" fill="white"/>
</clipPath>
</defs>
</svg>
