<svg width="24" height="24" viewBox="0 0 24 24" fill="none" xmlns="http://www.w3.org/2000/svg">
<path d="M11.1864 0.534316C11.3376 0.207158 11.6544 0 12 0C12.3468 0 12.6624 0.207158 12.8136 0.534316C13.9824 3.05811 15.9936 7.40589 15.9936 7.40589C15.9936 7.40589 20.5668 8.06779 23.22 8.45305C23.7036 8.52253 24 8.95326 24 9.39663C24 9.63663 23.9136 9.88042 23.7228 10.0737C21.7908 12.0164 18.4644 15.3676 18.4644 15.3676C18.4644 15.3676 19.2768 20.1259 19.7472 22.8859C19.8468 23.4695 19.4172 24 18.8568 24C18.7104 24 18.564 23.9634 18.4308 23.8876C16.0692 22.5638 12 20.2863 12 20.2863C12 20.2863 7.9308 22.5638 5.5692 23.8876C5.436 23.9634 5.2884 24 5.142 24C4.584 24 4.152 23.4682 4.2528 22.8859C4.7244 20.1259 5.5368 15.3676 5.5368 15.3676C5.5368 15.3676 2.2092 12.0164 0.2784 10.0737C0.0864001 9.88042 0 9.63663 0 9.39789C0 8.95326 0.2988 8.52126 0.7812 8.45305C3.4344 8.06779 8.0064 7.40589 8.0064 7.40589C8.0064 7.40589 10.0188 3.05811 11.1864 0.534316Z" fill="#FFD135"/>
</svg>
