<svg width="24" height="24" viewBox="0 0 24 24" fill="none" xmlns="http://www.w3.org/2000/svg">
<path d="M18.0828 5.85386L21.3036 2.99584C21.4752 2.8444 21.6876 2.76929 21.9 2.76929C22.4016 2.76929 22.8 3.18121 22.8 3.67794C22.8 3.92873 22.6968 4.17952 22.4952 4.35883L2.6952 21.9273C2.5248 22.08 2.3124 22.1539 2.1 22.1539C1.602 22.1539 1.2 21.7492 1.2 21.2452C1.2 20.9945 1.3032 20.7437 1.5036 20.5644L4.4292 17.968C2.7324 16.5966 1.2768 14.8762 0.1728 13.088C0.0576001 12.8953 0 12.6785 0 12.4616C0 12.2447 0.0588 12.0279 0.174 11.8352C2.7072 7.72811 7.104 3.98083 11.9976 3.98083C14.1756 3.98083 16.2408 4.69927 18.0828 5.85386V5.85386ZM20.8656 8.07098C22.0248 9.21346 23.0292 10.511 23.8344 11.8473C23.9448 12.0363 24 12.2496 24 12.4616C24 12.6736 23.9448 12.8868 23.8344 13.0758C21.3528 17.1987 16.9692 20.9424 11.9976 20.9424C10.4412 20.9424 8.934 20.5632 7.5228 19.9138L9.0192 18.5859C9.9732 18.9312 10.9704 19.1251 11.9976 19.1251C16.2168 19.1251 19.8888 15.9484 22.0932 12.4616C21.3792 11.3324 20.5116 10.2348 19.5192 9.26677L20.8656 8.07098ZM16.7448 11.7286C16.7808 11.9673 16.8 12.212 16.8 12.4616C16.8 15.1367 14.6496 17.3077 12 17.3077C11.5392 17.3077 11.0928 17.2423 10.6716 17.1187L12.5676 15.4359C13.6416 15.2287 14.5128 14.4412 14.8488 13.4114L16.7448 11.7286ZM16.6752 7.10296C15.2388 6.29123 13.6608 5.79813 11.9976 5.79813C7.8396 5.79813 4.158 8.9869 1.9128 12.4616C2.9364 14.0463 4.2588 15.5716 5.79 16.7613L7.8636 14.921C7.4424 14.2002 7.2 13.3593 7.2 12.4616C7.2 9.78652 9.3504 7.61544 12 7.61544C13.11 7.61544 14.1324 7.99708 14.946 8.63677L16.6752 7.10296ZM13.5552 9.87133C13.1016 9.59267 12.5688 9.43275 12 9.43275C10.344 9.43275 9 10.7897 9 12.4616C9 12.8977 9.0912 13.3109 9.2556 13.6865L13.5552 9.87133Z" fill="#BEBEBE"/>
</svg>
