<svg width="50" height="50" viewBox="0 0 50 50" fill="none" xmlns="http://www.w3.org/2000/svg">
<g filter="url(#filter0_d_231_2222)">
<circle cx="25" cy="25" r="21" fill="white"/>
<path d="M24.1465 19.1678L24.9999 20.5657L25.8535 19.1678C27.2776 16.8354 30.0476 15.9497 32.5238 16.4545C34.962 16.9515 36.9231 18.7469 36.9231 21.673C36.9231 23.667 35.6614 25.8433 33.313 28.4682C31.5801 30.4051 29.3807 32.4566 26.9257 34.7465C26.2993 35.3308 25.6562 35.9305 25 36.5479C24.3423 35.929 23.6977 35.3277 23.0699 34.7421C20.617 32.454 18.4192 30.4039 16.6874 28.4682C14.3387 25.8432 13.0769 23.667 13.0769 21.673C13.0769 18.7567 15.0344 16.9514 17.4698 16.4473C19.94 15.9361 22.7096 16.8142 24.1465 19.1678Z" fill="#FF6262" stroke="#FF6262" stroke-width="2"/>
</g>
<defs>
<filter id="filter0_d_231_2222" x="0" y="0" width="50" height="50" filterUnits="userSpaceOnUse" color-interpolation-filters="sRGB">
<feFlood flood-opacity="0" result="BackgroundImageFix"/>
<feColorMatrix in="SourceAlpha" type="matrix" values="0 0 0 0 0 0 0 0 0 0 0 0 0 0 0 0 0 0 127 0" result="hardAlpha"/>
<feOffset/>
<feGaussianBlur stdDeviation="2"/>
<feComposite in2="hardAlpha" operator="out"/>
<feColorMatrix type="matrix" values="0 0 0 0 0 0 0 0 0 0 0 0 0 0 0 0 0 0 0.2 0"/>
<feBlend mode="normal" in2="BackgroundImageFix" result="effect1_dropShadow_231_2222"/>
<feBlend mode="normal" in="SourceGraphic" in2="effect1_dropShadow_231_2222" result="shape"/>
</filter>
</defs>
</svg>
