<svg width="165" height="40" viewBox="0 0 165 40" fill="none" xmlns="http://www.w3.org/2000/svg">
<path d="M81.8165 16.5593C80.483 16.9887 79.2017 17.4332 77.8985 17.8087C77.0634 18.0494 76.3529 17.3423 76.6341 16.529C76.7502 16.194 77.1341 15.8976 77.4658 15.7023C78.7959 14.916 80.1968 14.2392 81.4949 13.4024C84.0323 11.7692 86.179 9.70662 87.9065 7.22146C88.1204 6.91503 88.3342 6.60859 88.5682 6.31731C89.7721 4.82385 91.8818 5.68928 92.3768 6.79043C92.53 7.13391 92.5553 7.61545 92.4441 7.97408C92.3179 8.38323 92.4627 8.53813 92.7337 8.74859C95.2997 10.7371 98.157 12.1547 101.252 13.1094C101.625 13.2239 102.003 13.3333 102.37 13.4664C103.442 13.857 103.87 14.7342 103.542 15.837C103.178 17.0544 102.385 17.5763 101.231 17.2547C100.45 17.0375 99.7043 16.6924 98.8827 16.3826V23.2807C99.3272 23.4693 99.8188 23.6006 100.223 23.865C101.083 24.424 101.228 25.3921 100.501 26.106C99.8963 26.7004 99.1504 27.1499 98.4651 27.6601C98.3489 27.7459 98.2193 27.8116 98.0324 27.9244C99.1133 28.4649 100.142 28.9666 101.159 29.4903C101.779 29.8085 102.378 30.1654 102.604 30.8911C102.826 31.6101 102.464 32.6287 101.821 33.1456C101.22 33.6272 100.336 33.6844 99.5612 33.2146C98.8119 32.76 98.1233 32.2061 97.3724 31.7549C94.6717 30.1284 91.9592 28.5221 89.2468 26.9175C88.6036 26.537 88.4032 26.2222 88.5396 25.6834C88.6979 25.052 89.0666 24.7792 89.6963 24.9695C91.407 25.4881 93.1109 26.0285 94.798 26.6195C95.2694 26.7845 95.5691 26.8047 95.8924 26.3838C96.3453 25.7945 96.8538 25.249 97.4178 24.594H85.9416V29.1687C86.8828 29.0609 87.787 28.9532 88.6911 28.8521C89.3225 28.7814 89.9522 28.6905 90.5836 28.6585C91.2554 28.6265 91.5854 28.8791 91.7067 29.4263C91.8363 30.0055 91.6258 30.3725 90.9894 30.6386C87.7382 31.9956 84.3556 32.8745 80.877 33.3897C80.675 33.4201 80.4679 33.4251 80.2625 33.4251C79.131 33.4251 78.4659 32.8695 78.3784 31.8626C78.2673 30.5864 78.6949 29.9735 79.9139 29.758C80.5319 29.6485 81.1649 29.6182 81.8182 29.5475V16.5593H81.8165ZM85.9298 22.3698C86.1757 22.3698 86.3929 22.3698 86.6101 22.3698C88.9235 22.3698 91.2369 22.3698 93.5503 22.3698C94.4618 22.3698 94.8945 21.9175 94.8485 21.0128C94.8451 20.9623 94.8148 20.9117 94.7946 20.8562H85.9298V22.3682V22.3698ZM94.8552 18.5983C94.8552 18.2447 94.8502 17.9501 94.8552 17.6554C94.8619 17.3086 94.702 17.1385 94.3518 17.1402C91.705 17.1419 89.0582 17.1335 86.4114 17.1587C86.243 17.1587 85.9703 17.3894 85.9315 17.5544C85.8558 17.8811 85.9096 18.238 85.9096 18.5983H94.8552ZM92.3835 14.8891H96.1955C94.4983 13.3434 92.7573 11.7591 91.082 10.2319C90.7655 10.5199 90.358 10.8903 89.959 11.2523C90.6207 11.7675 91.2874 12.249 91.907 12.7811C92.5367 13.3232 92.8566 13.9849 92.3835 14.8874V14.8891ZM85.0678 14.8638H89.5111C88.9774 14.1533 88.5009 13.5202 88.0311 12.8973C87.0293 13.5623 86.0847 14.1887 85.0678 14.8638Z" fill="#EF8119"/>
<path d="M119.492 15.7209C121.143 13.926 121.712 11.8231 121.904 9.48101C121.239 9.48101 120.61 9.49448 119.982 9.47764C119.027 9.45407 118.542 8.98599 118.662 8.2199C118.731 7.77204 118.968 7.46055 119.429 7.37131C119.648 7.32922 119.872 7.29554 120.094 7.29554C123.216 7.29049 126.336 7.29049 129.458 7.29554C130.978 7.29554 131.571 7.89158 131.503 9.41871C131.424 11.19 131.323 12.9596 131.185 14.7258C131.025 16.7715 129.68 17.908 127.553 17.6521C126.577 17.5342 125.632 17.1015 124.696 16.7496C124.46 16.6604 124.23 16.3539 124.147 16.0997C123.952 15.4969 124.368 14.9834 125.016 14.9851C125.501 14.9851 125.984 15.0777 126.467 15.0709C127.27 15.0608 127.552 14.8133 127.617 14.0136C127.722 12.7121 127.769 11.4055 127.866 10.104C127.903 9.59718 127.705 9.43723 127.222 9.47595C126.74 9.51468 126.122 9.32779 125.806 9.56351C125.504 9.78912 125.511 10.4306 125.39 10.8903C124.533 14.1617 122.686 16.6637 119.682 18.2784C119.285 18.4922 118.897 18.7499 118.433 18.4502C118.062 18.2111 117.932 17.7868 118.03 17.1301H115.744V20.5733C116.461 20.5733 117.166 20.5666 117.872 20.5733C118.724 20.5834 119.062 20.969 118.97 21.8058C118.914 22.2974 118.655 22.6056 118.146 22.6291C117.55 22.6561 116.951 22.6527 116.353 22.6594C116.153 22.6628 115.952 22.6594 115.723 22.6594V28.1433C116.527 28.2814 117.34 28.4716 118.163 28.5524C122.28 28.9616 126.403 28.9313 130.523 28.6046C132.214 28.4699 133.099 29.4835 132.641 31.0881C132.414 31.8879 131.842 32.3256 131.057 32.3762C129.419 32.4822 127.775 32.5833 126.136 32.5597C124.159 32.5311 122.177 32.4334 120.209 32.2516C117.673 32.0192 115.141 31.6235 112.976 30.1587C111.972 29.4802 111.132 28.5609 110.218 27.7493C110.134 28.0456 110.016 28.4767 109.888 28.906C109.479 30.2749 108.913 31.5747 108.009 32.6893C107.791 32.957 107.376 33.1961 107.041 33.2113C106.372 33.2416 105.948 32.6136 106.212 31.9485C107.387 28.9852 107.273 25.8736 107.335 22.7807C107.35 22.0533 107.357 21.3243 107.392 20.5969C107.443 19.5597 108.073 19.0142 109.17 19.026C110.208 19.0378 110.873 19.6203 110.881 20.6171C110.89 21.661 110.884 22.7133 110.767 23.7488C110.669 24.5991 110.987 25.1783 111.644 25.7103V17.1015C110.475 17.1015 109.322 17.1049 108.169 17.0998C107.908 17.0998 107.645 17.0931 107.389 17.0527C106.662 16.9382 106.372 16.5795 106.413 15.8791C106.448 15.2595 106.825 14.9093 107.541 14.8975C108.586 14.879 109.633 14.8925 110.681 14.8925C110.881 14.8925 111.08 14.8925 111.31 14.8925C111.322 14.7224 111.337 14.6147 111.337 14.5069C111.339 13.7054 111.337 12.9023 111.337 12.0066C110.635 12.0066 109.97 12.0066 109.303 12.0066C108.967 12.0066 108.63 12.0184 108.295 11.9998C107.566 11.9611 107.211 11.6059 107.2 10.9273C107.189 10.2774 107.505 9.90867 108.238 9.86994C109.132 9.82112 110.031 9.85142 110.928 9.84637C111.038 9.84637 111.149 9.8329 111.341 9.81943C111.341 9.27559 111.334 8.74185 111.341 8.20812C111.368 6.58502 112.412 5.80209 113.988 6.2146C114.769 6.42001 115.218 6.90492 115.269 7.70974C115.311 8.39501 115.277 9.08533 115.277 9.84806C115.707 9.84806 116.055 9.84132 116.402 9.84806C116.998 9.86152 117.601 9.83964 118.19 9.91372C118.81 9.99285 119.029 10.3313 119.002 10.9745C118.976 11.5806 118.68 11.9409 118.096 11.9729C117.35 12.0133 116.601 12.0167 115.855 11.9982C115.459 11.9881 115.279 12.0807 115.297 12.5235C115.331 13.2845 115.308 14.0489 115.308 14.8925C116.299 14.8925 117.244 14.8958 118.19 14.8925C118.774 14.8891 119.261 15.0373 119.49 15.7192L119.492 15.7209Z" fill="#EF8119"/>
<path d="M150.043 16.364C149.805 17.4568 149.637 18.4603 149.369 19.4351C147.595 25.9006 143.69 30.5392 137.496 33.1927C136.819 33.4823 136.341 33.3628 136.029 32.8459C135.687 32.2785 135.817 31.6437 136.354 31.206C137.625 30.1688 138.969 29.2074 140.149 28.0743C143.045 25.2928 144.731 21.8176 145.665 17.9467C146.291 15.3538 146.492 12.7171 146.525 10.0619C146.532 9.51973 146.525 8.97757 146.525 8.4371C146.522 6.44022 148.005 5.44514 149.881 6.18429C150.543 6.44527 150.967 6.91671 151.051 7.62723C151.117 8.18118 151.162 8.74522 151.14 9.30253C150.945 14.2863 152.669 18.664 155.356 22.7369C156.848 24.9981 158.663 26.9681 160.79 28.6518C161.972 29.5879 162.285 30.4129 161.931 31.4871C161.307 33.3881 159.301 33.8915 157.84 32.5344C155.489 30.354 153.752 27.7527 152.474 24.8264C151.326 22.1981 150.47 19.4907 150.134 16.6317C150.127 16.5694 150.093 16.5122 150.043 16.364Z" fill="#EF8119"/>
<path d="M59.7415 16.5796V12.2339C59.1438 12.2339 58.5579 12.244 57.9719 12.2305C57.189 12.212 56.7428 11.6665 56.8674 10.9038C56.9566 10.3532 57.2732 10.0619 57.8659 10.0417C58.4754 10.0198 59.0882 10.0366 59.7583 10.0366C59.7583 9.26887 59.7583 8.5836 59.7583 7.89664C59.7583 6.27859 60.4874 5.63205 62.1021 5.81894C63.0955 5.93343 63.5938 6.47727 63.6107 7.48918C63.6225 8.17951 63.6309 8.87151 63.6056 9.56184C63.5922 9.9373 63.737 10.0518 64.0956 10.0383C64.6512 10.0164 65.2085 10.0333 65.8483 10.0333C65.8483 9.35137 65.8399 8.72335 65.8517 8.097C65.8584 7.74342 65.8248 7.36122 65.9477 7.04637C66.0891 6.68774 66.3147 6.26681 66.6279 6.09002C67.3788 5.66404 68.2123 5.69266 68.9986 6.05634C69.4717 6.27523 69.7276 6.69952 69.7478 7.22316C69.7764 7.96904 69.7916 8.71661 69.7731 9.4625C69.763 9.88343 69.864 10.0821 70.3321 10.0434C70.8136 10.003 71.3036 10.0198 71.7885 10.0417C72.4822 10.072 72.8172 10.4643 72.7953 11.1782C72.7735 11.8567 72.4317 12.1952 71.7397 12.2053C71.1251 12.2137 70.5089 12.207 69.8387 12.207V16.5796C70.6739 16.5796 71.5073 16.5678 72.3407 16.5829C73.2819 16.5998 73.7349 17.1823 73.4335 18.0595C73.3426 18.3222 73.026 18.568 72.7549 18.6876C72.4805 18.8088 72.1336 18.7886 71.8188 18.7886C67.1482 18.7936 62.4775 18.792 57.8086 18.7886C57.5864 18.7886 57.3607 18.7751 57.1402 18.7414C56.3758 18.6253 56.1114 18.3121 56.1501 17.5948C56.1872 16.918 56.534 16.5964 57.2917 16.5829C58.0915 16.5678 58.8912 16.5796 59.7449 16.5796H59.7415ZM63.6578 12.2305V16.5492H65.882V12.2305H63.6578Z" fill="#EF8119"/>
<path d="M67.372 31.3912H61.8528C61.8376 31.5882 61.8259 31.7852 61.8073 31.9805C61.7383 32.7196 61.3948 33.1793 60.6742 33.3157C60.2078 33.4032 59.701 33.4184 59.2346 33.3376C58.386 33.1928 57.9685 32.6102 57.9668 31.6875C57.9617 28.7562 57.9651 25.8248 57.9668 22.8952C57.9668 22.4658 57.955 22.0348 57.9819 21.6071C58.0358 20.7737 58.5662 20.2012 59.4013 20.1591C60.3694 20.1103 61.3409 20.1288 62.3124 20.1271C64.6461 20.1238 66.9797 20.1238 69.3133 20.1271C70.758 20.1288 71.3102 20.6828 71.3119 22.1223C71.3136 25.1833 71.3119 28.246 71.3119 31.307C71.3119 32.7398 70.8 33.3594 69.5827 33.3982C68.0758 33.4453 67.4848 32.9234 67.3754 31.3912H67.372ZM61.8191 26.6717C61.8191 27.3705 61.8376 28.0372 61.8124 28.704C61.7972 29.0946 61.9286 29.2242 62.3225 29.2175C63.4793 29.1956 64.6377 29.2108 65.7944 29.2108C66.3113 29.2108 66.8298 29.2108 67.3518 29.2108V26.6734H61.8208L61.8191 26.6717ZM67.3973 24.4964C67.3973 23.8768 67.3888 23.338 67.4006 22.7992C67.409 22.4153 67.2188 22.2638 66.8551 22.2638C65.365 22.2671 63.8749 22.2688 62.3848 22.2638C62.0111 22.2621 61.8309 22.4355 61.8259 22.7975C61.8191 23.2437 61.8006 23.6932 61.8376 24.1377C61.8477 24.264 62.0279 24.4812 62.1323 24.4812C63.8615 24.5031 65.5906 24.4964 67.3989 24.4964H67.3973Z" fill="#EF8119"/>
<path d="M55.0303 10.8448C55.687 10.567 56.0894 10.8617 56.3739 11.3516C56.9531 12.3484 57.5542 13.3384 58.0593 14.3739C58.4533 15.1821 58.0997 15.8438 57.2511 16.1266C56.4581 16.391 55.9513 16.1367 55.7055 15.3319C55.591 14.9581 55.5135 14.5742 55.4192 14.1954C55.3317 13.8368 55.2458 13.4781 55.0303 13.1161C55.0303 13.298 55.0303 13.4798 55.0303 13.6617C55.0303 19.5075 55.0303 25.3534 55.0303 31.1992C55.0303 31.2548 55.0303 31.312 55.0303 31.3676C55.0219 33.122 53.9409 33.9033 52.2539 33.3628C51.646 33.1675 51.2891 32.7466 51.2403 32.0967C51.2201 31.8172 51.21 31.5377 51.21 31.2582C51.21 23.5266 51.21 15.7933 51.21 8.06163C51.21 7.98755 51.21 7.91178 51.21 7.8377C51.2167 6.09337 52.6041 5.22963 54.18 6.04118C54.5117 6.21123 54.7592 6.64058 54.9259 7.00426C55.0572 7.29218 55.0236 7.66259 55.0269 7.99765C55.0387 8.92875 55.0303 9.85984 55.0303 10.8448Z" fill="#EF8119"/>
<path d="M125.223 27.5641C123.879 27.5641 122.536 27.5793 121.192 27.5607C119.975 27.5439 119.407 26.9883 119.394 25.7693C119.372 23.9593 119.374 22.1493 119.394 20.3376C119.407 19.1119 119.931 18.5377 121.167 18.5192C123.891 18.4805 126.617 18.4805 129.341 18.5192C130.574 18.536 131.097 19.1085 131.112 20.3426C131.134 22.1526 131.138 23.9643 131.112 25.7743C131.096 26.9967 130.535 27.5405 129.311 27.559C127.949 27.5793 126.587 27.5641 125.224 27.5641H125.223ZM123.116 22.9642C123.116 23.5973 123.13 24.232 123.111 24.8651C123.1 25.2945 123.275 25.4696 123.706 25.4628C124.731 25.4477 125.756 25.446 126.78 25.4628C127.198 25.4696 127.398 25.3281 127.393 24.8836C127.38 23.6528 127.383 22.4237 127.393 21.1929C127.396 20.7973 127.233 20.612 126.827 20.6154C125.783 20.6238 124.74 20.6272 123.696 20.6154C123.254 20.6104 123.101 20.8175 123.111 21.2333C123.127 21.8108 123.115 22.3884 123.115 22.9659L123.116 22.9642Z" fill="#EF8119"/>
<path d="M50.8769 13.8418C50.7018 15.4531 50.5368 17.0645 50.3499 18.6741C50.2842 19.2381 50.0603 19.7466 49.4659 19.92C48.8312 20.1052 48.2048 19.9588 47.762 19.4873C47.5297 19.2398 47.4758 18.8054 47.3916 18.4434C47.3579 18.2969 47.4404 18.1134 47.501 17.9585C48.2873 15.9835 48.6561 13.9142 48.885 11.813C48.9356 11.3567 49.0871 10.9694 49.6006 10.8667C50.1866 10.7489 50.6142 11.0654 50.6732 11.7035C50.7388 12.409 50.759 13.1178 50.7994 13.8267C50.8247 13.8317 50.8516 13.8351 50.8769 13.8401V13.8418Z" fill="#EF8119"/>
<path d="M28.4952 8.85805C26.7879 8.12732 25.3349 8.34284 25.3349 8.34284C25.0487 8.3782 23.6074 8.64085 22.9423 8.76713C22.2672 8.8951 21.0852 9.09546 20.7737 9.15776C20.7552 9.16112 20.7451 9.16281 20.74 9.16449C19.9184 9.32949 19.6658 9.02137 17.743 8.66779C17.1369 8.55667 16.2395 8.41692 15.1198 8.34284C15.1198 8.34284 13.4529 8.21488 11.5672 9.08367C10.4559 9.59552 2.91624 14.0641 3.39273 20.5127C3.70927 24.7793 7.32252 27.9514 10.1158 30.3944C11.946 31.9957 13.4428 32.6759 15.177 34.7788C15.4717 35.1358 16.0644 35.8867 17.1116 36.4878C18.2549 37.1428 19.4049 37.3128 20.2231 37.3499C20.2231 37.3499 20.2248 37.3499 20.2265 37.3499C20.2282 37.3499 20.2282 37.3499 20.2299 37.3499C20.9808 37.3381 22.0601 37.2169 23.1579 36.641C24.291 36.0467 24.9291 35.2385 25.2625 34.8344C26.99 32.7415 28.0524 32.4166 30.1385 30.4264C34.0633 26.6835 36.7623 24.1108 37.062 20.5127C37.6142 13.8705 29.5273 9.29919 28.4952 8.85805Z" fill="#F6D578"/>
<path d="M29.4381 9.83123C29.2091 9.75042 28.4228 9.45745 28.4969 9.62077C29.0609 10.8617 29.1081 11.6631 29.0778 12.047C29.0474 12.4309 28.9885 12.9006 28.6905 13.4596C28.512 13.7913 27.948 14.1129 27.5456 13.8183C26.0774 12.7407 23.5653 11.2557 19.3897 10.8128C15.7326 10.4256 13.4579 10.9071 12.0049 11.3988C10.0821 12.0487 8.91191 12.9528 8.12393 13.8435C7.62555 14.4059 6.92176 15.2225 6.73992 16.4802C6.44527 18.5209 7.76699 20.0598 7.95556 20.2719C8.90181 21.3377 10.4946 22.3109 11.6277 22.5685C16.2327 23.6192 18.1067 23.5013 22.7032 23.8919C24.2421 24.0233 25.84 24.2068 26.4764 25.3231C26.5673 25.4814 26.9798 26.2138 26.6482 27.0354C26.6482 27.0354 26.0184 29.6839 18.6 29.8253C18.5933 29.8253 18.5832 29.8253 18.5731 29.8253C18.3272 29.8169 18.0966 29.7125 17.9198 29.5374C17.6672 29.2866 17.28 28.8976 16.891 28.4918C16.7227 28.3167 16.1384 27.7443 15.2629 27.5119C15.2629 27.5119 13.8149 27.1263 12.3703 28.0339C12.1783 28.1551 11.7439 28.4481 11.3684 29.0071C11.2304 29.2125 11.126 29.4162 11.0469 29.6065C10.86 30.056 10.9947 30.5729 11.3718 30.881C11.4964 30.9821 11.6395 31.0544 11.7944 31.0949C12.5538 31.2885 14.0119 31.6 14.0456 31.6017C15.1518 31.6909 23.5501 32.3038 27.1381 30.5527C27.1499 30.546 27.16 30.5426 27.16 30.5426C27.5641 30.3187 28.1231 29.9786 28.7393 29.4903C29.3168 29.034 30.2378 28.3066 30.8473 27.3217C31.6841 25.9713 32.1943 24.3011 31.541 22.5921C30.7935 20.6373 29.0895 19.9184 27.7358 19.3173C24.0788 17.6925 18.4165 18.3188 15.0659 17.3221C14.3823 17.1183 13.1784 16.62 12.8215 15.832C12.6279 15.4026 12.7946 14.9312 12.835 14.8201C13.4192 13.1869 17.349 12.8114 21.0431 13.33C23.471 13.6718 26.6684 15.2309 27.8402 16.5072C27.9581 16.6351 28.3437 16.8809 28.8269 16.8759C29.2428 16.8708 30.6756 15.8 30.8372 15.6502C32.0259 14.549 32.462 13.7964 32.6152 12.5471C32.7466 11.4796 31.7212 11.0923 31.4787 10.9358C31.0561 10.6613 29.6873 9.92216 29.4381 9.83292V9.83123Z" fill="#EF8119"/>
<path d="M28.4952 8.85805C26.7879 8.12732 25.3349 8.34284 25.3349 8.34284C25.0487 8.3782 23.6074 8.64085 22.9423 8.76713C22.2672 8.8951 21.0852 9.09546 20.7737 9.15776C20.7552 9.16112 20.7451 9.16281 20.74 9.16449C19.9184 9.32949 19.6658 9.02137 17.743 8.66779C17.1369 8.55667 16.2395 8.41692 15.1198 8.34284C15.1198 8.34284 13.4529 8.21488 11.5672 9.08367C10.4559 9.59552 2.91624 14.0641 3.39273 20.5127C3.70927 24.7793 7.32252 27.9514 10.1158 30.3944C11.946 31.9957 13.4428 32.6759 15.177 34.7788C15.4717 35.1358 16.0644 35.8867 17.1116 36.4878C18.2549 37.1428 19.4049 37.3128 20.2231 37.3499C20.2231 37.3499 20.2248 37.3499 20.2265 37.3499C20.2282 37.3499 20.2282 37.3499 20.2299 37.3499C20.9808 37.3381 22.0601 37.2169 23.1579 36.641C24.291 36.0467 24.9291 35.2385 25.2625 34.8344C26.99 32.7415 28.0524 32.4166 30.1385 30.4264C34.0633 26.6835 36.7623 24.1108 37.062 20.5127C37.6142 13.8705 29.5273 9.29919 28.4952 8.85805V8.85805Z" stroke="#E57D21" stroke-width="2.1686" stroke-miterlimit="10"/>
<path d="M19.5495 8.85132C18.0291 6.74331 17.6082 4.52417 17.9803 2.8674C18.083 2.41111 18.8002 1.74941 20.3863 1.74268C21.4672 1.73763 22.4825 2.14508 23.4237 2.96505C23.7992 3.29169 21.9622 4.82892 21.836 5.27848C21.5767 6.19778 21.1793 9.02979 21.3157 8.91698C21.3443 8.91698 21.3612 8.92035 21.3645 8.92877C21.3881 8.98938 20.6473 9.45914 20.0681 9.27056C19.7936 9.18133 19.632 8.96918 19.5495 8.853V8.85132Z" fill="#EF8119"/>
</svg>
