<svg width="167" height="41" viewBox="0 0 167 41" fill="none" xmlns="http://www.w3.org/2000/svg">
<path d="M79.9887 16.0624C78.6524 16.4927 77.3684 16.9381 76.0625 17.3144C75.2256 17.5557 74.5136 16.847 74.7953 16.0321C74.9117 15.6963 75.2964 15.3994 75.6288 15.2036C76.9618 14.4157 78.3656 13.7374 79.6664 12.8988C82.2091 11.2622 84.3604 9.19532 86.0915 6.70493C86.3058 6.39785 86.5201 6.09077 86.7546 5.79887C87.961 4.30228 90.0751 5.16953 90.5712 6.27299C90.7247 6.61719 90.75 7.09975 90.6386 7.45913C90.5121 7.86914 90.6572 8.02436 90.9289 8.23527C93.5002 10.2279 96.3635 11.6486 99.4647 12.6053C99.8392 12.72 100.217 12.8297 100.585 12.963C101.66 13.3544 102.088 14.2335 101.759 15.3386C101.395 16.5585 100.6 17.0815 99.4444 16.7593C98.6615 16.5416 97.9141 16.1957 97.0907 15.8853V22.798C97.5361 22.9869 98.0288 23.1185 98.4338 23.3834C99.296 23.9436 99.4411 24.9138 98.7122 25.6292C98.1064 26.2248 97.359 26.6753 96.6723 27.1865C96.5558 27.2726 96.4259 27.3384 96.2386 27.4514C97.3219 27.993 98.3528 28.4958 99.3719 29.0206C99.9928 29.3394 100.593 29.6971 100.82 30.4244C101.042 31.1448 100.679 32.1656 100.035 32.6836C99.4326 33.1661 98.5468 33.2235 97.7707 32.7528C97.0198 32.2972 96.3298 31.7421 95.5772 31.2899C92.8709 29.66 90.1527 28.0504 87.4346 26.4424C86.79 26.0611 86.5892 25.7456 86.7259 25.2057C86.8845 24.573 87.254 24.2996 87.885 24.4903C89.5993 25.01 91.3068 25.5516 92.9974 26.1438C93.4699 26.3091 93.7702 26.3294 94.0941 25.9076C94.548 25.317 95.0576 24.7704 95.6228 24.114H84.1225V28.6983C85.0656 28.5903 85.9717 28.4823 86.8778 28.3811C87.5105 28.3102 88.1415 28.2191 88.7742 28.1871C89.4474 28.155 89.7781 28.4081 89.8996 28.9564C90.0295 29.5369 89.8186 29.9047 89.1809 30.1713C85.9228 31.5312 82.5331 32.4119 79.0472 32.9282C78.8447 32.9586 78.6372 32.9637 78.4314 32.9637C77.2975 32.9637 76.6311 32.4069 76.5433 31.3979C76.432 30.119 76.8605 29.5048 78.0821 29.2888C78.7013 29.1792 79.3357 29.1488 79.9904 29.0779V16.0624H79.9887ZM84.1107 21.8852C84.357 21.8852 84.5747 21.8852 84.7923 21.8852C87.1106 21.8852 89.4289 21.8852 91.7472 21.8852C92.6605 21.8852 93.0942 21.4319 93.048 20.5252C93.0447 20.4746 93.0143 20.424 92.9941 20.3683H84.1107V21.8835V21.8852ZM93.0548 18.1057C93.0548 17.7514 93.0497 17.4561 93.0548 17.1608C93.0615 16.8133 92.9013 16.6429 92.5503 16.6445C89.8979 16.6462 87.2456 16.6378 84.5932 16.6631C84.4245 16.6631 84.1512 16.8943 84.1123 17.0596C84.0364 17.3869 84.0904 17.7446 84.0904 18.1057H93.0548ZM90.5779 14.3887H94.3979C92.6971 12.8398 90.9525 11.2521 89.2737 9.72174C88.9565 10.0103 88.5481 10.3815 88.1483 10.7442C88.8113 11.2605 89.4795 11.7431 90.1004 12.2762C90.7314 12.8195 91.052 13.4826 90.5779 14.387V14.3887ZM83.2468 14.3634H87.6995C87.1646 13.6514 86.6871 13.0169 86.2164 12.3927C85.2124 13.0591 84.2659 13.6868 83.2468 14.3634V14.3634Z" fill="#F6D578"/>
<path d="M117.743 15.2222C119.398 13.4236 119.968 11.3162 120.161 8.96922C119.494 8.96922 118.863 8.98272 118.234 8.96584C117.277 8.94222 116.791 8.47317 116.911 7.70547C116.98 7.25666 117.218 6.94451 117.68 6.85509C117.9 6.81291 118.124 6.77916 118.347 6.77916C121.475 6.7741 124.602 6.7741 127.73 6.77916C129.253 6.77916 129.847 7.37645 129.78 8.90679C129.7 10.6818 129.599 12.4551 129.461 14.225C129.301 16.275 127.952 17.4139 125.821 17.1575C124.843 17.0394 123.896 16.6057 122.958 16.2531C122.722 16.1637 122.491 15.8566 122.408 15.6018C122.212 14.9978 122.629 14.4832 123.279 14.4849C123.765 14.4849 124.249 14.5777 124.733 14.5709C125.538 14.5608 125.82 14.3128 125.886 13.5113C125.99 12.2071 126.037 10.8978 126.135 9.5935C126.172 9.08564 125.973 8.92535 125.489 8.96416C125.006 9.00296 124.387 8.81568 124.07 9.05189C123.768 9.27799 123.775 9.92083 123.653 10.3815C122.794 13.6598 120.944 16.167 117.933 17.7851C117.535 17.9994 117.147 18.2576 116.682 17.9572C116.31 17.7176 116.18 17.2924 116.278 16.6344H113.987V20.0849C114.706 20.0849 115.413 20.0781 116.12 20.0849C116.973 20.095 117.313 20.4814 117.22 21.3199C117.164 21.8126 116.904 22.1214 116.395 22.145C115.797 22.172 115.197 22.1686 114.598 22.1754C114.397 22.1787 114.196 22.1754 113.967 22.1754V27.6707C114.772 27.8091 115.587 27.9998 116.412 28.0808C120.537 28.4908 124.669 28.4604 128.798 28.1331C130.492 27.9981 131.379 29.0138 130.92 30.6218C130.693 31.4232 130.119 31.8619 129.333 31.9125C127.691 32.0188 126.044 32.12 124.401 32.0964C122.42 32.0677 120.434 31.9699 118.462 31.7877C115.921 31.5548 113.383 31.1583 111.213 29.6904C110.208 29.0104 109.366 28.0892 108.449 27.2759C108.365 27.5729 108.247 28.0048 108.119 28.4351C107.709 29.8068 107.142 31.1094 106.236 32.2263C106.018 32.4946 105.601 32.7342 105.266 32.7494C104.596 32.7798 104.171 32.1504 104.435 31.4839C105.613 28.5144 105.498 25.3963 105.561 22.2968C105.576 21.568 105.583 20.8374 105.618 20.1085C105.669 19.0691 106.3 18.5225 107.4 18.5343C108.439 18.5461 109.106 19.1299 109.114 20.1287C109.123 21.1748 109.118 22.2294 108.999 23.267C108.902 24.1191 109.221 24.6995 109.879 25.2327V16.6057C108.708 16.6057 107.552 16.6091 106.396 16.604C106.135 16.604 105.871 16.5973 105.615 16.5568C104.886 16.4421 104.596 16.0827 104.636 15.3808C104.672 14.7599 105.05 14.4089 105.767 14.3971C106.814 14.3786 107.864 14.3921 108.913 14.3921C109.114 14.3921 109.313 14.3921 109.544 14.3921C109.556 14.2216 109.571 14.1137 109.571 14.0057C109.573 13.2025 109.571 12.3977 109.571 11.5001C108.868 11.5001 108.201 11.5001 107.533 11.5001C107.196 11.5001 106.858 11.5119 106.523 11.4934C105.792 11.4545 105.436 11.0985 105.426 10.4186C105.414 9.76729 105.731 9.39778 106.465 9.35897C107.361 9.31004 108.262 9.34042 109.161 9.33535C109.271 9.33535 109.382 9.32186 109.575 9.30836C109.575 8.76337 109.568 8.22851 109.575 7.69365C109.602 6.06714 110.648 5.28257 112.227 5.69594C113.01 5.90179 113.461 6.38772 113.511 7.19423C113.553 7.88094 113.52 8.57271 113.52 9.33704C113.95 9.33704 114.299 9.33029 114.647 9.33704C115.244 9.35054 115.848 9.3286 116.439 9.40284C117.06 9.48214 117.279 9.82128 117.252 10.4658C117.227 11.0732 116.93 11.4343 116.344 11.4664C115.597 11.5069 114.846 11.5102 114.098 11.4917C113.702 11.4815 113.521 11.5743 113.54 12.0181C113.574 12.7807 113.55 13.5467 113.55 14.3921C114.544 14.3921 115.49 14.3954 116.439 14.3921C117.024 14.3887 117.512 14.5372 117.741 15.2205L117.743 15.2222Z" fill="#F6D578"/>
<path d="M148.358 15.8667C148.12 16.9618 147.951 17.9674 147.683 18.9443C145.905 25.4233 141.992 30.0717 135.785 32.7308C135.106 33.021 134.627 32.9012 134.315 32.3833C133.972 31.8147 134.102 31.1786 134.641 30.7399C135.914 29.7005 137.261 28.7371 138.444 27.6016C141.346 24.8142 143.035 21.3317 143.971 17.4527C144.599 14.8544 144.8 12.2121 144.833 9.55133C144.84 9.00804 144.833 8.46474 144.833 7.92313C144.83 5.92205 146.316 4.92488 148.196 5.66559C148.859 5.92711 149.284 6.39954 149.369 7.11156C149.434 7.66667 149.48 8.2319 149.458 8.79038C149.262 13.7847 150.99 18.1715 153.683 22.253C155.178 24.519 156.997 26.4931 159.128 28.1803C160.312 29.1184 160.626 29.9452 160.272 31.0216C159.646 32.9266 157.636 33.431 156.172 32.0711C153.816 29.8861 152.075 27.2793 150.794 24.3469C149.644 21.7131 148.786 19 148.449 16.135C148.442 16.0726 148.409 16.0152 148.358 15.8667V15.8667Z" fill="#F6D578"/>
<path d="M57.8672 16.0827V11.7279C57.2683 11.7279 56.6811 11.738 56.0939 11.7245C55.3094 11.706 54.8622 11.1593 54.9871 10.395C55.0765 9.84324 55.3937 9.55134 55.9876 9.53109C56.5984 9.50916 57.2126 9.52603 57.8841 9.52603C57.8841 8.75664 57.8841 8.06993 57.8841 7.38153C57.8841 5.76008 58.6147 5.11217 60.2328 5.29946C61.2282 5.41419 61.7277 5.95917 61.7445 6.97321C61.7564 7.66499 61.7648 8.35845 61.7395 9.05023C61.726 9.42648 61.8711 9.54122 62.2305 9.52772C62.7873 9.50578 63.3457 9.52266 63.9869 9.52266C63.9869 8.83932 63.9785 8.20997 63.9903 7.58231C63.997 7.22799 63.9633 6.84498 64.0865 6.52947C64.2282 6.17008 64.4543 5.74827 64.7681 5.57111C65.5206 5.14423 66.3558 5.17291 67.1438 5.53736C67.6179 5.7567 67.8743 6.18189 67.8946 6.70663C67.9233 7.45408 67.9385 8.20322 67.9199 8.95068C67.9098 9.37249 68.011 9.57159 68.4801 9.53278C68.9626 9.49229 69.4536 9.50916 69.9395 9.53109C70.6347 9.56146 70.9705 9.95459 70.9485 10.67C70.9266 11.35 70.5841 11.6891 69.8906 11.6992C69.2748 11.7077 68.6572 11.7009 67.9857 11.7009V16.0827C68.8226 16.0827 69.6578 16.0709 70.493 16.0861C71.4361 16.1029 71.89 16.6867 71.588 17.5658C71.4969 17.829 71.1797 18.0753 70.908 18.1951C70.633 18.3166 70.2854 18.2964 69.9699 18.2964C65.2895 18.3014 60.609 18.2998 55.9303 18.2964C55.7075 18.2964 55.4815 18.2829 55.2604 18.2491C54.4944 18.1327 54.2295 17.8189 54.2683 17.1001C54.3054 16.4218 54.653 16.0996 55.4123 16.0861C56.2137 16.0709 57.0152 16.0827 57.8706 16.0827H57.8672ZM61.7918 11.7245V16.0523H64.0207V11.7245H61.7918V11.7245Z" fill="#F6D578"/>
<path d="M65.5136 30.9255H59.9828C59.9676 31.1229 59.9558 31.3203 59.9372 31.516C59.8681 32.2567 59.5239 32.7173 58.8017 32.854C58.3343 32.9417 57.8265 32.9569 57.3591 32.8759C56.5087 32.7308 56.0903 32.147 56.0886 31.2224C56.0835 28.2849 56.0869 25.3474 56.0886 22.4116C56.0886 21.9813 56.0768 21.5494 56.1038 21.1208C56.1578 20.2856 56.6893 19.712 57.5261 19.6698C58.4963 19.6209 59.4699 19.6394 60.4434 19.6377C62.7819 19.6344 65.1205 19.6344 67.459 19.6377C68.9067 19.6394 69.4601 20.1945 69.4618 21.6371C69.4635 24.7046 69.4618 27.7737 69.4618 30.8411C69.4618 32.277 68.9489 32.8979 67.729 32.9367C66.2189 32.9839 65.6267 32.4609 65.517 30.9255H65.5136ZM59.9491 26.1961C59.9491 26.8963 59.9676 27.5645 59.9423 28.2326C59.9271 28.6241 60.0587 28.754 60.4535 28.7472C61.6127 28.7253 62.7735 28.7405 63.9327 28.7405C64.4506 28.7405 64.9703 28.7405 65.4934 28.7405V26.1978H59.9507L59.9491 26.1961ZM65.5389 24.0162C65.5389 23.3953 65.5305 22.8553 65.5423 22.3154C65.5507 21.9307 65.3601 21.7789 64.9956 21.7789C63.5024 21.7822 62.0092 21.7839 60.516 21.7789C60.1414 21.7772 59.9609 21.951 59.9558 22.3137C59.9491 22.7608 59.9305 23.2113 59.9676 23.6568C59.9777 23.7833 60.1583 24.001 60.2629 24.001C61.9957 24.0229 63.7285 24.0162 65.5406 24.0162H65.5389Z" fill="#F6D578"/>
<path d="M53.146 10.3359C53.804 10.0575 54.2073 10.3528 54.4924 10.8438C55.0729 11.8426 55.6752 12.8347 56.1814 13.8724C56.5762 14.6823 56.2219 15.3454 55.3715 15.6288C54.5768 15.8937 54.0689 15.6389 53.8226 14.8324C53.7079 14.4579 53.6302 14.0732 53.5358 13.6935C53.448 13.3341 53.362 12.9748 53.146 12.612C53.146 12.7942 53.146 12.9764 53.146 13.1587C53.146 19.0168 53.146 24.875 53.146 30.7331C53.146 30.7888 53.146 30.8462 53.146 30.9018C53.1376 32.66 52.0544 33.4428 50.3637 32.9012C49.7546 32.7055 49.3969 32.2837 49.348 31.6324C49.3277 31.3523 49.3176 31.0723 49.3176 30.7922C49.3176 23.0443 49.3176 15.2947 49.3176 7.54686C49.3176 7.47262 49.3176 7.39669 49.3176 7.32246C49.3244 5.57446 50.7147 4.7089 52.2939 5.52215C52.6263 5.69257 52.8744 6.12282 53.0414 6.48726C53.173 6.77578 53.1393 7.14698 53.1426 7.48274C53.1544 8.4158 53.146 9.34885 53.146 10.3359Z" fill="#F6D578"/>
<path d="M123.486 27.0903C122.14 27.0903 120.793 27.1055 119.447 27.087C118.227 27.0701 117.658 26.5133 117.645 25.2917C117.623 23.4779 117.624 21.6641 117.645 19.8486C117.658 18.6203 118.183 18.045 119.421 18.0264C122.151 17.9876 124.883 17.9876 127.613 18.0264C128.848 18.0433 129.373 18.6169 129.388 19.8537C129.41 21.6675 129.413 23.483 129.388 25.2968C129.371 26.5217 128.809 27.0667 127.583 27.0853C126.218 27.1055 124.853 27.0903 123.488 27.0903H123.486ZM121.375 22.4808C121.375 23.1152 121.389 23.7513 121.37 24.3857C121.358 24.8159 121.534 24.9914 121.966 24.9846C122.993 24.9695 124.021 24.9678 125.047 24.9846C125.465 24.9914 125.666 24.8497 125.661 24.4042C125.647 23.1708 125.651 21.9391 125.661 20.7058C125.664 20.3093 125.501 20.1237 125.094 20.127C124.048 20.1355 123.002 20.1388 121.956 20.127C121.514 20.122 121.36 20.3295 121.37 20.7463C121.385 21.325 121.374 21.9037 121.374 22.4824L121.375 22.4808Z" fill="#F6D578"/>
<path d="M48.9838 13.3392C48.8084 14.9539 48.643 16.5686 48.4557 18.1816C48.3899 18.7469 48.1655 19.2564 47.5699 19.4302C46.9338 19.6158 46.3062 19.469 45.8624 18.9966C45.6296 18.7486 45.5756 18.3132 45.4912 17.9505C45.4575 17.8037 45.5402 17.6198 45.6009 17.4646C46.3888 15.4854 46.7583 13.4118 46.9878 11.3061C47.0384 10.8488 47.1903 10.4608 47.7049 10.3578C48.2921 10.2397 48.7206 10.5569 48.7797 11.1964C48.8455 11.9034 48.8657 12.6137 48.9062 13.324C48.9315 13.3291 48.9585 13.3325 48.9838 13.3375V13.3392Z" fill="#F6D578"/>
<path d="M26.5551 8.13039C24.8443 7.39813 23.3882 7.61409 23.3882 7.61409C23.1013 7.64953 21.657 7.91274 20.9906 8.03928C20.314 8.16751 19.1295 8.3683 18.8174 8.43073C18.7988 8.4341 18.7887 8.43579 18.7836 8.43747C17.9603 8.60283 17.7072 8.29406 15.7803 7.93973C15.1729 7.82838 14.2736 7.68833 13.1516 7.61409C13.1516 7.61409 11.4812 7.48586 9.59148 8.35649C8.47789 8.86941 0.922364 13.3474 1.39986 19.8096C1.71706 24.0851 5.33791 27.2639 8.13706 29.7121C9.97111 31.3166 11.4711 31.9983 13.209 34.1057C13.5042 34.4634 14.0981 35.2159 15.1476 35.8182C16.2933 36.4746 17.4456 36.645 18.2657 36.6821C18.2657 36.6821 18.2673 36.6821 18.269 36.6821C18.2707 36.6821 18.2707 36.6821 18.2724 36.6821C19.0249 36.6703 20.1064 36.5488 21.2065 35.9718C22.3421 35.3762 22.9815 34.5663 23.3156 34.1614C25.0467 32.0641 26.1114 31.7385 28.2019 29.7441C32.1349 25.9934 34.8396 23.4152 35.1399 19.8096C35.6933 13.1534 27.5894 8.57246 26.5551 8.13039V8.13039Z" fill="#EF8119"/>
<path d="M27.5 9.10564C27.2706 9.02465 26.4826 8.73107 26.5569 8.89473C27.1221 10.1382 27.1693 10.9414 27.139 11.3261C27.1086 11.7108 27.0496 12.1815 26.7509 12.7417C26.5721 13.0741 26.0068 13.3963 25.6036 13.1011C24.1323 12.0212 21.6149 10.5331 17.4305 10.0893C13.7658 9.70124 11.4863 10.1838 10.0302 10.6765C8.10337 11.3278 6.93073 12.2338 6.14109 13.1264C5.64167 13.6899 4.93639 14.5082 4.75417 15.7686C4.4589 17.8136 5.7834 19.3557 5.97237 19.5683C6.9206 20.6363 8.51675 21.6116 9.65227 21.8697C14.2669 22.9226 16.1448 22.8045 20.751 23.1959C22.2932 23.3275 23.8944 23.5114 24.5322 24.6301C24.6233 24.7887 25.0367 25.5226 24.7043 26.346C24.7043 26.346 24.0732 29.0001 16.6392 29.1418C16.6324 29.1418 16.6223 29.1418 16.6122 29.1418C16.3659 29.1333 16.1347 29.0287 15.9575 28.8533C15.7045 28.6019 15.3164 28.2121 14.9266 27.8055C14.7579 27.63 14.1724 27.0563 13.2951 26.8235C13.2951 26.8235 11.844 26.4371 10.3963 27.3465C10.204 27.468 9.76869 27.7616 9.39243 28.3218C9.25408 28.5276 9.14947 28.7318 9.07017 28.9224C8.88288 29.3729 9.01786 29.8909 9.39581 30.1997C9.52066 30.3009 9.66408 30.3735 9.81931 30.414C10.5803 30.608 12.0414 30.9202 12.0752 30.9218C13.1837 31.0113 21.5997 31.6254 25.1953 29.8707C25.2071 29.8639 25.2172 29.8606 25.2172 29.8606C25.6221 29.6362 26.1823 29.2953 26.7998 28.806C27.3786 28.3488 28.3015 27.6199 28.9123 26.6328C29.7508 25.2797 30.2621 23.6059 29.6074 21.8933C28.8583 19.9344 27.1508 19.214 25.7942 18.6116C22.1295 16.9834 16.4553 17.6111 13.0976 16.6122C12.4126 16.4081 11.2062 15.9086 10.8485 15.119C10.6545 14.6888 10.8215 14.2163 10.862 14.105C11.4475 12.4683 15.3856 12.0921 19.0874 12.6118C21.5204 12.9543 24.7245 14.5167 25.8988 15.7956C26.017 15.9238 26.4033 16.1702 26.8876 16.1651C27.3043 16.16 28.7402 15.087 28.9022 14.9368C30.0934 13.8333 30.5304 13.0791 30.6839 11.8272C30.8155 10.7575 29.788 10.3694 29.545 10.2125C29.1215 9.93745 27.7498 9.19675 27.5 9.10732V9.10564Z" fill="#EFCF79"/>
<path d="M26.5551 8.13039C24.8443 7.39813 23.3882 7.61409 23.3882 7.61409C23.1013 7.64953 21.657 7.91274 20.9906 8.03928C20.314 8.16751 19.1295 8.3683 18.8174 8.43073C18.7988 8.4341 18.7887 8.43579 18.7836 8.43747C17.9603 8.60283 17.7072 8.29406 15.7803 7.93973C15.1729 7.82838 14.2736 7.68833 13.1516 7.61409C13.1516 7.61409 11.4812 7.48586 9.59148 8.35649C8.47789 8.86941 0.922364 13.3474 1.39986 19.8096C1.71706 24.0851 5.33791 27.2639 8.13706 29.7121C9.97111 31.3166 11.4711 31.9983 13.209 34.1057C13.5042 34.4634 14.0981 35.2159 15.1476 35.8182C16.2933 36.4746 17.4456 36.645 18.2657 36.6821C18.2657 36.6821 18.2673 36.6821 18.269 36.6821C18.2707 36.6821 18.2707 36.6821 18.2724 36.6821C19.0249 36.6703 20.1064 36.5488 21.2065 35.9718C22.3421 35.3762 22.9815 34.5663 23.3156 34.1614C25.0467 32.0641 26.1114 31.7385 28.2019 29.7441C32.1349 25.9934 34.8396 23.4152 35.1399 19.8096C35.6933 13.1534 27.5894 8.57246 26.5551 8.13039V8.13039Z" stroke="#EFCF79" stroke-width="2.1686" stroke-miterlimit="10"/>
<path d="M17.5907 8.12364C16.0671 6.0112 15.6452 3.7874 16.0181 2.12714C16.1211 1.66989 16.8398 1.0068 18.4292 1.00005C19.5124 0.994992 20.5298 1.40331 21.473 2.225C21.8493 2.55233 20.0085 4.09279 19.8819 4.54329C19.6221 5.46453 19.2239 8.30249 19.3606 8.18945C19.3893 8.18945 19.4061 8.19282 19.4095 8.20126C19.4331 8.262 18.6907 8.73274 18.1103 8.54377C17.8353 8.45435 17.6733 8.24175 17.5907 8.12533V8.12364Z" fill="#EFCF79"/>
</svg>
