<svg id="圖層_1" data-name="圖層 1" xmlns="http://www.w3.org/2000/svg" viewBox="0 0 372.09 383.04"><defs><style>.cls-1{fill:#ef8119;}</style></defs><path class="cls-1" d="M200.3.92c7.06,1.49,14.3,2.42,21.13,4.63,7.77,2.5,15.16,6.15,23.31,9.55-2.51,4-4.46,7.15-6.49,10.42-26.06-14.81-53-17.49-80.63-5.79-22.19,9.4-37.88,25.66-46.75,48.07C93.1,112.71,116,158.91,151,176.17V123.58c-1.62-.19-3.33-.36-5-.59-9.14-1.27-17.33-9.13-17.61-18.25-.46-14.94-.12-29.91-.12-45.14h11.18V76.4h11.86V59.55h11.55V76.47h11.72V59.62H186c.06,1.17.17,2.47.17,3.78q0,18.15,0,36.3,0,21.27-21.08,23.62c-.61.07-1.22.2-2,.33-.08,1-.21,2-.21,3,0,17.34-.06,34.68,0,52,0,1.28.87,3.39,1.81,3.7,18.76,6.23,37.51,5.91,56.25-.39V131c-15.73-5.37-22.47-14.6-23-31.19-.39-11.57,1.44-22.61,7.57-32.66a37.79,37.79,0,0,1,2.78-4c10.61-13.16,27.25-13.41,37.32.21,11.58,15.66,13.42,33.25,7,51.47-2.81,8-9,12.95-17.23,15.4-1.06.32-2.55,1.75-2.56,2.68-.14,14.1-.07,28.19,0,42.29,0,.21.19.42.29.63C284.54,152.24,299,73.44,247.27,31.81c2.33-2.86,4.66-5.72,7.19-8.81,20.61,17.26,32.43,38.9,36,65.4H348c3.06,12.09,6.05,23.91,9,35.73,4.94,19.7,10.45,39.27,14.6,59.13,3.18,15.2,1.64,30.08-9.22,42.65a7.76,7.76,0,0,0-1.45,4.7c-.09,20.71-.06,41.42-.06,62.13v4.34H349.29V262H244.69v63.72H349.22V309.29h11.47v63.07h17.36V384H6V372.69H23.18v-4.47q0-68.67-.09-137.35a9.61,9.61,0,0,0-2-5.62,43.92,43.92,0,0,1-9.74-25.77c-.56-9.23,1.28-18,3.56-26.88,6.94-27,13.6-54.12,20.38-81.18.21-.84.48-1.67.81-2.82h57c1.8-7.09,2.9-14,5.31-20.48C112.73,29.79,140.24,7.51,180.9,1.6c1-.15,1.93-.45,2.9-.68Zm32.16,371.43V262H151.59V372.35ZM35,262v63.74h104.4V262Zm314-12v-13.9c-21.57,7.77-38.82,2.19-52.22-15.83-16.79,25.41-52.54,26-69.76.12-17,25.73-53.07,25.41-70-.06-8.38,12.35-19.94,19.24-34.91,19.2s-26.41-7-34.8-19.38c-13.59,18.35-30.95,23.66-52.31,16V250Zm-57.27-150c3,27.34,6,54.26,8.91,81.07h58.6c-6.64-26.52-13.23-52.71-19.71-78.93-.56-2.28-2-2.15-3.61-2.15H291.69Zm-199.42.15H45.06L24.8,181.12H83.26C86.27,154.11,89.24,127.38,92.27,100.21ZM35,337.84v34.45H139.3V337.84ZM349,338H244.77v34.36H349ZM94,193.16c-3.65,15.72,7,31.31,23,34.35,15.62,3,31.46-7.9,33.81-23.38.56-3.67.25-7.47.62-11.18.26-2.59-.92-3.71-3.08-4.77a97.65,97.65,0,0,1-42.94-40.94c-1.81-3.22-3.34-6.58-5.4-10.68-1.71,15.38-3.32,29.9-5,44.89h27v11.71Zm266.73.21H302.26c-.05,12.7,3.15,23.7,14.69,30.43,10.13,5.9,20.58,5.8,30.48-.51C358.21,216.42,361.87,206.06,360.69,193.37Zm-127.54-.08c-1.84,12.81,3.61,24.55,14,30.63a29.15,29.15,0,0,0,32.66-2.13c8.95-6.91,12.92-18.2,9.92-28.5Zm-209.59,0c-2,12.75,3.37,24.44,13.8,30.61a29.21,29.21,0,0,0,32.69-2.08c8.73-6.79,13.27-19,10.56-28.53ZM244.63,98.63c-.53-11.18-2.15-20.07-7.75-27.7-5.76-7.84-14-8.16-19.51-.28-8.23,11.83-10.09,25-5.78,38.78,2.15,6.87,7.72,10.14,15.36,10.16s13-3.27,15.37-10.14C243.69,105.39,244.15,101,244.63,98.63ZM163,194.21c-.9,12.87,3.15,23.1,14.14,29.57,10.63,6.25,21.54,5.8,31.69-1.3,9.62-6.72,13-16.43,12.25-28.27A100.77,100.77,0,0,1,163,194.21ZM139.67,88.58c0,5-.23,9.59.06,14.16a9.37,9.37,0,0,0,9.37,8.9c5.36.18,10.73.16,16.09,0,4.47-.14,8.38-2.93,8.84-7.16.58-5.21.14-10.54.14-15.9Zm149.21,92.63c-1.62-14.7-3.19-29-4.77-43.23A109.55,109.55,0,0,1,248,181.21Z" transform="translate(-5.95 -0.92)"/><path class="cls-1" d="M197.51,303v22.67h-11V303Z" transform="translate(-5.95 -0.92)"/><path class="cls-1" d="M197.54,303v22.75H186.46V303Z" transform="translate(-5.95 -0.92)"/><path class="cls-1" d="M197.52,286.37h-11V275.1h11Z" transform="translate(-5.95 -0.92)"/><path class="cls-1" d="M186.56,275h10.88V286.3H186.56Z" transform="translate(-5.95 -0.92)"/><path class="cls-1" d="M197.53,275.15v11.17H186.47V275.15Z" transform="translate(-5.95 -0.92)"/></svg>