<svg width="495" height="80" viewBox="0 0 495 80" fill="none" xmlns="http://www.w3.org/2000/svg">
<g clip-path="url(#clip0_141_4107)">
<path d="M277.589 67.6882C281.948 67.1954 285.752 66.8101 289.538 66.3083C291.499 66.0484 293.414 65.8692 294.121 68.2348C294.864 70.7259 292.985 71.6757 291.168 72.1775C281.671 74.794 272.165 77.4194 262.587 79.7492C259.391 80.5287 256.921 78.4588 256.482 75.466C255.972 71.9893 257.44 70.0359 261.056 69.4266C262.659 69.1578 264.27 68.9069 266.087 68.6201V31.595C262.685 32.6793 259.463 33.9606 256.124 34.6506C254.782 34.9284 252.463 34.3549 251.819 33.3603C250.575 31.4517 252.007 29.9552 253.949 29.0502C266.704 23.1362 277.338 14.6775 285.135 2.81366C286.817 0.250939 289.315 -0.609276 292.143 0.412229C295.079 1.47854 297.111 3.30649 296.502 7.01617C296.359 7.90327 297.317 9.30112 298.158 9.9642C305.785 15.9409 314.512 19.7043 323.713 22.509C327.858 23.7724 329.129 26.1739 327.849 29.8746C326.73 33.1094 324.313 34.3638 320.965 33.3782C319.963 33.0825 319.005 32.6524 318.03 32.2581C317.081 31.8728 316.141 31.4517 314.861 30.9051V50.9319C315.129 51.0215 315.756 51.0395 316.123 51.362C317.627 52.6703 319.873 53.871 320.249 55.4839C320.563 56.8549 318.96 58.9875 317.707 60.3226C316.329 61.8101 314.395 62.7689 312.453 64.1398C315.828 65.8603 318.943 67.3477 321.968 69.0054C325.665 71.0395 326.488 73.7993 324.573 77.1147C322.729 80.3226 319.793 80.9051 316.204 78.7187C306.554 72.8316 296.887 66.9893 287.354 60.9319C286.37 60.3047 286.253 58.3244 285.725 56.9714C287.014 56.604 288.437 55.69 289.556 55.9678C293.486 56.9534 297.442 58.0735 301.148 59.6864C304.245 61.0395 306.348 60.6631 308.103 57.8137C308.703 56.837 309.499 55.9857 310.546 54.6506C309.231 54.4983 308.38 54.3101 307.539 54.3101C298.677 54.2922 289.816 54.3728 280.954 54.2474C278.43 54.2115 277.338 54.8567 277.526 57.5807C277.741 60.699 277.58 63.8531 277.58 67.6793L277.589 67.6882ZM277.947 43.7276C276.909 47.0968 277.804 48.423 281.286 48.2975C287.435 48.0825 293.602 48.1183 299.761 48.2975C303.216 48.3961 304.146 47.0341 303.09 43.7276H277.947ZM303.063 37.7151C304.084 34.095 303.072 32.7599 299.832 33.0377C297.639 33.2258 295.419 33.0735 293.217 33.0735C288.804 33.0735 284.383 32.9481 279.988 33.199C279.146 33.2438 278.189 34.7312 277.732 35.7527C277.598 36.0484 279.003 37.6165 279.719 37.6255C287.48 37.7689 295.24 37.7151 303.072 37.7151H303.063ZM289.118 16.2545C292.6 19.4714 297.648 20.8692 296.744 26.5861H307.002C302.061 22.052 297.308 17.6793 292.215 13.0018C291.302 13.9606 290.299 15.018 289.118 16.2545ZM283.89 20.9499C281.116 22.8137 278.573 24.5162 275.593 26.5144H288.115C286.495 24.3818 285.251 22.742 283.89 20.9499Z" fill="#F6D578"/>
<path d="M397.89 11.3979H391.929C390.005 16.0753 388.859 20.9319 386.218 24.7223C383.291 28.9068 379.272 32.5 375.2 35.6631C371.422 38.5932 370.178 37.7957 369.22 33.1542H362.811V42.9929C364.843 42.9929 366.875 42.6434 368.701 43.1094C369.954 43.4319 371.557 44.7043 371.87 45.8603C372.443 48.0018 370.778 48.9516 368.746 49.0054C366.893 49.0502 365.04 49.0144 362.632 49.0144C362.632 53.9696 362.516 58.7097 362.767 63.423C362.802 64.104 364.566 65.2061 365.568 65.242C377.769 65.7079 389.978 66.0126 402.178 66.3441C402.867 66.3621 403.565 66.1649 404.255 66.1201C408.775 65.8244 410.789 66.9714 411.21 70.0717C411.747 74.0502 409.831 76.7026 405.239 76.9086C397.676 77.2491 390.076 77.3119 382.522 76.8818C376.515 76.5413 370.518 75.5287 364.602 74.3728C357.62 73.0108 351.945 69.2653 347.505 63.0914C346.189 66.5771 345.169 69.7402 343.791 72.742C342.878 74.7312 341.615 76.6309 340.174 78.2796C339.646 78.8889 337.91 79.095 337.167 78.6828C336.424 78.2706 335.636 76.6219 335.914 75.914C339.852 65.5556 338.859 54.7133 339.172 44.0054C339.252 41.2097 340.291 39.2384 343.209 38.7366C346.422 38.19 348.749 39.9642 348.884 43.2796C349.009 46.4248 348.624 49.5968 348.785 52.733C348.866 54.337 349.662 55.9051 350.137 57.4911C350.513 57.3925 350.898 57.2939 351.274 57.1954V33.0018C347.523 33.0018 343.943 32.9391 340.362 33.0198C338.187 33.0646 336.531 32.4104 336.487 30.0448C336.433 27.4911 338.223 26.7474 340.488 26.7563C343.719 26.7742 346.95 26.7563 350.352 26.7563V18.3513C347.514 18.3513 344.865 18.2886 342.215 18.3692C340.094 18.4319 338.787 17.5986 338.751 15.4122C338.715 13.0556 340.273 12.5628 342.278 12.6076C344.82 12.6613 347.371 12.6255 350.074 12.6255C351.363 8.34234 348.508 1.36205 356.707 2.00721C363.519 2.54484 360.824 8.34234 361.961 12.6344C363.895 12.6344 365.944 12.6613 367.994 12.6344C370.08 12.6076 372.129 12.5448 372.049 15.5466C371.968 18.5126 369.865 18.3692 367.824 18.3603C365.971 18.3603 364.109 18.3603 361.916 18.3603V26.3352C365.935 26.7832 369.91 27.2312 375.03 27.7957C378.476 24.0144 380.194 18.1631 380.57 11.2456C378.538 11.2456 376.587 11.6398 374.913 11.1201C373.553 10.699 372.523 9.19359 371.351 8.16312C372.532 7.15058 373.687 5.27782 374.895 5.25094C384.222 5.009 393.549 5.07173 402.876 5.15237C406.107 5.17925 407.853 7.04305 407.719 10.2957C407.504 15.7796 407.343 21.2814 406.779 26.7384C406.224 32.1595 402.921 35 397.541 34.543C394.605 34.2922 391.67 33.2527 388.913 32.1237C388.017 31.7563 387.704 29.9732 387.122 28.8352C388.152 28.3155 389.136 27.5448 390.228 27.3298C391.455 27.0879 392.869 27.6703 394.033 27.3119C395.098 26.9893 396.628 26.0036 396.745 25.1434C397.335 20.681 397.541 16.1649 397.899 11.3889L397.89 11.3979Z" fill="#F6D578"/>
<path d="M111.637 27.6345C110.348 27.4911 109.355 27.3746 108.066 27.2312C108.066 36.819 108.066 46.156 108.066 55.4839C108.066 62.8047 107.475 63.4051 100.081 63.4409C98.9356 63.4409 97.7898 63.4409 96.4472 63.4409C96.3308 64.6506 96.1876 65.5466 96.1607 66.4337C96.0533 69.6954 93.9051 70.5556 91.2019 70.5377C88.436 70.5198 86.9591 69.1578 86.9681 66.1828C87.0128 48.2975 86.9681 30.4122 87.0128 12.5359C87.0218 9.05022 88.4181 7.69718 91.9269 7.59861C95.6595 7.50004 99.3921 7.59861 103.125 7.58069C106.472 7.58069 108.021 9.34592 108.057 12.5897C108.092 15.8065 108.057 19.0233 108.057 22.2402C108.37 22.3656 108.692 22.5 109.005 22.6255C110.724 20.2509 112.675 18.0018 114.108 15.457C115.88 12.3208 117.384 8.99646 118.69 5.63625C119.899 2.54485 121.286 0.107572 125.189 0.779615C129.011 1.43374 129.476 4.14879 129.038 8.27065C131.938 7.58069 134.516 7.28499 136.843 6.34413C139.537 5.2599 141.641 5.84234 143.53 7.69718C145.4 9.5341 145.275 11.6936 143.959 13.7814C142.67 15.8423 141.238 17.8137 139.457 20.4302C142.241 20.4302 144.604 20.4302 146.967 20.4302C152.069 20.4302 153.295 21.6578 153.313 26.8728C153.331 33.0646 153.313 39.2653 153.286 45.457C153.268 49.4176 152.006 50.9678 148.721 51.1291C145.454 51.2814 144.004 49.7581 143.726 45.8961C143.691 45.4391 143.628 44.9821 143.556 44.3459C137.112 46.9086 137.049 39.2653 134.015 38.2886C129.673 41.2635 125.815 43.871 122.002 46.5413C121.608 46.819 121.358 47.4463 121.233 47.957C120.4 51.5592 117.67 51.595 114.904 51.2097C112.102 50.8155 111.61 48.6649 111.619 46.2456C111.637 40.1703 111.619 34.104 111.619 27.6524L111.637 27.6345ZM96.1697 57.1416C99.1951 58.0646 99.768 56.8728 99.7591 54.6416C99.7053 41.9445 99.777 29.2474 99.6606 16.5502C99.6516 15.5287 98.5238 14.5162 97.9151 13.5036C97.3333 14.5431 96.2503 15.5735 96.2413 16.6129C96.116 26.8638 96.1697 37.1147 96.1697 47.3656C96.1697 50.6004 96.1697 53.8441 96.1697 57.1416ZM134.963 13.656C128.438 11.2545 124.777 12.9122 120.552 20.4212C122.79 20.4212 124.84 20.4212 126.899 20.4212C133.084 20.4212 133.603 19.9911 134.963 13.656ZM136.19 26.7294C136.073 28.7993 135.975 30.6183 135.867 32.5538C138.32 34.0592 140.799 35.5914 143.485 37.2402V26.7294H136.19ZM128.501 26.7742H121.617V40.3943C121.993 40.5018 122.369 40.6004 122.745 40.7079C124.607 36.2097 126.469 31.7026 128.501 26.7742Z" fill="#F6D578"/>
<path d="M461.049 31.9892C458.999 40.4211 456.502 48.6021 451.946 56.0484C445.716 66.2186 437.15 73.6828 426.283 78.4856C424.403 79.319 422.264 80.5107 420.841 77.7867C419.543 75.2957 421.118 73.8889 422.989 72.6434C440.184 61.1738 448.365 44.543 450.263 24.4265C450.782 18.9695 450.728 13.4588 450.889 7.9749C451.024 3.45877 452.706 1.57705 456.815 1.47848C461.505 1.37095 463.797 3.18995 463.609 7.81361C463 22.4731 467.028 35.7348 474.905 47.948C479.559 55.1702 485.208 61.4874 492.01 66.7652C495.027 69.1129 495.743 72.034 494.239 75.1254C492.852 77.9749 490.614 79.9641 487.302 79.2025C485.494 78.7903 483.641 77.6523 482.281 76.3351C472.121 66.5681 466.419 54.2831 462.911 40.8512C462.15 37.9301 461.666 34.9373 461.049 31.9803V31.9892Z" fill="#F6D578"/>
<path d="M24.9644 11.138C19.1462 11.138 13.8025 11.138 8.45871 11.138C5.80026 11.138 4.15327 10.0628 4.39495 7.16849C4.61872 4.48032 6.57004 4.26527 8.70934 4.27423C20.7216 4.30111 32.7339 4.28319 44.7461 4.28319C50.5732 4.28319 56.4093 4.25631 62.2364 4.28319C67.24 4.31007 69.2719 6.46957 68.7259 11.5233C68.1262 17.0968 67.4727 22.6792 66.4613 28.181C64.7337 37.6076 60.0703 40.9588 50.6717 39.2742C46.966 38.6111 43.3677 37.0162 39.9036 35.4481C38.9101 35 38.552 33.1273 37.8986 31.9176C39.098 31.3262 40.2975 30.233 41.4969 30.233C44.3881 30.233 47.2703 30.7527 50.1615 31.0126C52.3187 31.2008 53.912 30.2509 54.2789 28.1004C55.1293 23.1542 55.8722 18.19 56.4182 13.2079C56.4809 12.6076 55.1382 11.2724 54.4132 11.2456C49.526 11.0663 44.6208 11.0395 39.7246 11.2456C38.8743 11.2814 37.5853 12.5 37.3347 13.3961C32.9039 29.3549 22.3507 39.0681 6.81172 43.7545C5.81816 44.0502 4.69928 44.5162 3.76838 44.3101C2.69426 44.0771 1.18153 43.3513 0.930905 42.5269C0.671326 41.6667 1.39636 39.9821 2.2109 39.4086C4.59187 37.7509 7.30403 36.595 9.7566 35.0269C18.2959 29.552 23.1652 21.6667 24.9554 11.1291L24.9644 11.138Z" fill="#F6D578"/>
<path d="M22.4491 72.509C21.5988 78.7814 20.0682 80.3405 15.3868 80C12.2271 79.767 10.3026 78.1004 10.2668 74.9463C10.1504 65.7258 10.1415 56.5054 10.2668 47.285C10.3116 44.2653 12.066 42.7509 15.2704 42.7688C30.5229 42.8405 45.7844 42.7778 61.037 42.8136C64.7964 42.8136 66.1122 44.2025 66.148 48.2706C66.2106 56.7921 66.1927 65.3136 66.148 73.8351C66.1211 78.0645 64.2593 79.9552 60.303 80C56.284 80.0448 54.5922 78.3871 54.2521 74.0681C54.2163 73.6111 54.1178 73.1631 54.0194 72.5179H22.4491V72.509ZM54.2163 65.7258C54.2163 60.6541 54.3058 55.7885 54.1089 50.9319C54.082 50.3136 52.632 49.2473 51.8264 49.2384C42.7411 49.1129 33.6558 49.1129 24.5795 49.2384C23.7739 49.2473 22.3149 50.3226 22.297 50.9498C22.109 55.8065 22.1896 60.681 22.1896 65.7437H54.2163V65.7258Z" fill="#F6D578"/>
<path d="M203.322 12.8495C203.322 10.2868 203.278 8.20794 203.331 6.13804C203.421 2.53589 205.238 0.779622 208.773 0.815464C212.273 0.851307 213.884 2.3746 214.001 5.92299C214.072 8.10937 214.019 10.3047 214.019 12.6613H220.75C220.75 10.3943 220.678 8.20794 220.768 6.03948C220.911 2.59862 222.656 0.914031 226.013 0.806504C229.602 0.690016 231.455 2.31188 231.67 5.93195C231.795 8.01977 231.688 10.1165 231.688 12.8495C233.568 12.8495 235.251 12.8047 236.933 12.8585C238.965 12.9302 240.326 13.9248 240.299 16.0574C240.272 18.2259 238.92 19.095 236.817 18.9965C235.322 18.9248 233.818 18.9875 232.01 18.9875V31.6667C234.32 31.6667 236.611 31.6667 238.903 31.6667C240.952 31.6667 242.34 32.5001 242.313 34.7044C242.286 36.828 240.988 37.8764 238.938 37.8854C224.84 37.9033 210.752 37.9033 196.654 37.8854C194.47 37.8854 192.975 36.8459 193.011 34.5699C193.055 32.1506 194.756 31.5682 196.895 31.6488C198.856 31.7205 200.825 31.6667 203.063 31.6667V19.0502C201.559 19.0502 199.876 19.4087 198.462 18.9427C197.182 18.5305 196.188 17.2223 195.069 16.3083C196.126 15.1524 196.994 13.5753 198.31 12.966C199.554 12.3925 201.264 12.8406 203.34 12.8406L203.322 12.8495ZM214.278 19.1219V31.4337H220.651V19.1219H214.278Z" fill="#F6D578"/>
<path d="M224.787 73.8082H209.669C207.583 79.2473 206.464 80.0538 202.194 79.4803C199.742 79.1487 198.328 77.8047 198.319 75.3495C198.265 65.6631 198.247 55.9677 198.319 46.2814C198.337 43.4677 200.019 41.9892 202.776 41.9713C212.327 41.9265 221.878 41.9355 231.428 41.9534C234.427 41.9534 235.993 43.6738 236.02 46.5502C236.101 56.0036 236.11 65.466 236.02 74.9194C236.002 77.5627 234.651 79.3369 231.778 79.4982C228.976 79.6595 226.308 79.5609 225.351 76.1559C225.163 75.4839 225.028 74.8029 224.787 73.8082ZM224.921 60.5556H209.024C209.024 62.4731 208.881 64.2115 209.096 65.905C209.185 66.6039 210.027 67.7419 210.546 67.7509C215.281 67.8943 220.025 67.8315 224.921 67.8315V60.5466V60.5556ZM224.796 54.0143C225.279 49.8447 223.662 47.7569 219.944 47.7509C217.975 47.7509 215.997 47.7509 214.028 47.7509C208.541 47.7509 208.299 48.0735 209.481 54.0143H224.796Z" fill="#F6D578"/>
<path d="M189.412 13.7724C191.4 15.4211 193.109 16.344 194.085 17.7598C195.723 20.1433 197.066 22.7777 198.229 25.448C199.16 27.5806 198.444 29.3996 196.072 30.1523C193.736 30.8871 192.232 30 191.65 27.5896C191.203 25.7168 190.728 23.853 189.565 22.0161C189.511 22.8584 189.421 23.7007 189.421 24.5519C189.421 41.1469 189.439 57.7419 189.412 74.3369C189.412 78.9426 185.895 81.1738 181.652 79.4175C179.101 78.3602 178.922 76.2096 178.922 73.9068C178.922 55.672 178.922 37.4462 178.922 19.2114C178.922 14.8835 178.859 10.5645 178.94 6.23651C179.011 2.50891 180.793 0.779523 184.292 0.815365C187.882 0.860168 189.359 2.43723 189.412 6.353C189.448 9.1487 189.412 11.9534 189.412 13.7724Z" fill="#F6D578"/>
<path d="M136.136 54.1129C141.533 54.1129 146.537 54.1488 151.532 54.095C153.814 54.0771 155.882 54.328 155.945 57.2312C156.007 60.1434 154.056 60.5197 151.693 60.466C147.629 60.3764 143.565 60.4391 138.374 60.4391C139.94 61.828 140.683 62.8226 141.677 63.3065C146.045 65.4301 150.458 67.4821 154.915 69.3997C158.934 71.1201 160.089 74.4713 157.592 77.6882C155.918 79.8477 153.778 79.5699 151.585 78.8441C144.666 76.5502 139.546 71.9534 135.438 66.0842C134.713 65.0448 134.041 63.9606 133.164 62.6165C131.831 64.4176 130.712 66.1111 129.423 67.6613C123.613 74.6058 116.139 78.4409 107.179 79.3638C105.532 79.5341 103.465 80.1882 102.946 77.6524C102.471 75.3316 104.226 74.7939 105.944 74.1488C111.556 72.0609 116.882 69.4893 120.713 64.6147C121.555 63.5484 122.271 62.3835 123.64 60.4301C119.621 60.4301 116.453 60.3853 113.284 60.448C111.154 60.4839 109.551 59.9552 109.507 57.4552C109.453 54.8208 111.064 54.0771 113.365 54.104C116.041 54.1308 118.744 53.9068 121.394 54.1577C124.697 54.4713 126.424 53.6828 126.818 49.9194C127.23 45.9678 129.378 44.7402 132.726 45.3764C135.867 45.9678 137.013 47.8674 136.646 50.8961C136.539 51.8101 136.378 52.724 136.163 54.104L136.136 54.1129Z" fill="#F6D578"/>
<path d="M390.157 37.2671C394.006 37.2671 397.855 37.285 401.704 37.2671C404.845 37.2491 406.546 38.8979 406.618 41.9445C406.743 47.3208 406.689 52.6972 406.653 58.0735C406.636 61.2007 404.845 62.9391 401.874 62.9839C393.952 63.1183 386.021 63.1273 378.091 62.9839C375.289 62.9301 373.508 61.138 373.445 58.2617C373.329 52.8853 373.311 47.509 373.445 42.1416C373.526 38.9696 375.325 37.2491 378.61 37.2581C382.459 37.276 386.308 37.2581 390.148 37.2671H390.157ZM396.306 56.828C396.306 54.8835 396.306 53.3871 396.306 51.8907C396.306 45.3973 393.066 42.4074 386.585 42.9212C386.353 42.9391 386.039 42.8405 385.905 42.966C385.216 43.5753 384.025 44.2205 383.989 44.9015C383.81 48.8172 383.9 52.742 383.9 56.8369H396.306V56.828Z" fill="#F6D578"/>
<path d="M177.704 24.5071C177.212 28.8888 176.818 33.2795 176.183 37.6433C175.798 40.3046 174.321 41.8817 171.34 41.1111C168.333 40.3404 167.652 38.3691 168.342 35.5286C169.729 29.7939 170.937 24.0053 172.423 18.2974C172.701 17.2311 173.945 16.4068 174.742 15.4749C175.592 16.5053 176.926 17.4193 177.176 18.5842C177.588 20.4659 177.284 22.5089 177.284 24.4892C177.427 24.4982 177.561 24.5071 177.704 24.5161V24.5071Z" fill="#F6D578"/>
</g>
<defs>
<clipPath id="clip0_141_4107">
<rect width="495" height="80" fill="white"/>
</clipPath>
</defs>
</svg>
