<svg id="圖層_1" data-name="圖層 1" xmlns="http://www.w3.org/2000/svg" viewBox="0 0 408.81 313.27"><defs><style>.cls-1{fill:#ef8119;}</style></defs><path class="cls-1" d="M409.21,357.6c-2.12,2.47-4.28,4.87-8,3.38s-4-4.58-4-7.93c0-13.2-.12-26.4.07-39.6.1-7.26-2.93-12.15-9.46-15.18-5.06-2.35-10.06-4.84-14.94-7.55-2.31-1.27-3.57-.65-5.48.88-4.41,3.55-8.76,7.72-13.88,9.71-9.62,3.74-18.5.91-26-6.09-6.72-6.22-6.75-6.19-14.94-1.14a7.22,7.22,0,0,0,.94,1.86c4.32,5.78,6.08,12.41,6.16,19.48.13,12.8.14,25.6-.06,38.39a9.08,9.08,0,0,1-2.3,6c-1.24,1.15-4,1.43-5.79,1-3-.69-3.79-3.39-3.79-6.29,0-11.87-.33-23.75.09-35.6.44-12.12-4.62-19.9-15.91-24.33-10.11-4-19.93-8.69-30.07-13.17-12.5,22.49-31.45,35-57,35s-44.45-12.51-57.05-35.07c-12.14,5.47-24.27,10.54-36,16.37-7.05,3.49-9.81,10.2-9.83,18,0,12.27,0,24.53,0,36.8a25.23,25.23,0,0,1-.16,4c-.51,3-2.65,5.15-5.44,4.76-2.08-.29-4.22-2.22-5.71-4-.86-1-.63-3-.64-4.63,0-11.73.09-23.46,0-35.19-.13-11,3.28-20.4,11.91-27.58a5.81,5.81,0,0,0,.77-1.19c-3.26-1.09-6.34-2.27-9.5-3.09a3.84,3.84,0,0,0-3,1c-4.13,4-8.24,8-12.1,12.18a7.4,7.4,0,0,0-1.59,4.58c-.11,16.4-.07,32.8-.08,49.2a21.08,21.08,0,0,1-.17,4c-.58,3-2.74,5.11-5.54,4.67-2.07-.32-4.18-2.28-5.65-4-.84-1-.58-3.06-.59-4.64,0-16.27.06-32.53-.12-48.8a9.93,9.93,0,0,0-2.37-5.84,134.12,134.12,0,0,0-10.71-10.75,5.13,5.13,0,0,0-4-1.2c-8,2.1-15.87,4.44-23.76,6.79-7.51,2.24-11,6.81-11,14.65-.06,15.06,0,30.13,0,45.2,0,1.45.36,3.35-.39,4.28-1.46,1.8-3.4,3.9-5.47,4.35-2.77.6-5-1.39-5.8-4.34a16.39,16.39,0,0,1-.29-4q0-22.6,0-45.2c0-13.66,6.7-22.64,19.78-26.54,6.87-2.05,13.75-4.1,20.7-5.89,3.06-.79,4.26-2.18,4.41-5.49.19-4.33-1.11-7.17-4.43-10.19-10.06-9.14-14.87-21-14.82-34.55a37.62,37.62,0,0,0-3.4-16.48c-10-21.82,6.61-49.69,30.56-50.87,18.32-.91,36.7-.49,55.06-.66H114c.48-5.75,1-11.25,1.39-16.77,1.08-14.85,3.69-29.34,10.29-42.84C142,64.1,169.29,48.25,205.79,48.21c25.68,0,47.88,9.08,65,28.81,13.64,15.71,20.44,34.43,22.56,54.9,1.91,18.42,3.37,36.88,5.08,55.87.69-.85,1.13-1.37,1.55-1.91,4.39-5.62,8.82-11.21,13.14-16.89.77-1,1.68-2.54,1.46-3.61-3.26-15.89,8.45-30.69,25.22-33.3,14.54-2.26,27.23,3.58,33.86,15.08a23.76,23.76,0,0,1,3,16.91,5,5,0,0,0,1.89,5.49,50.33,50.33,0,0,1,12.57,60.64,30.91,30.91,0,0,0-2.15,6.38c-2.28,9.79-6.94,18.22-14.81,24.47-2.8,2.23-3.17,4.58-3.51,7.75-.62,5.71,1.13,9.1,6.74,11,4.36,1.5,8.26,4.28,12.55,6.07,9.79,4.1,16.74,10.63,19.21,21.29ZM242.86,246.11c0,2.39,0,4.79,0,7.19.06,6.34,9.56,14.27,15.51,12.1,11.31-4.14,22.31-9.13,33.44-13.75,2.08-.87,2.3-2.22,2-4.43-2.94-23.66-5.84-47.32-8.46-71-1.82-16.42-2.34-33-4.9-49.3-6.07-38.5-30.91-62.65-67.87-66.34C180.16,57.33,150.3,72,136,103.55c-6.47,14.25-7.79,29.44-9.36,44.69-3.42,33.12-7.22,66.2-10.71,99.31-.14,1.27.85,3.43,1.91,3.93,8.75,4.11,17.74,7.72,26.46,11.91,6.31,3.05,11.9,1.94,17.67-1.26,3.12-1.73,4.87-3.92,4.84-7.54-.06-5.6.18-11.21-.13-16.79a7.24,7.24,0,0,0-2.48-4.83c-19.62-14.7-29-34.43-29.43-58.77-.16-8.73,3-15.44,10.56-20.06a36.08,36.08,0,0,0,15.24-17.92c1.62-4.1,4.82-5.54,8.16-4.18s4.34,4.52,2.79,8.79A40.6,40.6,0,0,1,154,162.5c-6.25,3.72-8.3,8.49-7.17,15.24.17,1,.18,2.13.26,3.19a57.9,57.9,0,0,0,103.45,30.69c11.27-14.55,13.65-31.23,11.79-48.78-.35-3.25-3-6.9-5.57-9.15A101,101,0,0,0,218.48,133c-12.59-3.63-25.6-5.8-38.44-8.53-5-1.06-7.21-3.36-6.56-7.26.6-3.64,3.49-5.22,8.32-4.57,2.64.35,5.28.65,7.91,1,25.31,3.79,49,11.75,70,26.93,6.33,4.58,12.51,9.49,14,17.67a85.84,85.84,0,0,1,1.08,15.88c0,21.82-7.6,40.63-24.48,54.58C244.23,233.74,241.22,238.5,242.86,246.11Zm-134-76.6a6.2,6.2,0,0,0-1.35-.38c-16.63,0-33.26-.21-49.89,0-20.84.32-32.54,22.61-22.14,38.75,2.88,4.48,2.49,9.4,2.45,14.31-.05,7.16.91,14.08,4.57,20.4,6.12,10.6,15.22,16.8,27.5,16.93,12.51.12,22.14-5.61,28.56-16.54,4-6.75,4.45-14.14,4.12-21.66a27,27,0,0,1,3.08-14.6,22.44,22.44,0,0,0,3-9.43C109.13,188.17,108.88,179,108.88,169.51Zm273.7,49.68c3-8.94,2.31-17.84-1.36-26.45-8.46-19.85-32.42-29.18-51.38-20.17-20.58,9.77-28.74,33.16-18.67,53.22A34.28,34.28,0,0,1,314,234a32.17,32.17,0,0,0,62.7,1.38c.32-1.39-.1-3.71-1.07-4.51-5.71-4.7-11.32-9.72-17.68-13.37s-13.72-5.95-20.21-8.66c-2.47,3.43-4.2,6.12-6.21,8.57-2.6,3.17-6,3.7-8.73,1.63-2.87-2.19-2.91-5.56-.48-9.2a33.37,33.37,0,0,0,4.31-8c1.81-5.56,4.14-7.45,9.68-5.53,9.27,3.21,18.59,6.46,27.41,10.69C370.36,210.26,376.22,215,382.58,219.19ZM159.16,276.47a50.53,50.53,0,0,0,47.09,28c19.82-.86,34.59-10.28,44.4-27.93-1.91-.87-3.32-1.63-4.8-2.17-10.78-3.92-15.77-11.55-15-23,.21-3.22,0-6.47,0-10.29-17.75,6.64-34.77,6.37-51.19.47-1,7.63-1.12,15-3.13,21.91C174.23,271.4,166,273.25,159.16,276.47Zm147.08-26.91c.07,5.88-3.42,10-9,12.71-7.57,3.73-15.11,7.52-23,11.48,5.22,2.33,10.72,4.1,15.48,7.07,8.15,5.11,15.2,4.16,23.43-.44,5.73-3.2,8.64-6.31,7.3-12.69-.38-1.81-.8-3.89-1.94-5.19C314.6,258,310.37,253.86,306.24,249.56ZM136,273.49c-11.61-5-22.83-8.89-31.46-17.37-2.42,2.13-4.94,4.27-7.37,6.51C93.66,265.85,95,273.56,99.38,275c6.19,2,12.46,3.71,18.71,5.48a3.69,3.69,0,0,0,2.28-.05C125.34,278.26,130.26,276,136,273.49Zm222.58-3.31c-4.37.53-8.58,1.44-12.79,1.44s-8.63-.89-12.89-1.39c-.9,6.88-3.2,14,5.27,18.39,4.76,2.45,9.13,2.79,14,.52C361,285.05,359.42,277.63,358.55,270.18ZM365,160.91c.09-10.36-9-18-20.08-17.4-11.24.58-19.47,8.24-18.36,17.34C339.23,155.91,352,156,365,160.91ZM57,270.83c.21,1.43-.2,4.29,1,5.8,3.66,4.47,8,8.41,12.67,13.21,3.59-3.88,6.58-7.64,10.11-10.78,3-2.71,3.69-5.48,2.58-8.23Z" transform="translate(-0.39 -48.21)"/><path class="cls-1" d="M38,336.53c0,5.85,0,11.7,0,17.55,0,4.64-2.36,7.43-6,7.39S26,358.71,26,354.35q-.11-18.15,0-36.29c0-4.35,2.44-6.94,6-6.91s5.84,2.64,5.89,7C38,324.3,38,330.42,38,336.53Z" transform="translate(-0.39 -48.21)"/><path class="cls-1" d="M371.66,340.4c0-4.78-.06-9.57,0-14.36.07-4.39,2.36-7,6-6.94s5.92,2.59,6,7q.12,14.16,0,28.33c0,4.35-2.49,7.06-6,7s-5.85-2.74-5.92-7.1C371.6,349.72,371.65,345.06,371.66,340.4Z" transform="translate(-0.39 -48.21)"/><path class="cls-1" d="M146.7,342.7c0,4.13.1,8.26,0,12.39-.13,3.82-2.53,6.44-5.79,6.32-3.58-.13-5.86-2.27-5.95-5.76q-.33-13,0-26c.1-3.43,2.27-5.65,6-5.67,3.37,0,5.63,2.38,5.76,6.3C146.81,334.43,146.71,338.56,146.7,342.7Z" transform="translate(-0.39 -48.21)"/><path class="cls-1" d="M262.91,342.65c0-4.13-.11-8.26,0-12.39.13-3.91,2.42-6.31,5.8-6.27,3.7.05,5.84,2.3,5.94,5.72q.35,13,0,26a5.84,5.84,0,0,1-6,5.76c-3.27-.08-5.63-2.56-5.75-6.4C262.81,350.92,262.91,346.79,262.91,342.65Z" transform="translate(-0.39 -48.21)"/><path class="cls-1" d="M57.61,189.22c10.88.88,21.69,1.81,31.94,5.93a18.7,18.7,0,0,1,2.56,1.08c2.87,1.69,4.13,4.2,3,7.41s-3.88,4.69-7,3.49c-11.85-4.52-24.24-5.32-36.69-6.07-3.85-.23-6.19-2.84-6.09-6,.1-3.39,2.73-5.66,6.79-5.79C53.9,189.17,55.76,189.22,57.61,189.22Z" transform="translate(-0.39 -48.21)"/></svg>